SplineFontDB: 3.0
FontName: Exo-Bold
FullName: Exo Bold
FamilyName: Exo
Weight: Bold
Copyright: Copyright (c) 2011 Natanael Gama (exo@ndiscovered.com), with Reserved Font Name "Exo"
Version: 1.00
ItalicAngle: 0
UnderlinePosition: -50
UnderlineWidth: 50
Ascent: 800
Descent: 200
sfntRevision: 0x00010000
LayerCount: 2
Layer: 0 1 "Back"  1
Layer: 1 1 "Fore"  0
XUID: [1021 364 1533442188 917745]
FSType: 0
OS2Version: 4
OS2_WeightWidthSlopeOnly: 0
OS2_UseTypoMetrics: 1
CreationTime: 1317847530
ModificationTime: 1328305021
PfmFamily: 17
TTFWeight: 700
TTFWidth: 5
LineGap: 0
VLineGap: 0
Panose: 2 0 8 3 0 0 0 0 0 0
OS2TypoAscent: 202
OS2TypoAOffset: 1
OS2TypoDescent: -127
OS2TypoDOffset: 1
OS2TypoLinegap: 0
OS2WinAscent: 0
OS2WinAOffset: 1
OS2WinDescent: 41
OS2WinDOffset: 1
HheadAscent: 0
HheadAOffset: 1
HheadDescent: -41
HheadDOffset: 1
OS2SubXSize: 650
OS2SubYSize: 700
OS2SubXOff: 0
OS2SubYOff: 140
OS2SupXSize: 650
OS2SupYSize: 700
OS2SupXOff: 0
OS2SupYOff: 480
OS2StrikeYSize: 49
OS2StrikeYPos: 258
OS2Vendor: 'PfEd'
OS2CodePages: 20000093.00000000
OS2UnicodeRanges: a00000ef.4000204b.00000000.00000000
Lookup: 4 0 0 "'ordn' Ordinals lookup 0"  {"'ordn' Ordinals lookup 0 subtable"  } ['ordn' ('DFLT' <'dflt' > 'grek' <'dflt' > 'latn' <'dflt' > ) ]
Lookup: 1 0 0 "'smcp' Lowercase to Small Capitals lookup 1"  {"'smcp' Lowercase to Small Capitals lookup 1 subtable"  } ['smcp' ('DFLT' <'dflt' > 'grek' <'dflt' > 'latn' <'FRA ' 'dflt' > ) ]
Lookup: 1 0 0 "'c2sc' Capitals to Small Capitals in Latin lookup 2"  {"'c2sc' Capitals to Small Capitals in Latin lookup 2 subtable"  } ['c2sc' ('latn' <'dflt' > ) ]
Lookup: 4 0 0 "'dlig' Discretionary Ligatures lookup 3"  {"'dlig' Discretionary Ligatures lookup 3 subtable"  } ['dlig' ('DFLT' <'dflt' > 'grek' <'dflt' > 'latn' <'dflt' > ) ]
Lookup: 4 0 1 "'liga' Standard Ligatures lookup 4"  {"'liga' Standard Ligatures lookup 4 subtable"  } ['liga' ('DFLT' <'dflt' > 'grek' <'dflt' > 'latn' <'FRA ' 'dflt' > ) ]

StartChar: .notdef
Encoding: 0 -1 0
AltUni2: 000000.ffffffff.0
Width: 709
Flags: W
LayerCount: 2
Fore
SplineSet
620 506 m 1,0,-1
 368 266 l 1,1,-1
 620 25 l 1,2,-1
 620 506 l 1,0,-1
103 13 m 1,3,-1
 610 13 l 1,4,-1
 357 256 l 1,5,-1
 103 13 l 1,3,-1
90 22 m 1,6,-1
 346 266 l 1,7,-1
 90 507 l 1,8,-1
 90 22 l 1,6,-1
611 518 m 1,9,-1
 100 518 l 1,10,-1
 357 276 l 1,11,-1
 611 518 l 1,9,-1
76 0 m 1,12,-1
 76 531 l 1,13,-1
 634 531 l 1,14,-1
 634 0 l 1,15,-1
 76 0 l 1,12,-1
EndSplineSet
EndChar

StartChar: exclam
Encoding: 33 33 4
Width: 273
GlyphClass: 2
Flags: W
LayerCount: 2
Fore
SplineSet
67 23 m 2,0,-1
 67 113 l 2,1,2
 67 138 67 138 91 138 c 2,3,-1
 179 138 l 2,4,5
 189 138 189 138 195.5 131 c 128,-1,6
 202 124 202 124 202 113 c 2,7,-1
 202 23 l 2,8,9
 202 0 202 0 179 0 c 2,10,-1
 91 0 l 2,11,12
 80 0 80 0 73.5 6.5 c 128,-1,13
 67 13 67 13 67 23 c 2,0,-1
65 731 m 1,14,-1
 206 731 l 1,15,-1
 191 196 l 1,16,-1
 77 196 l 1,17,-1
 65 731 l 1,14,-1
EndSplineSet
Substitution2: "'smcp' Lowercase to Small Capitals lookup 1 subtable" exclam.smcp
EndChar

StartChar: quotedbl
Encoding: 34 34 5
Width: 444
GlyphClass: 2
Flags: W
LayerCount: 2
Fore
SplineSet
65 732 m 1,0,-1
 200 732 l 1,1,-1
 200 665 l 1,2,-1
 190 531 l 1,3,-1
 76 531 l 1,4,-1
 65 665 l 1,5,-1
 65 732 l 1,0,-1
245 732 m 1,6,-1
 380 732 l 1,7,-1
 380 665 l 1,8,-1
 370 531 l 1,9,-1
 256 531 l 1,10,-1
 245 665 l 1,11,-1
 245 732 l 1,6,-1
EndSplineSet
Substitution2: "'smcp' Lowercase to Small Capitals lookup 1 subtable" quotedbl.smcp
EndChar

StartChar: numbersign
Encoding: 35 35 6
Width: 721
GlyphClass: 2
Flags: W
LayerCount: 2
Fore
SplineSet
15 210 m 1,0,-1
 30 306 l 1,1,-1
 182 306 l 1,2,-1
 203 427 l 1,3,-1
 49 427 l 1,4,-1
 65 523 l 1,5,-1
 220 523 l 1,6,-1
 257 732 l 1,7,-1
 353 732 l 1,8,-1
 316 523 l 1,9,-1
 440 523 l 1,10,-1
 476 732 l 1,11,-1
 572 732 l 1,12,-1
 536 523 l 1,13,-1
 707 523 l 1,14,-1
 693 427 l 1,15,-1
 521 427 l 1,16,-1
 500 305 l 1,17,-1
 672 305 l 1,18,-1
 659 209 l 1,19,-1
 480 209 l 1,20,-1
 443 0 l 1,21,-1
 347 0 l 1,22,-1
 384 209 l 1,23,-1
 260 210 l 1,24,-1
 223 0 l 1,25,-1
 127 0 l 1,26,-1
 164 210 l 1,27,-1
 15 210 l 1,0,-1
278 306 m 1,28,-1
 404 305 l 1,29,-1
 425 427 l 1,30,-1
 299 427 l 1,31,-1
 278 306 l 1,28,-1
EndSplineSet
Substitution2: "'smcp' Lowercase to Small Capitals lookup 1 subtable" numbersign.smcp
EndChar

StartChar: dollar
Encoding: 36 36 7
Width: 570
GlyphClass: 2
Flags: W
LayerCount: 2
Fore
SplineSet
238 824 m 1,0,-1
 323 824 l 1,1,-1
 323 737 l 1,2,3
 416 731 416 731 502 709 c 1,4,-1
 502 600 l 1,5,6
 359 609 359 609 316.5 609.5 c 128,-1,7
 274 610 274 610 270 610 c 0,8,9
 225 610 225 610 203.5 597 c 128,-1,10
 182 584 182 584 182 538 c 2,11,-1
 182 502 l 2,12,13
 182 464 182 464 201.5 448 c 128,-1,14
 221 432 221 432 262 432 c 2,15,-1
 355 432 l 2,16,17
 470 432 470 432 510 341 c 0,18,19
 529 296 529 296 529 238 c 2,20,-1
 529 189 l 2,21,22
 529 73 529 73 464 29 c 0,23,24
 409 -8 409 -8 329 -8 c 0,25,26
 326 -8 326 -8 323 -8 c 1,27,-1
 323 -90 l 1,28,-1
 238 -90 l 1,29,-1
 238 -6 l 1,30,31
 146 -1 146 -1 65 22 c 1,32,-1
 65 130 l 1,33,34
 224 121 224 121 298 121 c 0,35,36
 389 121 389 121 389 184 c 2,37,-1
 389 223 l 2,38,39
 389 257 389 257 374.5 274.5 c 128,-1,40
 360 292 360 292 322 292 c 2,41,-1
 231 292 l 2,42,43
 182 292 182 292 146 306.5 c 128,-1,44
 110 321 110 321 90.5 342 c 128,-1,45
 71 363 71 363 59 391 c 1,46,47
 42 435 42 435 42 486 c 2,48,-1
 42 549 l 1,49,50
 43 732 43 732 238 738 c 1,51,-1
 238 824 l 1,0,-1
EndSplineSet
Substitution2: "'smcp' Lowercase to Small Capitals lookup 1 subtable" dollar.smcp
EndChar

StartChar: percent
Encoding: 37 37 8
Width: 962
GlyphClass: 2
Flags: W
LayerCount: 2
Fore
SplineSet
32 480 m 2,0,-1
 32 602 l 2,1,2
 32 668 32 668 62.5 700 c 128,-1,3
 93 732 93 732 167 732 c 2,4,-1
 268 732 l 2,5,6
 339 732 339 732 369.5 700 c 128,-1,7
 400 668 400 668 400 602 c 2,8,-1
 400 480 l 2,9,10
 400 413 400 413 369.5 381 c 128,-1,11
 339 349 339 349 266 349 c 2,12,-1
 165 349 l 2,13,14
 93 349 93 349 62.5 381 c 128,-1,15
 32 413 32 413 32 480 c 2,0,-1
130 496 m 2,16,17
 130 469 130 469 140 458 c 128,-1,18
 150 447 150 447 178 447 c 2,19,-1
 252 447 l 2,20,21
 292 447 292 447 299 468 c 0,22,23
 302 478 302 478 302 496 c 2,24,-1
 302 585 l 2,25,26
 302 614 302 614 291.5 624 c 128,-1,27
 281 634 281 634 254 634 c 2,28,-1
 180 634 l 2,29,30
 151 634 151 634 140.5 624 c 128,-1,31
 130 614 130 614 130 585 c 2,32,-1
 130 496 l 2,16,17
208 0 m 1,33,-1
 655 732 l 1,34,-1
 755 732 l 1,35,-1
 312 0 l 1,36,-1
 208 0 l 1,33,-1
563 133 m 2,37,-1
 563 255 l 2,38,39
 563 299 563 299 575 327 c 0,40,41
 600 386 600 386 697 386 c 2,42,-1
 798 386 l 2,43,44
 869 386 869 386 900 353.5 c 128,-1,45
 931 321 931 321 931 255 c 2,46,-1
 931 133 l 2,47,48
 931 67 931 67 900 35 c 128,-1,49
 869 3 869 3 796 3 c 2,50,-1
 695 3 l 2,51,52
 623 3 623 3 593 35 c 128,-1,53
 563 67 563 67 563 133 c 2,37,-1
661 150 m 2,54,55
 661 123 661 123 670.5 112 c 128,-1,56
 680 101 680 101 709 101 c 2,57,-1
 782 101 l 2,58,59
 813 101 813 101 823 112 c 128,-1,60
 833 123 833 123 833 150 c 2,61,-1
 833 239 l 2,62,63
 833 276 833 276 812 284 c 0,64,65
 802 288 802 288 784 288 c 2,66,-1
 711 288 l 2,67,68
 682 288 682 288 671.5 277.5 c 128,-1,69
 661 267 661 267 661 239 c 2,70,-1
 661 150 l 2,54,55
EndSplineSet
Substitution2: "'smcp' Lowercase to Small Capitals lookup 1 subtable" percent.smcp
EndChar

StartChar: ampersand
Encoding: 38 38 9
Width: 679
GlyphClass: 2
Flags: W
LayerCount: 2
Fore
SplineSet
320 608 m 2,0,1
 253 608 253 608 253 576 c 0,2,3
 253 553 253 553 284 510 c 2,4,-1
 453 279 l 1,5,-1
 574 393 l 1,6,-1
 623 334 l 1,7,-1
 563 227 l 1,8,-1
 526 183 l 1,9,-1
 662 0 l 1,10,-1
 498 0 l 1,11,-1
 427 96 l 1,12,-1
 362 38 l 2,13,14
 313 -6 313 -6 238 -6 c 0,15,16
 199 -6 199 -6 159 9 c 0,17,18
 101 30 101 30 63.5 86 c 128,-1,19
 26 142 26 142 26 202 c 0,20,21
 26 296 26 296 110 369 c 2,22,-1
 179 430 l 1,23,-1
 128 504 l 2,24,25
 95 551 95 551 95 594 c 0,26,27
 95 649 95 649 130.5 686.5 c 128,-1,28
 166 724 166 724 207 730 c 0,29,30
 253 737 253 737 314 737 c 128,-1,31
 375 737 375 737 484 710 c 1,32,-1
 484 608 l 1,33,-1
 320 608 l 2,0,1
197 284 m 1,34,35
 158 251 158 251 158 220 c 128,-1,36
 158 189 158 189 176 166.5 c 128,-1,37
 194 144 194 144 211.5 134.5 c 128,-1,38
 229 125 229 125 240 125 c 128,-1,39
 251 125 251 125 256 125 c 0,40,41
 279 128 279 128 299 147 c 2,42,-1
 350 196 l 1,43,-1
 249 330 l 1,44,-1
 197 284 l 1,34,35
EndSplineSet
AlternateSubs2: "'salt' Stylistic Alternatives in Latin lookup 16 subtable" ampersand.salt
Substitution2: "'smcp' Lowercase to Small Capitals lookup 1 subtable" ampersand.smcp
EndChar

StartChar: quotesingle
Encoding: 39 39 10
Width: 224
GlyphClass: 2
Flags: W
LayerCount: 2
Fore
SplineSet
42 732 m 1,0,-1
 183 732 l 1,1,-1
 183 665 l 1,2,-1
 173 531 l 1,3,-1
 53 531 l 1,4,-1
 42 665 l 1,5,-1
 42 732 l 1,0,-1
EndSplineSet
Substitution2: "'smcp' Lowercase to Small Capitals lookup 1 subtable" quotesingle.smcp
EndChar

StartChar: parenleft
Encoding: 40 40 11
Width: 377
GlyphClass: 2
Flags: W
LayerCount: 2
Fore
SplineSet
76 132 m 128,-1,1
 57 225 57 225 57 308.5 c 128,-1,2
 57 392 57 392 66.5 457.5 c 128,-1,3
 76 523 76 523 91.5 574 c 128,-1,4
 107 625 107 625 126 672 c 128,-1,5
 145 719 145 719 163 752 c 0,6,7
 202 822 202 822 223 848 c 1,8,-1
 232 860 l 1,9,-1
 363 860 l 1,10,11
 340 825 340 825 308 760 c 128,-1,12
 276 695 276 695 254.5 635.5 c 128,-1,13
 233 576 233 576 215 490.5 c 128,-1,14
 197 405 197 405 197 334 c 128,-1,15
 197 263 197 263 206 199.5 c 128,-1,16
 215 136 215 136 229.5 84.5 c 128,-1,17
 244 33 244 33 262 -14.5 c 128,-1,18
 280 -62 280 -62 298 -97 c 0,19,20
 334 -169 334 -169 354 -197 c 2,21,-1
 363 -210 l 1,22,-1
 232 -210 l 1,23,24
 208 -186 208 -186 174.5 -130.5 c 128,-1,25
 141 -75 141 -75 118 -18 c 128,-1,0
 95 39 95 39 76 132 c 128,-1,1
EndSplineSet
Substitution2: "'case' Case-Sensitive Forms lookup 18 subtable" parenleft.alt
Substitution2: "'c2sc' Capitals to Small Capitals in Latin lookup 2 subtable" parenleft.smcp
Substitution2: "'smcp' Lowercase to Small Capitals lookup 1 subtable" parenleft.smcp
EndChar

StartChar: parenright
Encoding: 41 41 12
Width: 377
GlyphClass: 2
Flags: W
LayerCount: 2
Fore
SplineSet
163 151.5 m 128,-1,1
 181 240 181 240 181 305.5 c 128,-1,2
 181 371 181 371 175.5 418.5 c 128,-1,3
 170 466 170 466 160 507.5 c 128,-1,4
 150 549 150 549 138 589.5 c 128,-1,5
 126 630 126 630 112 664.5 c 128,-1,6
 98 699 98 699 84.5 730 c 128,-1,7
 71 761 71 761 58 784 c 0,8,9
 32 833 32 833 21 851 c 2,10,-1
 15 860 l 1,11,-1
 146 860 l 1,12,13
 170 831 170 831 203.5 771.5 c 128,-1,14
 237 712 237 712 260 654 c 128,-1,15
 283 596 283 596 302 506.5 c 128,-1,16
 321 417 321 417 321 334.5 c 128,-1,17
 321 252 321 252 311.5 183 c 128,-1,18
 302 114 302 114 286.5 62 c 128,-1,19
 271 10 271 10 252 -36 c 128,-1,20
 233 -82 233 -82 215 -113 c 0,21,22
 176 -177 176 -177 155 -200 c 2,23,-1
 146 -210 l 1,24,-1
 15 -210 l 1,25,26
 38 -178 38 -178 69.5 -116.5 c 128,-1,27
 101 -55 101 -55 123 4 c 128,-1,0
 145 63 145 63 163 151.5 c 128,-1,1
EndSplineSet
Substitution2: "'case' Case-Sensitive Forms lookup 18 subtable" parenright.alt
Substitution2: "'c2sc' Capitals to Small Capitals in Latin lookup 2 subtable" parenright.smcp
Substitution2: "'smcp' Lowercase to Small Capitals lookup 1 subtable" parenright.smcp
EndChar

StartChar: asterisk
Encoding: 42 42 13
Width: 427
GlyphClass: 2
Flags: W
LayerCount: 2
Fore
SplineSet
38 566 m 1,0,-1
 38 622 l 1,1,-1
 177 646 l 1,2,-1
 182 561 l 1,3,-1
 38 566 l 1,0,-1
95 416 m 1,4,-1
 119 553 l 1,5,-1
 202 532 l 1,6,-1
 148 399 l 1,7,-1
 95 416 l 1,4,-1
166 720 m 1,8,-1
 220 739 l 1,9,-1
 287 617 l 1,10,-1
 208 584 l 1,11,-1
 166 720 l 1,8,-1
190 467 m 1,12,-1
 237 538 l 1,13,-1
 349 448 l 1,14,-1
 317 403 l 1,15,-1
 190 467 l 1,12,-1
239 571 m 1,16,-1
 359 650 l 1,17,-1
 390 603 l 1,18,-1
 294 506 l 1,19,-1
 239 571 l 1,16,-1
EndSplineSet
Substitution2: "'smcp' Lowercase to Small Capitals lookup 1 subtable" asterisk.smcp
EndChar

StartChar: plus
Encoding: 43 43 14
Width: 483
GlyphClass: 2
Flags: W
LayerCount: 2
Fore
SplineSet
34 297 m 1,0,-1
 34 415 l 1,1,-1
 182 415 l 1,2,-1
 182 564 l 1,3,-1
 300 564 l 1,4,-1
 300 415 l 1,5,-1
 450 415 l 1,6,-1
 450 297 l 1,7,-1
 300 297 l 1,8,-1
 300 148 l 1,9,-1
 182 148 l 1,10,-1
 182 297 l 1,11,-1
 34 297 l 1,0,-1
EndSplineSet
EndChar

StartChar: comma
Encoding: 44 44 15
Width: 261
GlyphClass: 2
Flags: W
LayerCount: 2
Fore
SplineSet
65 25 m 2,0,-1
 65 112 l 2,1,2
 65 139 65 139 90 139 c 2,3,-1
 174 139 l 2,4,5
 198 139 198 139 198 112 c 2,6,-1
 198 -11 l 2,7,8
 198 -42 198 -42 184.5 -61.5 c 128,-1,9
 171 -81 171 -81 152 -86 c 0,10,11
 129 -93 129 -93 111 -93 c 128,-1,12
 93 -93 93 -93 83 -91 c 2,13,-1
 70 -88 l 1,14,-1
 70 -40 l 1,15,16
 83 -40 83 -40 91 -35 c 0,17,18
 101 -29 101 -29 101 -14 c 2,19,-1
 101 0 l 1,20,-1
 90 0 l 2,21,22
 79 0 79 0 72 6.5 c 128,-1,23
 65 13 65 13 65 25 c 2,0,-1
EndSplineSet
EndChar

StartChar: hyphen
Encoding: 45 45 16
Width: 354
GlyphClass: 2
Flags: W
LayerCount: 2
Fore
SplineSet
20 231 m 1,0,-1
 20 349 l 1,1,-1
 334 349 l 1,2,-1
 334 231 l 1,3,-1
 20 231 l 1,0,-1
EndSplineSet
Substitution2: "'case' Case-Sensitive Forms lookup 18 subtable" hyphen.alt
Substitution2: "'c2sc' Capitals to Small Capitals in Latin lookup 2 subtable" hyphen.smcp
Substitution2: "'smcp' Lowercase to Small Capitals lookup 1 subtable" hyphen.smcp
EndChar

StartChar: period
Encoding: 46 46 17
Width: 263
GlyphClass: 2
Flags: W
LayerCount: 2
Fore
SplineSet
65 23 m 2,0,-1
 65 113 l 2,1,2
 65 138 65 138 89 138 c 2,3,-1
 175 138 l 2,4,5
 200 138 200 138 200 113 c 2,6,-1
 200 23 l 2,7,8
 200 0 200 0 175 0 c 2,9,-1
 89 0 l 2,10,11
 78 0 78 0 71.5 6.5 c 128,-1,12
 65 13 65 13 65 23 c 2,0,-1
EndSplineSet
EndChar

StartChar: slash
Encoding: 47 47 18
Width: 456
GlyphClass: 2
Flags: W
LayerCount: 2
Fore
SplineSet
15 -72 m 1,0,-1
 296 770 l 1,1,-1
 441 770 l 1,2,-1
 160 -72 l 1,3,-1
 15 -72 l 1,0,-1
EndSplineSet
Substitution2: "'numr' Numerators in Latin lookup 13 subtable" fraction
Substitution2: "'frac' Diagonal Fractions lookup 6 subtable" fraction
EndChar

StartChar: zero
Encoding: 48 48 19
Width: 630
GlyphClass: 2
Flags: W
LayerCount: 2
Fore
SplineSet
53 178 m 2,0,-1
 53 548 l 2,1,2
 53 637 53 637 102.5 684.5 c 128,-1,3
 152 732 152 732 237 732 c 2,4,-1
 401 732 l 2,5,6
 537 732 537 732 569 622 c 0,7,8
 578 591 578 591 578 554 c 2,9,-1
 578 178 l 2,10,11
 578 91 578 91 531.5 45.5 c 128,-1,12
 485 0 485 0 400 0 c 2,13,-1
 236 0 l 2,14,15
 150 0 150 0 101.5 45 c 128,-1,16
 53 90 53 90 53 178 c 2,0,-1
193 201 m 2,17,18
 193 129 193 129 268 129 c 2,19,-1
 365 129 l 2,20,21
 402 129 402 129 420 145 c 128,-1,22
 438 161 438 161 438 200 c 2,23,-1
 438 532 l 2,24,25
 438 603 438 603 370 603 c 2,26,-1
 265 603 l 2,27,28
 224 603 224 603 208.5 581.5 c 128,-1,29
 193 560 193 560 193 532 c 2,30,-1
 193 201 l 2,17,18
EndSplineSet
Substitution2: "'dnom' Denominators in Latin lookup 19 subtable" zero.denominator
Substitution2: "'sups' Superscript lookup 17 subtable" zerosuperior
Substitution2: "'onum' Oldstyle Figures in Latin lookup 15 subtable" zero.oldstyle
Substitution2: "'tnum' Tabular Numbers in Latin lookup 14 subtable" zero.tnum
Substitution2: "'numr' Numerators in Latin lookup 13 subtable" zero.numerator
Substitution2: "'zero' Slashed Zero lookup 12 subtable" uni0338
Substitution2: "'sinf' Scientific Inferiors lookup 11 subtable" zeroinferior
Substitution2: "'frac' Diagonal Fractions lookup 5 subtable" zero.numerator
Substitution2: "'smcp' Lowercase to Small Capitals lookup 1 subtable" zero.smcp
EndChar

StartChar: one
Encoding: 49 49 20
Width: 371
GlyphClass: 2
Flags: W
LayerCount: 2
Fore
SplineSet
311 732 m 1,0,-1
 311 0 l 1,1,-1
 171 0 l 1,2,-1
 171 593 l 1,3,-1
 30 558 l 1,4,-1
 30 649 l 1,5,-1
 172 732 l 1,6,-1
 311 732 l 1,0,-1
EndSplineSet
Substitution2: "'dnom' Denominators in Latin lookup 19 subtable" one.denominator
Substitution2: "'sups' Superscript lookup 17 subtable" onesuperior
Substitution2: "'onum' Oldstyle Figures in Latin lookup 15 subtable" one.oldstyle
Substitution2: "'tnum' Tabular Numbers in Latin lookup 14 subtable" one.tnum
Substitution2: "'numr' Numerators in Latin lookup 13 subtable" one.numerator
Substitution2: "'sinf' Scientific Inferiors lookup 11 subtable" oneinferior
Substitution2: "'frac' Diagonal Fractions lookup 5 subtable" one.numerator
Substitution2: "'smcp' Lowercase to Small Capitals lookup 1 subtable" one.smcp
EndChar

StartChar: two
Encoding: 50 50 21
Width: 588
GlyphClass: 2
Flags: W
LayerCount: 2
Fore
SplineSet
30 612 m 1,0,-1
 30 716 l 1,1,2
 177 742 177 742 334 742 c 0,3,4
 445 742 445 742 499 675 c 0,5,6
 551 611 551 611 551 515 c 0,7,8
 551 348 551 348 275 129 c 1,9,-1
 551 129 l 1,10,-1
 551 0 l 1,11,-1
 38 0 l 1,12,-1
 38 123 l 1,13,14
 118 177 118 177 190.5 239 c 128,-1,15
 263 301 263 301 306.5 345 c 128,-1,16
 350 389 350 389 380 435.5 c 128,-1,17
 410 482 410 482 410 515 c 128,-1,18
 410 548 410 548 398 570 c 0,19,20
 374 612 374 612 290 612 c 2,21,-1
 30 612 l 1,0,-1
EndSplineSet
Substitution2: "'dnom' Denominators in Latin lookup 19 subtable" two.denominator
Substitution2: "'sups' Superscript lookup 17 subtable" twosuperior
Substitution2: "'onum' Oldstyle Figures in Latin lookup 15 subtable" two.oldstyle
Substitution2: "'tnum' Tabular Numbers in Latin lookup 14 subtable" two.tnum
Substitution2: "'numr' Numerators in Latin lookup 13 subtable" two.numerator
Substitution2: "'sinf' Scientific Inferiors lookup 11 subtable" twoinferior
Substitution2: "'frac' Diagonal Fractions lookup 5 subtable" two.numerator
Substitution2: "'smcp' Lowercase to Small Capitals lookup 1 subtable" two.smcp
EndChar

StartChar: three
Encoding: 51 51 22
Width: 583
GlyphClass: 2
Flags: W
LayerCount: 2
Fore
SplineSet
339 -7 m 2,0,-1
 281 -7 l 2,1,2
 268 -7 268 -7 262 -7 c 128,-1,3
 256 -7 256 -7 228.5 -6.5 c 128,-1,4
 201 -6 201 -6 191 -5.5 c 128,-1,5
 181 -5 181 -5 158 -3.5 c 128,-1,6
 135 -2 135 -2 122.5 0 c 128,-1,7
 110 2 110 2 91 5 c 0,8,9
 61 10 61 10 29 21 c 1,10,-1
 30 123 l 1,11,-1
 284 123 l 2,12,13
 341 123 341 123 363.5 135 c 128,-1,14
 386 147 386 147 386 191 c 2,15,-1
 386 223 l 2,16,17
 386 265 386 265 362.5 280.5 c 128,-1,18
 339 296 339 296 290 298 c 2,19,-1
 91 306 l 1,20,-1
 91 418 l 1,21,-1
 290 428 l 2,22,23
 343 431 343 431 365.5 446.5 c 128,-1,24
 388 462 388 462 388 500 c 2,25,-1
 388 536 l 2,26,27
 388 563 388 563 373.5 579 c 128,-1,28
 359 595 359 595 339 600 c 128,-1,29
 319 605 319 605 290 605 c 2,30,-1
 23 605 l 1,31,-1
 23 706 l 1,32,33
 105 735 105 735 282 735 c 0,34,35
 315 735 315 735 346 734 c 0,36,37
 429 732 429 732 478 685 c 128,-1,38
 527 638 527 638 527 558 c 2,39,-1
 527 506 l 2,40,41
 527 392 527 392 451 364 c 1,42,43
 527 332 527 332 527 214 c 2,44,-1
 527 172 l 2,45,46
 527 85 527 85 479 39 c 128,-1,47
 431 -7 431 -7 339 -7 c 2,0,-1
EndSplineSet
Substitution2: "'dnom' Denominators in Latin lookup 19 subtable" three.denominator
Substitution2: "'sups' Superscript lookup 17 subtable" threesuperior
Substitution2: "'onum' Oldstyle Figures in Latin lookup 15 subtable" three.oldstyle
Substitution2: "'tnum' Tabular Numbers in Latin lookup 14 subtable" three.tnum
Substitution2: "'numr' Numerators in Latin lookup 13 subtable" three.numerator
Substitution2: "'sinf' Scientific Inferiors lookup 11 subtable" threeinferior
Substitution2: "'frac' Diagonal Fractions lookup 5 subtable" three.numerator
Substitution2: "'smcp' Lowercase to Small Capitals lookup 1 subtable" three.smcp
EndChar

StartChar: four
Encoding: 52 52 23
Width: 620
GlyphClass: 2
Flags: W
LayerCount: 2
Fore
SplineSet
392 292 m 1,0,-1
 392 459 l 1,1,-1
 424 536 l 1,2,-1
 532 536 l 1,3,-1
 532 292 l 1,4,-1
 606 292 l 1,5,-1
 606 184 l 1,6,-1
 532 160 l 1,7,-1
 532 2 l 1,8,-1
 392 2 l 1,9,-1
 392 160 l 1,10,-1
 49 160 l 1,11,-1
 15 224 l 1,12,-1
 276 732 l 1,13,-1
 430 732 l 1,14,-1
 211 292 l 1,15,-1
 392 292 l 1,0,-1
EndSplineSet
Substitution2: "'dnom' Denominators in Latin lookup 19 subtable" four.denominator
Substitution2: "'sups' Superscript lookup 17 subtable" foursuperior
Substitution2: "'onum' Oldstyle Figures in Latin lookup 15 subtable" four.oldstyle
Substitution2: "'tnum' Tabular Numbers in Latin lookup 14 subtable" four.tnum
Substitution2: "'numr' Numerators in Latin lookup 13 subtable" four.numerator
Substitution2: "'sinf' Scientific Inferiors lookup 11 subtable" fourinferior
Substitution2: "'frac' Diagonal Fractions lookup 5 subtable" four.numerator
Substitution2: "'smcp' Lowercase to Small Capitals lookup 1 subtable" four.smcp
EndChar

StartChar: five
Encoding: 53 53 24
Width: 596
GlyphClass: 2
Flags: W
LayerCount: 2
Fore
SplineSet
208 438 m 1,0,1
 240 464 240 464 315 464 c 0,2,3
 342 464 342 464 392.5 462 c 128,-1,4
 443 460 443 460 481 435 c 0,5,6
 553 389 553 389 553 280 c 2,7,-1
 553 177 l 2,8,9
 553 66 553 66 468 20 c 0,10,11
 423 -4 423 -4 367 -4 c 0,12,13
 265 -4 265 -4 208.5 0 c 128,-1,14
 152 4 152 4 58 20 c 1,15,-1
 58 130 l 1,16,-1
 340 130 l 2,17,18
 383 130 383 130 398 150.5 c 128,-1,19
 413 171 413 171 413 201 c 2,20,-1
 413 268 l 2,21,22
 413 320 413 320 382 333 c 0,23,24
 368 339 368 339 346 339 c 2,25,-1
 252 339 l 2,26,27
 224 339 224 339 207.5 324.5 c 128,-1,28
 191 310 191 310 191 280 c 1,29,-1
 59 280 l 1,30,-1
 81 732 l 1,31,-1
 526 732 l 1,32,-1
 526 603 l 1,33,-1
 216 603 l 1,34,-1
 208 438 l 1,0,1
EndSplineSet
Substitution2: "'dnom' Denominators in Latin lookup 19 subtable" five.denominator
Substitution2: "'sups' Superscript lookup 17 subtable" fivesuperior
Substitution2: "'onum' Oldstyle Figures in Latin lookup 15 subtable" five.oldstyle
Substitution2: "'tnum' Tabular Numbers in Latin lookup 14 subtable" five.tnum
Substitution2: "'numr' Numerators in Latin lookup 13 subtable" five.numerator
Substitution2: "'sinf' Scientific Inferiors lookup 11 subtable" fiveinferior
Substitution2: "'frac' Diagonal Fractions lookup 5 subtable" five.numerator
Substitution2: "'smcp' Lowercase to Small Capitals lookup 1 subtable" five.smcp
EndChar

StartChar: six
Encoding: 54 54 25
Width: 608
GlyphClass: 2
Flags: W
LayerCount: 2
Fore
SplineSet
50 384 m 0,0,1
 50 461 50 461 59.5 521.5 c 128,-1,2
 69 582 69 582 85 620.5 c 128,-1,3
 101 659 101 659 124 684 c 0,4,5
 164 730 164 730 222 735 c 0,6,7
 260 739 260 739 301 739 c 0,8,9
 410 739 410 739 540 715 c 1,10,-1
 540 609 l 1,11,-1
 290 609 l 2,12,13
 245 609 245 609 223 578 c 0,14,15
 201 546 201 546 197 514 c 0,16,17
 190 467 190 467 190 424 c 1,18,19
 272 444 272 444 392 444 c 0,20,21
 495 444 495 444 531 394 c 1,22,23
 564 350 564 350 564 274 c 2,24,-1
 564 164 l 2,25,26
 564 -1 564 -1 387 -1 c 2,27,-1
 244 -1 l 2,28,29
 145 -1 145 -1 103 74 c 0,30,31
 50 167 50 167 50 384 c 0,0,1
190 321 m 1,32,33
 190 208 190 208 214 167 c 1,34,35
 238 128 238 128 285 128 c 2,36,-1
 361 128 l 2,37,38
 395 128 395 128 410 140.5 c 128,-1,39
 425 153 425 153 425 190 c 2,40,-1
 425 257 l 2,41,42
 425 309 425 309 391 318 c 0,43,44
 380 321 380 321 364 321 c 2,45,-1
 190 321 l 1,32,33
EndSplineSet
Substitution2: "'dnom' Denominators in Latin lookup 19 subtable" six.denominator
Substitution2: "'sups' Superscript lookup 17 subtable" sixsuperior
Substitution2: "'onum' Oldstyle Figures in Latin lookup 15 subtable" six.oldstyle
Substitution2: "'tnum' Tabular Numbers in Latin lookup 14 subtable" six.tnum
Substitution2: "'numr' Numerators in Latin lookup 13 subtable" six.numerator
Substitution2: "'sinf' Scientific Inferiors lookup 11 subtable" sixinferior
Substitution2: "'frac' Diagonal Fractions lookup 5 subtable" six.numerator
Substitution2: "'smcp' Lowercase to Small Capitals lookup 1 subtable" six.smcp
EndChar

StartChar: seven
Encoding: 55 55 26
Width: 554
GlyphClass: 2
Flags: W
LayerCount: 2
Fore
SplineSet
23 603 m 1,0,-1
 23 732 l 1,1,-1
 494 732 l 1,2,-1
 532 668 l 1,3,-1
 287 0 l 1,4,-1
 134 0 l 1,5,-1
 359 603 l 1,6,-1
 23 603 l 1,0,-1
EndSplineSet
Substitution2: "'dnom' Denominators in Latin lookup 19 subtable" seven.denominator
Substitution2: "'sups' Superscript lookup 17 subtable" sevensuperior
Substitution2: "'onum' Oldstyle Figures in Latin lookup 15 subtable" seven.oldstyle
Substitution2: "'tnum' Tabular Numbers in Latin lookup 14 subtable" seven.tnum
Substitution2: "'numr' Numerators in Latin lookup 13 subtable" seven.numerator
Substitution2: "'sinf' Scientific Inferiors lookup 11 subtable" seveninferior
Substitution2: "'frac' Diagonal Fractions lookup 5 subtable" seven.numerator
Substitution2: "'smcp' Lowercase to Small Capitals lookup 1 subtable" seven.smcp
EndChar

StartChar: eight
Encoding: 56 56 27
Width: 624
GlyphClass: 2
Flags: W
LayerCount: 2
Fore
SplineSet
57 168 m 2,0,-1
 57 241 l 2,1,2
 57 286 57 286 78 315.5 c 128,-1,3
 99 345 99 345 136 354 c 1,4,5
 86 375 86 375 70 417 c 0,6,7
 57 451 57 451 57 499 c 2,8,-1
 57 564 l 2,9,10
 57 664 57 664 112 702 c 0,11,12
 162 737 162 737 244 737 c 2,13,-1
 395 737 l 2,14,15
 483 737 483 737 525.5 696 c 128,-1,16
 568 655 568 655 568 563 c 2,17,-1
 568 510 l 1,18,19
 569 483 569 483 559 455 c 0,20,21
 541 402 541 402 493 394 c 1,22,23
 515 390 515 390 531 374 c 128,-1,24
 547 358 547 358 555 337 c 0,25,26
 569 296 569 296 568 257 c 1,27,-1
 568 171 l 2,28,29
 568 53 568 53 491 18 c 0,30,31
 452 0 452 0 394 0 c 2,32,-1
 244 0 l 2,33,34
 86 0 86 0 62 111 c 0,35,36
 57 137 57 137 57 168 c 2,0,-1
197 183 m 2,37,38
 197 142 197 142 227 130 c 0,39,40
 243 124 243 124 269 124 c 2,41,-1
 362 124 l 2,42,43
 428 124 428 124 428 183 c 2,44,-1
 428 253 l 2,45,46
 428 283 428 283 412 299 c 128,-1,47
 396 315 396 315 365 315 c 2,48,-1
 264 315 l 2,49,50
 197 315 197 315 197 253 c 2,51,-1
 197 183 l 2,37,38
197 494 m 2,52,53
 197 432 197 432 264 432 c 2,54,-1
 364 432 l 2,55,56
 405 432 405 432 418 451 c 0,57,58
 428 467 428 467 428 494 c 2,59,-1
 428 541 l 2,60,61
 428 583 428 583 412 598.5 c 128,-1,62
 396 614 396 614 363 614 c 2,63,-1
 269 614 l 2,64,65
 230 614 230 614 213.5 600.5 c 128,-1,66
 197 587 197 587 197 541 c 2,67,-1
 197 494 l 2,52,53
EndSplineSet
Substitution2: "'dnom' Denominators in Latin lookup 19 subtable" eight.denominator
Substitution2: "'sups' Superscript lookup 17 subtable" eightsuperior
Substitution2: "'onum' Oldstyle Figures in Latin lookup 15 subtable" eight.oldstyle
Substitution2: "'tnum' Tabular Numbers in Latin lookup 14 subtable" eight.tnum
Substitution2: "'numr' Numerators in Latin lookup 13 subtable" eight.numerator
Substitution2: "'sinf' Scientific Inferiors lookup 11 subtable" eightinferior
Substitution2: "'frac' Diagonal Fractions lookup 5 subtable" eight.numerator
Substitution2: "'smcp' Lowercase to Small Capitals lookup 1 subtable" eight.smcp
EndChar

StartChar: nine
Encoding: 57 57 28
Width: 608
GlyphClass: 2
Flags: W
LayerCount: 2
Fore
SplineSet
306 -4 m 0,0,1
 180 -4 180 -4 70 19 c 1,2,-1
 70 125 l 1,3,-1
 320 125 l 2,4,5
 365 125 365 125 386 156 c 0,6,7
 408 188 408 188 413 220 c 0,8,9
 420 267 420 267 420 311 c 1,10,11
 338 290 338 290 218 290 c 0,12,13
 115 290 115 290 78 340 c 1,14,15
 46 385 46 385 46 461 c 2,16,-1
 46 570 l 2,17,18
 46 735 46 735 223 735 c 2,19,-1
 366 735 l 2,20,21
 403 735 403 735 431 725.5 c 128,-1,22
 459 716 459 716 484.5 690 c 128,-1,23
 510 664 510 664 526 622 c 0,24,25
 560 530 560 530 560 350 c 0,26,27
 560 134 560 134 486 50 c 0,28,29
 445 4 445 4 388 -1 c 0,30,31
 348 -4 348 -4 306 -4 c 0,0,1
185 477 m 2,32,33
 185 440 185 440 199 426.5 c 128,-1,34
 213 413 213 413 246 413 c 2,35,-1
 420 413 l 1,36,37
 420 526 420 526 395 568 c 0,38,39
 372 606 372 606 325 606 c 2,40,-1
 248 606 l 2,41,42
 215 606 215 606 200 593.5 c 128,-1,43
 185 581 185 581 185 544 c 2,44,-1
 185 477 l 2,32,33
EndSplineSet
Substitution2: "'dnom' Denominators in Latin lookup 19 subtable" nine.denominator
Substitution2: "'sups' Superscript lookup 17 subtable" ninesuperior
Substitution2: "'onum' Oldstyle Figures in Latin lookup 15 subtable" nine.oldstyle
Substitution2: "'tnum' Tabular Numbers in Latin lookup 14 subtable" nine.tnum
Substitution2: "'numr' Numerators in Latin lookup 13 subtable" nine.numerator
Substitution2: "'sinf' Scientific Inferiors lookup 11 subtable" nineinferior
Substitution2: "'frac' Diagonal Fractions lookup 5 subtable" nine.numerator
Substitution2: "'smcp' Lowercase to Small Capitals lookup 1 subtable" nine.smcp
EndChar

StartChar: colon
Encoding: 58 58 29
Width: 263
GlyphClass: 2
Flags: W
LayerCount: 2
Fore
SplineSet
65 23 m 2,0,-1
 65 113 l 2,1,2
 65 138 65 138 89 138 c 2,3,-1
 175 138 l 2,4,5
 200 138 200 138 200 113 c 2,6,-1
 200 23 l 2,7,8
 200 0 200 0 175 0 c 2,9,-1
 89 0 l 2,10,11
 78 0 78 0 71.5 6.5 c 128,-1,12
 65 13 65 13 65 23 c 2,0,-1
65 416 m 2,13,-1
 65 506 l 2,14,15
 65 531 65 531 89 531 c 2,16,-1
 175 531 l 2,17,18
 200 531 200 531 200 506 c 2,19,-1
 200 416 l 2,20,21
 200 393 200 393 175 393 c 2,22,-1
 89 393 l 2,23,24
 74 393 74 393 69.5 401.5 c 128,-1,25
 65 410 65 410 65 416 c 2,13,-1
EndSplineSet
EndChar

StartChar: semicolon
Encoding: 59 59 30
Width: 264
GlyphClass: 2
Flags: W
LayerCount: 2
Fore
SplineSet
65 25 m 2,0,-1
 65 112 l 2,1,2
 65 124 65 124 71.5 131.5 c 128,-1,3
 78 139 78 139 90 139 c 2,4,-1
 174 139 l 2,5,6
 198 139 198 139 198 112 c 2,7,-1
 198 -11 l 2,8,9
 198 -42 198 -42 184.5 -61.5 c 128,-1,10
 171 -81 171 -81 152 -86 c 0,11,12
 129 -93 129 -93 111 -93 c 128,-1,13
 93 -93 93 -93 83 -91 c 2,14,-1
 70 -88 l 1,15,-1
 70 -40 l 1,16,17
 83 -40 83 -40 91 -35 c 0,18,19
 101 -29 101 -29 101 -14 c 2,20,-1
 101 0 l 1,21,-1
 90 0 l 2,22,23
 79 0 79 0 72 7 c 128,-1,24
 65 14 65 14 65 25 c 2,0,-1
66 417 m 2,25,-1
 66 507 l 2,26,27
 66 532 66 532 90 532 c 2,28,-1
 176 532 l 2,29,30
 201 532 201 532 201 507 c 2,31,-1
 201 417 l 2,32,33
 201 394 201 394 176 394 c 2,34,-1
 90 394 l 2,35,36
 75 394 75 394 70.5 402 c 128,-1,37
 66 410 66 410 66 417 c 2,25,-1
EndSplineSet
EndChar

StartChar: less
Encoding: 60 60 31
Width: 450
GlyphClass: 2
Flags: W
LayerCount: 2
Fore
SplineSet
38 288 m 1,0,-1
 38 417 l 1,1,-1
 413 562 l 1,2,-1
 413 432 l 1,3,-1
 187 353 l 1,4,-1
 413 265 l 1,5,-1
 413 134 l 1,6,-1
 38 288 l 1,0,-1
EndSplineSet
EndChar

StartChar: equal
Encoding: 61 61 32
Width: 467
GlyphClass: 2
Flags: W
LayerCount: 2
Fore
SplineSet
20 184 m 1,0,-1
 20 302 l 1,1,-1
 447 302 l 1,2,-1
 447 184 l 1,3,-1
 20 184 l 1,0,-1
20 399 m 1,4,-1
 20 517 l 1,5,-1
 447 517 l 1,6,-1
 447 399 l 1,7,-1
 20 399 l 1,4,-1
EndSplineSet
EndChar

StartChar: greater
Encoding: 62 62 33
Width: 450
GlyphClass: 2
Flags: W
LayerCount: 2
Fore
SplineSet
38 134 m 1,0,-1
 38 265 l 1,1,-1
 264 353 l 1,2,-1
 38 432 l 1,3,-1
 38 562 l 1,4,-1
 413 417 l 1,5,-1
 413 288 l 1,6,-1
 38 134 l 1,0,-1
EndSplineSet
EndChar

StartChar: question
Encoding: 63 63 34
Width: 542
GlyphClass: 2
Flags: W
LayerCount: 2
Fore
SplineSet
15 714 m 1,0,1
 150 740 150 740 244 740 c 0,2,3
 269 740 269 740 297 739 c 1,4,5
 408 739 408 739 462 678 c 0,6,7
 513 621 513 621 513 543 c 2,8,-1
 513 470 l 2,9,10
 513 283 513 283 323 283 c 0,11,12
 305 283 305 283 286 285 c 1,13,-1
 286 195 l 1,14,-1
 173 195 l 1,15,-1
 173 390 l 1,16,-1
 287 390 l 1,17,18
 374 394 374 394 374 472 c 2,19,-1
 374 525 l 2,20,21
 374 569 374 569 347.5 589 c 128,-1,22
 321 609 321 609 264 609 c 2,23,-1
 15 609 l 1,24,-1
 15 714 l 1,0,1
186 138 m 2,26,-1
 273 138 l 2,27,28
 297 138 297 138 297 113 c 2,29,-1
 297 23 l 2,30,31
 297 0 297 0 273 0 c 2,32,-1
 186 0 l 2,33,34
 175 0 175 0 168.5 6.5 c 128,-1,35
 162 13 162 13 162 23 c 2,36,-1
 162 113 l 2,37,25
 162 138 162 138 186 138 c 2,26,-1
EndSplineSet
Substitution2: "'smcp' Lowercase to Small Capitals lookup 1 subtable" question.smcp
EndChar

StartChar: at
Encoding: 64 64 35
Width: 868
GlyphClass: 2
Flags: W
LayerCount: 2
Fore
SplineSet
256 512 m 2,0,-1
 448 512 l 2,1,2
 545 512 545 512 586 470 c 0,3,4
 623 432 623 432 623 356 c 2,5,-1
 623 0 l 1,6,-1
 533 0 l 1,7,-1
 513 59 l 1,8,9
 513 59 513 59 505.5 52 c 128,-1,10
 498 45 498 45 484 35 c 128,-1,11
 470 25 470 25 452 15 c 0,12,13
 409 -9 409 -9 353.5 -9 c 128,-1,14
 298 -9 298 -9 264 30.5 c 128,-1,15
 230 70 230 70 230 125 c 2,16,-1
 230 167 l 2,17,18
 230 234 230 234 268 269.5 c 128,-1,19
 306 305 306 305 376 305 c 2,20,-1
 511 305 l 1,21,22
 512 326 512 326 512 337 c 128,-1,23
 512 348 512 348 511 348 c 1,24,25
 511 379 511 379 497 389.5 c 128,-1,26
 483 400 483 400 449 400 c 2,27,-1
 256 400 l 2,28,29
 186 400 186 400 170 357 c 0,30,31
 162 338 162 338 162 310 c 2,32,-1
 162 22 l 2,33,34
 162 -63 162 -63 224 -82 c 0,35,36
 239 -86 239 -86 256 -86 c 2,37,-1
 589 -86 l 2,38,39
 647 -86 647 -86 669.5 -59.5 c 128,-1,40
 692 -33 692 -33 692 22 c 2,41,-1
 692 479 l 2,42,43
 692 535 692 535 664 565.5 c 128,-1,44
 636 596 636 596 589 596 c 2,45,-1
 185 596 l 1,46,-1
 185 681 l 1,47,48
 231 691 231 691 315 699.5 c 128,-1,49
 399 708 399 708 441 708 c 128,-1,50
 483 708 483 708 489 708 c 2,51,-1
 589 708 l 2,52,53
 677 708 677 708 738 657 c 0,54,55
 804 601 804 601 804 479 c 2,56,-1
 804 22 l 2,57,58
 804 -89 804 -89 752.5 -144.5 c 128,-1,59
 701 -200 701 -200 594 -200 c 2,60,-1
 256 -200 l 2,61,62
 164 -200 164 -200 107 -148.5 c 128,-1,63
 50 -97 50 -97 50 11 c 2,64,-1
 50 315 l 2,65,66
 50 460 50 460 169 499 c 0,67,68
 207 512 207 512 256 512 c 2,0,-1
394 103 m 0,69,70
 395 103 395 103 395.5 103 c 128,-1,71
 396 103 396 103 397 103 c 0,72,73
 465 103 465 103 511 147 c 1,74,-1
 511 226 l 1,75,-1
 392 215 l 2,76,77
 348 211 348 211 348 169 c 0,78,79
 348 168 348 168 348 155.5 c 128,-1,80
 348 143 348 143 348 142 c 0,81,82
 348 126 348 126 360.5 114.5 c 128,-1,83
 373 103 373 103 394 103 c 0,69,70
EndSplineSet
Substitution2: "'case' Case-Sensitive Forms lookup 18 subtable" at.alt
Substitution2: "'smcp' Lowercase to Small Capitals lookup 1 subtable" at.smcp
EndChar

StartChar: A
Encoding: 65 65 36
Width: 692
GlyphClass: 2
Flags: W
LayerCount: 2
Fore
SplineSet
34 0 m 1,0,-1
 281 732 l 1,1,-1
 440 732 l 1,2,-1
 678 0 l 1,3,-1
 529 0 l 1,4,-1
 477 162 l 1,5,-1
 237 162 l 1,6,-1
 184 0 l 1,7,-1
 34 0 l 1,0,-1
274 286 m 1,8,-1
 444 286 l 1,9,-1
 362 548 l 1,10,-1
 274 286 l 1,8,-1
EndSplineSet
Substitution2: "'c2sc' Capitals to Small Capitals in Latin lookup 2 subtable" a.smcp
EndChar

StartChar: B
Encoding: 66 66 37
Width: 604
GlyphClass: 2
Flags: W
LayerCount: 2
Fore
SplineSet
61 0 m 1,0,-1
 61 732 l 1,1,-1
 363 732 l 2,2,3
 469 732 469 732 519 677.5 c 128,-1,4
 569 623 569 623 569 536 c 0,5,6
 569 480 569 480 544 434.5 c 128,-1,7
 519 389 519 389 469 380 c 1,8,9
 517 371 517 371 549 326.5 c 128,-1,10
 581 282 581 282 581 215 c 0,11,12
 581 110 581 110 529.5 55 c 128,-1,13
 478 0 478 0 365 0 c 2,14,-1
 61 0 l 1,0,-1
441 221 m 0,15,16
 441 266 441 266 421 295 c 128,-1,17
 401 324 401 324 360 324 c 2,18,-1
 201 324 l 1,19,-1
 201 124 l 1,20,-1
 360 123 l 2,21,22
 441 123 441 123 441 221 c 0,15,16
201 442 m 1,23,-1
 354 442 l 2,24,25
 392 442 392 442 411.5 463.5 c 128,-1,26
 431 485 431 485 431 528 c 128,-1,27
 431 571 431 571 409 589.5 c 128,-1,28
 387 608 387 608 354 608 c 2,29,-1
 201 608 l 1,30,-1
 201 442 l 1,23,-1
EndSplineSet
Substitution2: "'c2sc' Capitals to Small Capitals in Latin lookup 2 subtable" b.smcp
EndChar

StartChar: C
Encoding: 67 67 38
Width: 571
GlyphClass: 2
Flags: W
LayerCount: 2
Fore
SplineSet
92 642 m 0,0,1
 132 708 132 708 203 729 c 0,2,3
 242 740 242 740 291 740 c 0,4,5
 434 740 434 740 546 707 c 1,6,-1
 546 597 l 1,7,8
 546 597 546 597 538.5 598 c 128,-1,9
 531 599 531 599 518.5 600 c 128,-1,10
 506 601 506 601 489 602.5 c 128,-1,11
 472 604 472 604 451.5 605.5 c 128,-1,12
 431 607 431 607 411 608 c 0,13,14
 364 611 364 611 327 611 c 128,-1,15
 290 611 290 611 269.5 606.5 c 128,-1,16
 249 602 249 602 230 588.5 c 128,-1,17
 211 575 211 575 202 548 c 0,18,19
 182 490 182 490 182 363 c 128,-1,20
 182 236 182 236 211.5 179.5 c 128,-1,21
 241 123 241 123 324 123 c 0,22,23
 418 123 418 123 514 129 c 2,24,-1
 546 131 l 1,25,-1
 546 22 l 1,26,27
 456 -6 456 -6 314 -6 c 0,28,29
 303 -6 303 -6 291 -6 c 0,30,31
 157 -5 157 -5 99.5 90 c 128,-1,32
 42 185 42 185 42 372.5 c 128,-1,33
 42 560 42 560 92 642 c 0,0,1
EndSplineSet
Substitution2: "'c2sc' Capitals to Small Capitals in Latin lookup 2 subtable" c.smcp
EndChar

StartChar: D
Encoding: 68 68 39
Width: 662
GlyphClass: 2
Flags: W
LayerCount: 2
Fore
SplineSet
61 0 m 1,0,-1
 61 732 l 1,1,-1
 372 732 l 2,2,3
 626 732 626 732 626 363 c 0,4,5
 626 135 626 135 517 47 c 0,6,7
 459 0 459 0 372 0 c 2,8,-1
 61 0 l 1,0,-1
486 364 m 0,9,10
 486 546 486 546 428 589 c 0,11,12
 402 608 402 608 361 608 c 2,13,-1
 201 608 l 1,14,-1
 201 125 l 1,15,-1
 361 125 l 2,16,17
 486 125 486 125 486 364 c 0,9,10
EndSplineSet
Substitution2: "'c2sc' Capitals to Small Capitals in Latin lookup 2 subtable" d.smcp
EndChar

StartChar: E
Encoding: 69 69 40
Width: 567
GlyphClass: 2
Flags: W
LayerCount: 2
Fore
SplineSet
112 705 m 0,0,1
 137 720 137 720 161.5 726 c 128,-1,2
 186 732 186 732 200.5 732 c 128,-1,3
 215 732 215 732 345 728.5 c 128,-1,4
 475 725 475 725 539 716 c 1,5,-1
 539 600 l 1,6,-1
 250 600 l 2,7,8
 213 600 213 600 204 582 c 0,9,10
 198 568 198 568 198 544 c 2,11,-1
 198 430 l 1,12,-1
 494 420 l 1,13,-1
 494 304 l 1,14,-1
 198 295 l 1,15,-1
 198 181 l 2,16,17
 198 143 198 143 219 135 c 0,18,19
 234 129 234 129 260 129 c 2,20,-1
 539 129 l 1,21,-1
 539 14 l 1,22,23
 489 7 489 7 292 0 c 1,24,-1
 227 -3 l 2,25,26
 219 -3 219 -3 208.5 -3 c 128,-1,27
 198 -3 198 -3 181 -1.5 c 128,-1,28
 164 0 164 0 140 9 c 128,-1,29
 116 18 116 18 98 33 c 0,30,31
 58 69 58 69 58 144 c 2,32,-1
 58 580 l 2,33,34
 58 671 58 671 112 705 c 0,0,1
EndSplineSet
Substitution2: "'c2sc' Capitals to Small Capitals in Latin lookup 2 subtable" e.smcp
EndChar

StartChar: F
Encoding: 70 70 41
Width: 567
GlyphClass: 2
Flags: W
LayerCount: 2
Fore
SplineSet
58 0 m 1,0,-1
 58 578 l 2,1,2
 58 697 58 697 159 725 c 0,3,4
 184 732 184 732 199 732 c 128,-1,5
 214 732 214 732 344.5 728.5 c 128,-1,6
 475 725 475 725 539 716 c 1,7,-1
 539 600 l 1,8,-1
 250 600 l 2,9,10
 213 600 213 600 204 582 c 0,11,12
 198 568 198 568 198 544 c 2,13,-1
 198 430 l 1,14,-1
 494 420 l 1,15,-1
 494 304 l 1,16,-1
 198 295 l 1,17,-1
 198 0 l 1,18,-1
 58 0 l 1,0,-1
EndSplineSet
Substitution2: "'c2sc' Capitals to Small Capitals in Latin lookup 2 subtable" f.smcp
EndChar

StartChar: G
Encoding: 71 71 42
Width: 614
GlyphClass: 2
Flags: W
LayerCount: 2
Fore
SplineSet
46.5 249.5 m 128,-1,1
 42 301 42 301 42 369.5 c 128,-1,2
 42 438 42 438 47.5 490.5 c 128,-1,3
 53 543 53 543 68.5 591.5 c 128,-1,4
 84 640 84 640 111 672 c 0,5,6
 168 740 168 740 281 740 c 0,7,8
 366 740 366 740 425.5 733.5 c 128,-1,9
 485 727 485 727 562 708 c 1,10,-1
 562 599 l 1,11,12
 561 599 561 599 545.5 601 c 128,-1,13
 530 603 530 603 504.5 605.5 c 128,-1,14
 479 608 479 608 449 610 c 0,15,16
 377 616 377 616 314 616 c 0,17,18
 234 616 234 616 208 562.5 c 128,-1,19
 182 509 182 509 182 366 c 128,-1,20
 182 223 182 223 206 175 c 0,21,22
 231 126 231 126 308 126 c 0,23,24
 338 126 338 126 369.5 137.5 c 128,-1,25
 401 149 401 149 417 160 c 2,26,-1
 433 172 l 1,27,-1
 433 303 l 1,28,-1
 331 303 l 1,29,-1
 331 392 l 1,30,31
 390 416 390 416 505 416 c 0,32,33
 537 416 537 416 573 414 c 1,34,-1
 573 0 l 1,35,-1
 473 0 l 1,36,-1
 435 49 l 1,37,38
 400 16 400 16 360 6 c 0,39,40
 251 -21 251 -21 176 12 c 0,41,42
 132 31 132 31 106.5 63 c 128,-1,43
 81 95 81 95 66 146.5 c 128,-1,0
 51 198 51 198 46.5 249.5 c 128,-1,1
EndSplineSet
Substitution2: "'c2sc' Capitals to Small Capitals in Latin lookup 2 subtable" g.smcp
EndChar

StartChar: H
Encoding: 72 72 43
Width: 636
GlyphClass: 2
Flags: W
LayerCount: 2
Fore
SplineSet
61 0 m 1,0,-1
 61 732 l 1,1,-1
 201 732 l 1,2,-1
 201 418 l 1,3,-1
 452 418 l 1,4,-1
 452 732 l 1,5,-1
 592 732 l 1,6,-1
 592 0 l 1,7,-1
 452 0 l 1,8,-1
 452 290 l 1,9,-1
 201 290 l 1,10,-1
 201 0 l 1,11,-1
 61 0 l 1,0,-1
EndSplineSet
Substitution2: "'c2sc' Capitals to Small Capitals in Latin lookup 2 subtable" h.smcp
EndChar

StartChar: I
Encoding: 73 73 44
Width: 245
GlyphClass: 2
Flags: W
LayerCount: 2
Fore
SplineSet
61 0 m 1,0,-1
 61 732 l 1,1,-1
 201 732 l 1,2,-1
 201 0 l 1,3,-1
 61 0 l 1,0,-1
EndSplineSet
Substitution2: "'c2sc' Capitals to Small Capitals in Latin lookup 2 subtable" i.smcp
EndChar

StartChar: J
Encoding: 74 74 45
Width: 356
GlyphClass: 2
Flags: W
LayerCount: 2
Fore
SplineSet
259 18 m 0,0,1
 221 -5 221 -5 145.5 -5 c 128,-1,2
 70 -5 70 -5 27 23 c 1,3,-1
 29 132 l 1,4,5
 63 129 63 129 80.5 129 c 128,-1,6
 98 129 98 129 106 130 c 0,7,8
 171 132 171 132 172 226 c 1,9,-1
 172 732 l 1,10,-1
 312 732 l 1,11,-1
 312 165 l 2,12,13
 312 134 312 134 309.5 112 c 128,-1,14
 307 90 307 90 294.5 61.5 c 128,-1,15
 282 33 282 33 259 18 c 0,0,1
EndSplineSet
Substitution2: "'c2sc' Capitals to Small Capitals in Latin lookup 2 subtable" j.smcp
EndChar

StartChar: K
Encoding: 75 75 46
Width: 628
GlyphClass: 2
Flags: W
LayerCount: 2
Fore
SplineSet
61 0 m 1,0,-1
 61 732 l 1,1,-1
 195 732 l 1,2,-1
 195 426 l 1,3,-1
 254 426 l 1,4,-1
 440 732 l 1,5,-1
 603 732 l 1,6,-1
 379 365 l 1,7,-1
 603 0 l 1,8,-1
 440 0 l 1,9,-1
 254 302 l 1,10,-1
 196 302 l 1,11,-1
 196 0 l 1,12,-1
 61 0 l 1,0,-1
EndSplineSet
Substitution2: "'c2sc' Capitals to Small Capitals in Latin lookup 2 subtable" k.smcp
EndChar

StartChar: L
Encoding: 76 76 47
Width: 539
GlyphClass: 2
Flags: W
LayerCount: 2
Fore
SplineSet
61 142 m 2,0,-1
 61 732 l 1,1,-1
 201 732 l 1,2,-1
 201 181 l 2,3,4
 201 143 201 143 222 135 c 0,5,6
 237 129 237 129 263 129 c 2,7,-1
 514 129 l 1,8,-1
 514 0 l 1,9,-1
 213 0 l 2,10,11
 61 0 61 0 61 142 c 2,0,-1
EndSplineSet
Substitution2: "'c2sc' Capitals to Small Capitals in Latin lookup 2 subtable" l.smcp
EndChar

StartChar: M
Encoding: 77 77 48
Width: 847
GlyphClass: 2
Flags: W
LayerCount: 2
Fore
SplineSet
42 0 m 1,0,-1
 106 732 l 1,1,-1
 301 732 l 1,2,-1
 423 232 l 1,3,-1
 544 732 l 1,4,-1
 738 732 l 1,5,-1
 806 0 l 1,6,-1
 668 0 l 1,7,-1
 620 489 l 1,8,-1
 502 0 l 1,9,-1
 346 0 l 1,10,-1
 223 489 l 1,11,-1
 180 0 l 1,12,-1
 42 0 l 1,0,-1
EndSplineSet
AlternateSubs2: "'salt' Stylistic Alternatives in Latin lookup 16 subtable" M.salt
Substitution2: "'c2sc' Capitals to Small Capitals in Latin lookup 2 subtable" m.smcp
EndChar

StartChar: N
Encoding: 78 78 49
Width: 678
GlyphClass: 2
Flags: W
LayerCount: 2
Fore
SplineSet
61 0 m 1,0,-1
 61 732 l 1,1,-1
 203 732 l 1,2,-1
 493 259 l 1,3,-1
 493 732 l 1,4,-1
 633 732 l 1,5,-1
 633 0 l 1,6,-1
 493 0 l 1,7,-1
 202 468 l 1,8,-1
 202 0 l 1,9,-1
 61 0 l 1,0,-1
EndSplineSet
AlternateSubs2: "'salt' Stylistic Alternatives in Latin lookup 16 subtable" N.salt
Substitution2: "'c2sc' Capitals to Small Capitals in Latin lookup 2 subtable" n.smcp
EndChar

StartChar: O
Encoding: 79 79 50
Width: 671
GlyphClass: 2
Flags: W
LayerCount: 2
Fore
SplineSet
54 261 m 128,-1,1
 50 306 50 306 50 369.5 c 128,-1,2
 50 433 50 433 57.5 489.5 c 128,-1,3
 65 546 65 546 78 585.5 c 128,-1,4
 91 625 91 625 113 653 c 128,-1,5
 135 681 135 681 157.5 697 c 128,-1,6
 180 713 180 713 213 722 c 0,7,8
 265 737 265 737 322.5 737 c 128,-1,9
 380 737 380 737 406.5 735 c 128,-1,10
 433 733 433 733 462.5 726.5 c 128,-1,11
 492 720 492 720 513 708 c 128,-1,12
 534 696 534 696 555.5 677.5 c 128,-1,13
 577 659 577 659 591 630.5 c 128,-1,14
 605 602 605 602 616 565 c 0,15,16
 638 491 638 491 638 392 c 128,-1,17
 638 293 638 293 630.5 239.5 c 128,-1,18
 623 186 623 186 611 147.5 c 128,-1,19
 599 109 599 109 578.5 81.5 c 128,-1,20
 558 54 558 54 535.5 37.5 c 128,-1,21
 513 21 513 21 481 12 c 0,22,23
 407 -10 407 -10 286 -2 c 1,24,25
 224 1 224 1 196 13 c 128,-1,26
 168 25 168 25 147.5 38.5 c 128,-1,27
 127 52 127 52 113 71.5 c 128,-1,28
 99 91 99 91 86 118.5 c 128,-1,29
 73 146 73 146 65.5 181 c 128,-1,0
 58 216 58 216 54 261 c 128,-1,1
193 448 m 128,-1,31
 190 411 190 411 190 355 c 128,-1,32
 190 299 190 299 194 259.5 c 128,-1,33
 198 220 198 220 207.5 192 c 128,-1,34
 217 164 217 164 236 150 c 0,35,36
 270 125 270 125 344 125 c 0,37,38
 414 125 414 125 449 151 c 0,39,40
 498 188 498 188 498 361 c 0,41,42
 498 478 498 478 485.5 516 c 128,-1,43
 473 554 473 554 462.5 570 c 128,-1,44
 452 586 452 586 433 595 c 0,45,46
 402 608 402 608 360 608 c 128,-1,47
 318 608 318 608 301.5 606.5 c 128,-1,48
 285 605 285 605 266.5 600 c 128,-1,49
 248 595 248 595 237.5 584.5 c 128,-1,50
 227 574 227 574 216.5 556 c 128,-1,51
 206 538 206 538 201 511.5 c 128,-1,30
 196 485 196 485 193 448 c 128,-1,31
EndSplineSet
Substitution2: "'c2sc' Capitals to Small Capitals in Latin lookup 2 subtable" o.smcp
EndChar

StartChar: P
Encoding: 80 80 51
Width: 602
GlyphClass: 2
Flags: W
LayerCount: 2
Fore
SplineSet
51 0 m 1,0,-1
 51 732 l 1,1,-1
 366 732 l 2,2,3
 475 732 475 732 524 671 c 0,4,5
 569 616 569 616 569 506 c 0,6,7
 569 442 569 442 555.5 396 c 128,-1,8
 542 350 542 350 522.5 325.5 c 128,-1,9
 503 301 503 301 473 288 c 0,10,11
 434 270 434 270 386 270 c 0,12,13
 351 270 351 270 273 279 c 128,-1,14
 195 288 195 288 191 290 c 1,15,-1
 191 0 l 1,16,-1
 51 0 l 1,0,-1
355 608 m 2,17,-1
 191 608 l 1,18,-1
 191 394 l 1,19,-1
 355 394 l 2,20,21
 379 394 379 394 394 403 c 0,22,23
 428 423 428 423 428 505 c 0,24,25
 427 608 427 608 355 608 c 2,17,-1
EndSplineSet
Substitution2: "'c2sc' Capitals to Small Capitals in Latin lookup 2 subtable" p.smcp
EndChar

StartChar: Q
Encoding: 81 81 52
Width: 671
GlyphClass: 2
Flags: W
LayerCount: 2
Fore
SplineSet
50 358 m 128,-1,1
 50 417 50 417 54.5 464 c 128,-1,2
 59 511 59 511 67 547 c 128,-1,3
 75 583 75 583 88 611 c 128,-1,4
 101 639 101 639 115.5 659 c 128,-1,5
 130 679 130 679 151 693 c 128,-1,6
 172 707 172 707 191.5 715.5 c 128,-1,7
 211 724 211 724 238 729 c 0,8,9
 282 737 282 737 330.5 737 c 128,-1,10
 379 737 379 737 405.5 735 c 128,-1,11
 432 733 432 733 461.5 726.5 c 128,-1,12
 491 720 491 720 512.5 708 c 128,-1,13
 534 696 534 696 555 677.5 c 128,-1,14
 576 659 576 659 590 630.5 c 128,-1,15
 604 602 604 602 616 565 c 0,16,17
 638 491 638 491 638 361 c 0,18,19
 638 194 638 194 592 104 c 0,20,21
 568 57 568 57 516 27 c 0,22,23
 463 -3 463 -3 343 -4 c 1,24,25
 221 -4 221 -4 171 24 c 1,26,27
 117 53 117 53 95 99 c 0,28,29
 63 163 63 163 56.5 231 c 128,-1,0
 50 299 50 299 50 358 c 128,-1,1
193 448 m 128,-1,31
 190 411 190 411 190 355 c 128,-1,32
 190 299 190 299 194 259.5 c 128,-1,33
 198 220 198 220 207.5 192 c 128,-1,34
 217 164 217 164 235 150 c 0,35,36
 270 125 270 125 337.5 125 c 128,-1,37
 405 125 405 125 436.5 143 c 128,-1,38
 468 161 468 161 483 211.5 c 128,-1,39
 498 262 498 262 498 340 c 128,-1,40
 498 418 498 418 494.5 458.5 c 128,-1,41
 491 499 491 499 482 526.5 c 128,-1,42
 473 554 473 554 462.5 570 c 128,-1,43
 452 586 452 586 432 595 c 0,44,45
 402 608 402 608 359.5 608 c 128,-1,46
 317 608 317 608 300.5 606.5 c 128,-1,47
 284 605 284 605 265.5 600 c 128,-1,48
 247 595 247 595 237 584.5 c 128,-1,49
 227 574 227 574 216.5 556 c 128,-1,50
 206 538 206 538 201 511.5 c 128,-1,30
 196 485 196 485 193 448 c 128,-1,31
542 -174 m 1,51,52
 506 -180 506 -180 475.5 -180 c 128,-1,53
 445 -180 445 -180 414.5 -170.5 c 128,-1,54
 384 -161 384 -161 359.5 -144.5 c 128,-1,55
 335 -128 335 -128 318.5 -99 c 128,-1,56
 302 -70 302 -70 300 -33 c 1,57,-1
 379 -33 l 1,58,59
 403 -73 403 -73 464 -73 c 0,60,61
 497 -73 497 -73 542 -61 c 1,62,-1
 542 -174 l 1,51,52
EndSplineSet
Substitution2: "'c2sc' Capitals to Small Capitals in Latin lookup 2 subtable" q.smcp
EndChar

StartChar: R
Encoding: 82 82 53
Width: 607
GlyphClass: 2
Flags: W
LayerCount: 2
Fore
SplineSet
371 732 m 2,0,1
 467 732 467 732 514 683 c 0,2,3
 571 625 571 625 571 504 c 0,4,5
 571 363 571 363 512 317 c 0,6,7
 493 302 493 302 483 298 c 128,-1,8
 473 294 473 294 454 288 c 1,9,-1
 593 0 l 1,10,-1
 435 0 l 1,11,-1
 314 277 l 1,12,-1
 191 291 l 1,13,-1
 191 0 l 1,14,-1
 51 0 l 1,15,-1
 51 732 l 1,16,-1
 371 732 l 2,0,1
192 401 m 1,17,-1
 358 401 l 2,18,19
 397 401 397 401 413.5 421 c 128,-1,20
 430 441 430 441 430 502 c 128,-1,21
 430 563 430 563 412 585.5 c 128,-1,22
 394 608 394 608 358 608 c 2,23,-1
 192 608 l 1,24,-1
 192 401 l 1,17,-1
EndSplineSet
Substitution2: "'c2sc' Capitals to Small Capitals in Latin lookup 2 subtable" r.smcp
EndChar

StartChar: S
Encoding: 83 83 54
Width: 590
GlyphClass: 2
Flags: W
LayerCount: 2
Fore
SplineSet
50 486 m 2,0,-1
 50 549 l 2,1,2
 50 654 50 654 107 698 c 0,3,4
 159 737 159 737 248 738 c 0,5,6
 260 738 260 738 298.5 738 c 128,-1,7
 337 738 337 738 411.5 730 c 128,-1,8
 486 722 486 722 531 709 c 1,9,-1
 531 599 l 1,10,11
 417 609 417 609 349.5 609 c 128,-1,12
 282 609 282 609 277 609 c 0,13,14
 232 609 232 609 211 597 c 128,-1,15
 190 585 190 585 190 538 c 2,16,-1
 190 502 l 2,17,18
 190 460 190 460 207 446 c 128,-1,19
 224 432 224 432 268 432 c 2,20,-1
 384 432 l 2,21,22
 498 432 498 432 537 341 c 0,23,24
 557 295 557 295 557 238 c 2,25,-1
 557 189 l 2,26,27
 557 55 557 55 468 14 c 0,28,29
 422 -8 422 -8 355 -8 c 0,30,31
 174 -8 174 -8 72 22 c 1,32,-1
 72 132 l 1,33,34
 182 121 182 121 264 121 c 128,-1,35
 346 121 346 121 359.5 123 c 128,-1,36
 373 125 373 125 387 131 c 0,37,38
 417 144 417 144 417 184 c 2,39,-1
 417 223 l 2,40,41
 417 275 417 275 384 287 c 0,42,43
 371 292 371 292 351 292 c 2,44,-1
 239 292 l 2,45,46
 50 292 50 292 50 486 c 2,0,-1
EndSplineSet
Substitution2: "'c2sc' Capitals to Small Capitals in Latin lookup 2 subtable" s.smcp
EndChar

StartChar: T
Encoding: 84 84 55
Width: 593
GlyphClass: 2
Flags: W
LayerCount: 2
Fore
SplineSet
31 603 m 1,0,-1
 31 732 l 1,1,-1
 572 732 l 1,2,-1
 572 603 l 1,3,-1
 369 603 l 1,4,-1
 369 0 l 1,5,-1
 229 0 l 1,6,-1
 229 603 l 1,7,-1
 31 603 l 1,0,-1
EndSplineSet
Substitution2: "'c2sc' Capitals to Small Capitals in Latin lookup 2 subtable" t.smcp
EndChar

StartChar: U
Encoding: 85 85 56
Width: 664
GlyphClass: 2
Flags: W
LayerCount: 2
Fore
SplineSet
343 -5 m 2,0,-1
 329 -5 l 2,1,2
 209 -5 209 -5 169 20 c 0,3,4
 151 32 151 32 127 55.5 c 128,-1,5
 103 79 103 79 91 113 c 0,6,7
 61 197 61 197 61 320 c 2,8,-1
 61 732 l 1,9,-1
 201 732 l 1,10,-1
 201 320 l 2,11,12
 201 224 201 224 220 179 c 0,13,14
 237 139 237 139 287 128 c 0,15,16
 309 124 309 124 350.5 124 c 128,-1,17
 392 124 392 124 420 139 c 0,18,19
 479 171 479 171 479 320 c 2,20,-1
 479 732 l 1,21,-1
 620 732 l 1,22,-1
 620 320 l 2,23,24
 620 163 620 163 574 92 c 1,25,26
 559 67 559 67 544.5 51.5 c 128,-1,27
 530 36 530 36 507.5 24.5 c 128,-1,28
 485 13 485 13 469 7.5 c 128,-1,29
 453 2 453 2 426 -1 c 0,30,31
 392 -5 392 -5 343 -5 c 2,0,-1
EndSplineSet
Substitution2: "'c2sc' Capitals to Small Capitals in Latin lookup 2 subtable" u.smcp
EndChar

StartChar: V
Encoding: 86 86 57
Width: 685
GlyphClass: 2
Flags: W
LayerCount: 2
Fore
SplineSet
34 732 m 1,0,-1
 183 732 l 1,1,-1
 346 184 l 1,2,-1
 518 732 l 1,3,-1
 667 732 l 1,4,-1
 426 0 l 1,5,-1
 264 0 l 1,6,-1
 34 732 l 1,0,-1
EndSplineSet
Substitution2: "'c2sc' Capitals to Small Capitals in Latin lookup 2 subtable" v.smcp
EndChar

StartChar: W
Encoding: 87 87 58
Width: 992
GlyphClass: 2
Flags: W
LayerCount: 2
Fore
SplineSet
34 732 m 1,0,-1
 183 732 l 1,1,-1
 345 189 l 1,2,-1
 477 732 l 1,3,-1
 627 732 l 1,4,-1
 576 543 l 1,5,-1
 692 186 l 1,6,-1
 826 732 l 1,7,-1
 974 732 l 1,8,-1
 773 0 l 1,9,-1
 611 0 l 1,10,-1
 512 300 l 1,11,-1
 426 0 l 1,12,-1
 264 0 l 1,13,-1
 34 732 l 1,0,-1
EndSplineSet
Substitution2: "'c2sc' Capitals to Small Capitals in Latin lookup 2 subtable" w.smcp
EndChar

StartChar: X
Encoding: 88 88 59
Width: 641
GlyphClass: 2
Flags: W
LayerCount: 2
Fore
SplineSet
34 732 m 1,0,-1
 189 732 l 1,1,-1
 327 482 l 1,2,-1
 468 732 l 1,3,-1
 623 732 l 1,4,-1
 403 367 l 1,5,-1
 618 0 l 1,6,-1
 463 0 l 1,7,-1
 327 246 l 1,8,-1
 192 0 l 1,9,-1
 37 0 l 1,10,-1
 252 367 l 1,11,-1
 34 732 l 1,0,-1
EndSplineSet
AlternateSubs2: "'salt' Stylistic Alternatives in Latin lookup 16 subtable" X.salt
Substitution2: "'c2sc' Capitals to Small Capitals in Latin lookup 2 subtable" x.smcp
EndChar

StartChar: Y
Encoding: 89 89 60
Width: 656
GlyphClass: 2
Flags: W
LayerCount: 2
Fore
SplineSet
397 0 m 1,0,-1
 257 0 l 1,1,-1
 257 227 l 1,2,-1
 34 732 l 1,3,-1
 186 732 l 1,4,-1
 329 381 l 1,5,-1
 486 732 l 1,6,-1
 638 732 l 1,7,-1
 397 227 l 1,8,-1
 397 0 l 1,0,-1
EndSplineSet
Substitution2: "'c2sc' Capitals to Small Capitals in Latin lookup 2 subtable" y.smcp
EndChar

StartChar: Z
Encoding: 90 90 61
Width: 556
GlyphClass: 2
Flags: W
LayerCount: 2
Fore
SplineSet
27 0 m 1,0,-1
 27 129 l 1,1,-1
 362 603 l 1,2,-1
 27 603 l 1,3,-1
 27 732 l 1,4,-1
 531 732 l 1,5,-1
 531 603 l 1,6,-1
 212 129 l 1,7,-1
 531 129 l 1,8,-1
 531 0 l 1,9,-1
 27 0 l 1,0,-1
EndSplineSet
Substitution2: "'c2sc' Capitals to Small Capitals in Latin lookup 2 subtable" z.smcp
EndChar

StartChar: bracketleft
Encoding: 91 91 62
Width: 333
GlyphClass: 2
Flags: W
LayerCount: 2
Fore
SplineSet
65 -10 m 2,0,-1
 65 654 l 2,1,2
 65 733 65 733 100 785 c 0,3,4
 139 842 139 842 234 842 c 2,5,-1
 319 842 l 1,6,-1
 319 724 l 1,7,-1
 267 724 l 2,8,9
 205 724 205 724 205 637 c 2,10,-1
 205 -5 l 2,11,12
 205 -92 205 -92 267 -92 c 2,13,-1
 319 -92 l 1,14,-1
 319 -210 l 1,15,-1
 234 -210 l 2,16,17
 191 -210 191 -210 159.5 -196.5 c 128,-1,18
 128 -183 128 -183 110.5 -163.5 c 128,-1,19
 93 -144 93 -144 82 -115 c 0,20,21
 65 -70 65 -70 65 -10 c 2,0,-1
EndSplineSet
EndChar

StartChar: backslash
Encoding: 92 92 63
Width: 456
GlyphClass: 2
Flags: W
LayerCount: 2
Fore
SplineSet
15 770 m 1,0,-1
 160 770 l 1,1,-1
 441 -72 l 1,2,-1
 296 -72 l 1,3,-1
 15 770 l 1,0,-1
EndSplineSet
EndChar

StartChar: bracketright
Encoding: 93 93 64
Width: 333
GlyphClass: 2
Flags: W
LayerCount: 2
Fore
SplineSet
15 -92 m 1,0,-1
 68 -92 l 2,1,2
 130 -92 130 -92 130 -5 c 2,3,-1
 130 637 l 2,4,5
 130 724 130 724 68 724 c 2,6,-1
 15 724 l 1,7,-1
 15 842 l 1,8,-1
 101 842 l 2,9,10
 227 842 227 842 259 734 c 0,11,12
 270 699 270 699 270 654 c 2,13,-1
 270 -10 l 2,14,15
 270 -96 270 -96 240 -141 c 0,16,17
 195 -210 195 -210 101 -210 c 2,18,-1
 15 -210 l 1,19,-1
 15 -92 l 1,0,-1
EndSplineSet
EndChar

StartChar: asciicircum
Encoding: 94 94 65
Width: 384
GlyphClass: 2
Flags: W
LayerCount: 2
Fore
SplineSet
38 531 m 1,0,-1
 146 666 l 1,1,-1
 250 666 l 1,2,-1
 346 531 l 1,3,-1
 253 531 l 1,4,-1
 195 591 l 1,5,-1
 132 531 l 1,6,-1
 38 531 l 1,0,-1
EndSplineSet
EndChar

StartChar: underscore
Encoding: 95 95 66
Width: 674
GlyphClass: 2
Flags: W
LayerCount: 2
Fore
SplineSet
20 -1 m 1,0,-1
 20 117 l 1,1,-1
 654 117 l 1,2,-1
 654 -1 l 1,3,-1
 20 -1 l 1,0,-1
EndSplineSet
EndChar

StartChar: grave
Encoding: 96 96 67
Width: 243
GlyphClass: 2
Flags: W
LayerCount: 2
Fore
SplineSet
15 670 m 1,0,-1
 138 670 l 1,1,-1
 228 531 l 1,2,-1
 137 531 l 1,3,-1
 15 670 l 1,0,-1
EndSplineSet
Substitution2: "'smcp' Lowercase to Small Capitals lookup 1 subtable" grave.smcp
EndChar

StartChar: a
Encoding: 97 97 68
Width: 519
GlyphClass: 2
Flags: W
LayerCount: 2
Fore
SplineSet
48 505 m 1,0,1
 139 541 139 541 291 541 c 0,2,3
 383 541 383 541 432.5 502.5 c 128,-1,4
 482 464 482 464 482 370 c 2,5,-1
 482 0 l 1,6,-1
 371 0 l 1,7,-1
 342 58 l 1,8,9
 338 51 338 51 316.5 36.5 c 128,-1,10
 295 22 295 22 257 8 c 128,-1,11
 219 -6 219 -6 184 -6 c 0,12,13
 110 -6 110 -6 70 36.5 c 128,-1,14
 30 79 30 79 30 135 c 2,15,-1
 30 185 l 2,16,17
 30 249 30 249 68 290 c 128,-1,18
 106 331 106 331 185 330.5 c 128,-1,19
 264 330 264 330 303 330 c 128,-1,20
 342 330 342 330 342 331 c 0,21,22
 342 347 342 347 342 355.5 c 128,-1,23
 342 364 342 364 342 365 c 0,24,25
 342 405 342 405 325 417.5 c 128,-1,26
 308 430 308 430 257 430 c 128,-1,27
 206 430 206 430 48 419 c 1,28,-1
 48 505 l 1,0,1
170 155 m 2,29,30
 170 125 170 125 183 115.5 c 128,-1,31
 196 106 196 106 221 106 c 128,-1,32
 246 106 246 106 276.5 116.5 c 128,-1,33
 307 127 307 127 324 137 c 2,34,-1
 342 148 l 1,35,-1
 342 245 l 1,36,-1
 213 235 l 2,37,38
 170 231 170 231 170 181 c 2,39,-1
 170 155 l 2,29,30
EndSplineSet
AlternateSubs2: "'salt' Stylistic Alternatives in Latin lookup 16 subtable" a.salt
Substitution2: "'smcp' Lowercase to Small Capitals lookup 1 subtable" a.smcp
EndChar

StartChar: b
Encoding: 98 98 69
Width: 556
GlyphClass: 2
Flags: W
LayerCount: 2
Fore
SplineSet
185 785 m 1,0,-1
 185 504 l 1,1,2
 260 539 260 539 346 539 c 0,3,4
 419 539 419 539 456 504 c 0,5,6
 495 468 495 468 507 408 c 0,7,8
 519 349 519 349 519 263 c 0,9,10
 519 134 519 134 479 64 c 128,-1,11
 439 -6 439 -6 346 -6 c 0,12,13
 303 -6 303 -6 259 12 c 128,-1,14
 215 30 215 30 186 54 c 1,15,-1
 161 0 l 1,16,-1
 46 0 l 1,17,-1
 46 785 l 1,18,-1
 185 785 l 1,0,-1
310 114 m 0,19,20
 345 114 345 114 362 148.5 c 128,-1,21
 379 183 379 183 379 258.5 c 128,-1,22
 379 334 379 334 370.5 370 c 128,-1,23
 362 406 362 406 348 417.5 c 128,-1,24
 334 429 334 429 310 429 c 0,25,26
 237 429 237 429 186 409 c 1,27,-1
 186 146 l 1,28,29
 237 114 237 114 310 114 c 0,19,20
EndSplineSet
AlternateSubs2: "'salt' Stylistic Alternatives in Latin lookup 16 subtable" b.salt
Substitution2: "'smcp' Lowercase to Small Capitals lookup 1 subtable" b.smcp
EndChar

StartChar: c
Encoding: 99 99 70
Width: 494
GlyphClass: 2
Flags: W
LayerCount: 2
Fore
SplineSet
38 266 m 0,0,1
 38 346 38 346 50.5 400.5 c 128,-1,2
 63 455 63 455 87.5 483.5 c 128,-1,3
 112 512 112 512 142 524 c 128,-1,4
 172 536 172 536 213 536 c 0,5,6
 360 536 360 536 457 505 c 1,7,-1
 457 418 l 1,8,9
 362 424 362 424 305.5 424 c 128,-1,10
 249 424 249 424 237.5 422 c 128,-1,11
 226 420 226 420 212 412 c 128,-1,12
 198 404 198 404 192 387 c 0,13,14
 178 346 178 346 178 270.5 c 128,-1,15
 178 195 178 195 187.5 162 c 128,-1,16
 197 129 197 129 215.5 118.5 c 128,-1,17
 234 108 234 108 274 108 c 0,18,19
 355 108 355 108 437 115 c 2,20,-1
 464 117 l 1,21,-1
 464 29 l 1,22,23
 418 5 418 5 374 1 c 0,24,25
 309 -5 309 -5 261 -5 c 2,26,-1
 255 -5 l 2,27,28
 217 -5 217 -5 213 -5 c 0,29,30
 134 -5 134 -5 89 48 c 0,31,32
 38 107 38 107 38 266 c 0,0,1
EndSplineSet
Substitution2: "'smcp' Lowercase to Small Capitals lookup 1 subtable" c.smcp
EndChar

StartChar: d
Encoding: 100 100 71
Width: 556
GlyphClass: 2
Flags: W
LayerCount: 2
Fore
SplineSet
53 420 m 128,-1,1
 68 469 68 469 87 491 c 0,2,3
 128 539 128 539 211 539 c 0,4,5
 247 539 247 539 292 529.5 c 128,-1,6
 337 520 337 520 372 504 c 1,7,-1
 372 785 l 1,8,-1
 512 785 l 1,9,-1
 512 0 l 1,10,-1
 396 0 l 1,11,-1
 372 54 l 1,12,13
 343 30 343 30 299 12 c 128,-1,14
 255 -6 255 -6 211 -6 c 0,15,16
 118 -6 118 -6 78 62.5 c 128,-1,17
 38 131 38 131 38 251 c 128,-1,0
 38 371 38 371 53 420 c 128,-1,1
186.5 370 m 128,-1,19
 178 334 178 334 178 258.5 c 128,-1,20
 178 183 178 183 195 148.5 c 128,-1,21
 212 114 212 114 248 114 c 0,22,23
 321 114 321 114 372 146 c 1,24,-1
 372 409 l 1,25,26
 320 429 320 429 248 429 c 0,27,28
 223 429 223 429 209 417.5 c 128,-1,18
 195 406 195 406 186.5 370 c 128,-1,19
EndSplineSet
AlternateSubs2: "'salt' Stylistic Alternatives in Latin lookup 16 subtable" d.salt
Substitution2: "'smcp' Lowercase to Small Capitals lookup 1 subtable" d.smcp
EndChar

StartChar: e
Encoding: 101 101 72
Width: 525
GlyphClass: 2
Flags: W
LayerCount: 2
Fore
SplineSet
181 529 m 0,0,1
 216 535 216 535 261 535 c 128,-1,2
 306 535 306 535 331 533.5 c 128,-1,3
 356 532 356 532 381.5 527.5 c 128,-1,4
 407 523 407 523 423 514.5 c 128,-1,5
 439 506 439 506 454 491.5 c 128,-1,6
 469 477 469 477 477 457 c 0,7,8
 495 412 495 412 495 353.5 c 128,-1,9
 495 295 495 295 478 265 c 0,10,11
 445 208 445 208 347 208 c 2,12,-1
 178 208 l 1,13,14
 178 173 178 173 184 152 c 128,-1,15
 190 131 190 131 206 121.5 c 128,-1,16
 222 112 222 112 239.5 109.5 c 128,-1,17
 257 107 257 107 335 107 c 128,-1,18
 413 107 413 107 485 118 c 1,19,-1
 485 23 l 1,20,21
 440 6 440 6 394.5 2 c 128,-1,22
 349 -2 349 -2 332 -3 c 128,-1,23
 315 -4 315 -4 290 -4 c 0,24,25
 257 -5 257 -5 213 -5 c 0,26,27
 114 -5 114 -5 76 57 c 128,-1,28
 38 119 38 119 38 258.5 c 128,-1,29
 38 398 38 398 68.5 456.5 c 128,-1,30
 99 515 99 515 181 529 c 0,0,1
355 349 m 0,31,32
 355 399 355 399 341.5 413.5 c 128,-1,33
 328 428 328 428 287 428 c 128,-1,34
 246 428 246 428 230.5 425.5 c 128,-1,35
 215 423 215 423 200.5 411.5 c 128,-1,36
 186 400 186 400 182 377 c 128,-1,37
 178 354 178 354 178 333.5 c 128,-1,38
 178 313 178 313 178 309 c 1,39,-1
 311 309 l 2,40,41
 355 309 355 309 355 349 c 0,31,32
EndSplineSet
Substitution2: "'smcp' Lowercase to Small Capitals lookup 1 subtable" e.smcp
EndChar

StartChar: f
Encoding: 102 102 73
Width: 403
GlyphClass: 2
Flags: W
LayerCount: 2
Fore
SplineSet
15 424 m 1,0,-1
 15 514 l 1,1,-1
 98 531 l 1,2,-1
 98 630 l 2,3,4
 98 704 98 704 134 745 c 128,-1,5
 170 786 170 786 250 786 c 128,-1,6
 330 786 330 786 389 762 c 1,7,-1
 389 679 l 1,8,-1
 293 680 l 2,9,10
 247 681 247 681 241 650 c 0,11,12
 238 633 238 633 238 597 c 2,13,-1
 238 531 l 1,14,-1
 359 531 l 1,15,-1
 359 424 l 1,16,-1
 238 424 l 1,17,-1
 238 0 l 1,18,-1
 98 0 l 1,19,-1
 98 424 l 1,20,-1
 15 424 l 1,0,-1
EndSplineSet
AlternateSubs2: "'salt' Stylistic Alternatives in Latin lookup 16 subtable" f.salt
Substitution2: "'smcp' Lowercase to Small Capitals lookup 1 subtable" f.smcp
EndChar

StartChar: g
Encoding: 103 103 74
Width: 560
GlyphClass: 2
Flags: W
LayerCount: 2
Fore
SplineSet
202 149 m 2,0,1
 162 149 162 149 162 126 c 0,2,3
 162 110 162 110 172.5 104.5 c 128,-1,4
 183 99 183 99 202 99 c 2,5,-1
 365 99 l 2,6,7
 439 99 439 99 480.5 59.5 c 128,-1,8
 522 20 522 20 522 -59 c 2,9,-1
 522 -116 l 2,10,11
 522 -232 522 -232 423 -261 c 0,12,13
 394 -270 394 -270 356 -270 c 2,14,-1
 206 -270 l 2,15,16
 89 -270 89 -270 53 -184 c 0,17,18
 40 -155 40 -155 40 -116 c 2,19,-1
 40 -49 l 1,20,-1
 87 0 l 1,21,22
 64 12 64 12 49.5 39 c 128,-1,23
 35 66 35 66 35 101 c 128,-1,24
 35 136 35 136 50.5 161.5 c 128,-1,25
 66 187 66 187 97 197 c 1,26,27
 39 234 39 234 39 344 c 0,28,29
 39 533 39 533 223 533 c 2,30,-1
 546 533 l 1,31,-1
 546 449 l 1,32,-1
 487 431 l 2,33,34
 487 430 487 430 489.5 424.5 c 128,-1,35
 492 419 492 419 493 416.5 c 128,-1,36
 494 414 494 414 496 409 c 128,-1,37
 498 404 498 404 499 400 c 128,-1,38
 500 396 500 396 501.5 390 c 128,-1,39
 503 384 503 384 503.5 378 c 128,-1,40
 504 372 504 372 505 364 c 0,41,42
 507 350 507 350 507 326 c 128,-1,43
 507 302 507 302 502.5 279 c 128,-1,44
 498 256 498 256 485.5 231.5 c 128,-1,45
 473 207 473 207 454 190 c 0,46,47
 409 149 409 149 325 149 c 2,48,-1
 202 149 l 2,0,1
181 -99 m 2,49,50
 181 -135 181 -135 196.5 -146.5 c 128,-1,51
 212 -158 212 -158 244 -158 c 2,52,-1
 326 -158 l 2,53,54
 361 -158 361 -158 372 -143.5 c 128,-1,55
 383 -129 383 -129 383 -102 c 2,56,-1
 383 -63 l 2,57,58
 383 -39 383 -39 371 -27 c 128,-1,59
 359 -15 359 -15 331 -14 c 1,60,-1
 223 -14 l 1,61,-1
 181 -11 l 1,62,-1
 181 -99 l 2,49,50
179 344 m 0,63,64
 179 262 179 262 243 262 c 2,65,-1
 299 262 l 2,66,67
 367 262 367 262 367 340 c 0,68,69
 367 397 367 397 338 413 c 0,70,71
 323 421 323 421 298 421 c 2,72,-1
 245 421 l 2,73,74
 206 421 206 421 192.5 400 c 128,-1,75
 179 379 179 379 179 344 c 0,63,64
EndSplineSet
AlternateSubs2: "'salt' Stylistic Alternatives in Latin lookup 16 subtable" g.salt
Substitution2: "'smcp' Lowercase to Small Capitals lookup 1 subtable" g.smcp
EndChar

StartChar: h
Encoding: 104 104 75
Width: 550
GlyphClass: 2
Flags: W
LayerCount: 2
Fore
SplineSet
46 0 m 1,0,-1
 46 783 l 1,1,-1
 185 783 l 1,2,-1
 185 474 l 1,3,4
 257 526 257 526 301 535 c 0,5,6
 325 540 325 540 354 540 c 0,7,8
 513 540 513 540 513 354 c 2,9,-1
 513 0 l 1,10,-1
 373 0 l 1,11,-1
 373 356 l 2,12,13
 373 428 373 428 314 428 c 0,14,15
 274 428 274 428 246 417.5 c 128,-1,16
 218 407 218 407 186 382 c 1,17,-1
 186 0 l 1,18,-1
 46 0 l 1,0,-1
EndSplineSet
Substitution2: "'smcp' Lowercase to Small Capitals lookup 1 subtable" h.smcp
EndChar

StartChar: i
Encoding: 105 105 76
Width: 227
GlyphClass: 2
Flags: W
LayerCount: 2
Fore
SplineSet
38 610 m 2,0,-1
 38 698 l 2,1,2
 38 724 38 724 62 724 c 2,3,-1
 167 724 l 2,4,5
 189 724 189 724 189 698 c 2,6,-1
 189 610 l 2,7,8
 189 587 189 587 167 587 c 2,9,-1
 62 587 l 2,10,11
 51 587 51 587 44.5 593 c 128,-1,12
 38 599 38 599 38 610 c 2,0,-1
43 0 m 1,13,-1
 43 531 l 1,14,-1
 183 531 l 1,15,-1
 183 0 l 1,16,-1
 43 0 l 1,13,-1
EndSplineSet
Substitution2: "'smcp' Lowercase to Small Capitals lookup 1 subtable" i.smcp
EndChar

StartChar: j
Encoding: 106 106 77
Width: 242
GlyphClass: 2
Flags: W
LayerCount: 2
Fore
SplineSet
46 610 m 2,0,-1
 46 698 l 2,1,2
 46 724 46 724 70 724 c 2,3,-1
 175 724 l 2,4,5
 186 724 186 724 192 716.5 c 128,-1,6
 198 709 198 709 198 698 c 2,7,-1
 198 610 l 2,8,9
 198 587 198 587 175 587 c 2,10,-1
 70 587 l 2,11,12
 59 587 59 587 52.5 593 c 128,-1,13
 46 599 46 599 46 610 c 2,0,-1
52 -270 m 1,14,-1
 52 531 l 1,15,-1
 192 531 l 1,16,-1
 192 -4 l 2,17,18
 192 -14 192 -14 192 -55 c 0,19,20
 192 -189 192 -189 155 -270 c 1,21,-1
 52 -270 l 1,14,-1
EndSplineSet
Substitution2: "'smcp' Lowercase to Small Capitals lookup 1 subtable" j.smcp
EndChar

StartChar: k
Encoding: 107 107 78
Width: 557
GlyphClass: 2
Flags: W
LayerCount: 2
Fore
SplineSet
46 0 m 1,0,-1
 46 782 l 1,1,-1
 186 782 l 1,2,-1
 186 353 l 1,3,-1
 215 353 l 1,4,-1
 365 531 l 1,5,-1
 543 531 l 1,6,-1
 344 300 l 1,7,-1
 543 0 l 1,8,-1
 376 0 l 1,9,-1
 215 246 l 1,10,-1
 186 246 l 1,11,-1
 186 0 l 1,12,-1
 46 0 l 1,0,-1
EndSplineSet
Substitution2: "'smcp' Lowercase to Small Capitals lookup 1 subtable" k.smcp
EndChar

StartChar: l
Encoding: 108 108 79
Width: 313
GlyphClass: 2
Flags: W
LayerCount: 2
Fore
SplineSet
46 189 m 2,0,-1
 46 783 l 1,1,-1
 186 783 l 1,2,-1
 186 211 l 2,3,4
 186 158 186 158 197 137 c 128,-1,5
 208 116 208 116 232 107 c 0,6,7
 292 86 292 86 299 86 c 1,8,-1
 299 0 l 1,9,-1
 183 0 l 2,10,11
 115 0 115 0 80.5 43.5 c 128,-1,12
 46 87 46 87 46 189 c 2,0,-1
EndSplineSet
Substitution2: "'smcp' Lowercase to Small Capitals lookup 1 subtable" l.smcp
EndChar

StartChar: m
Encoding: 109 109 80
Width: 875
GlyphClass: 2
Flags: W
LayerCount: 2
Fore
SplineSet
370 354 m 2,0,1
 370 426 370 426 311 426 c 0,2,3
 271 426 271 426 245 416 c 128,-1,4
 219 406 219 406 186 381 c 1,5,-1
 186 0 l 1,6,-1
 46 0 l 1,7,-1
 46 531 l 1,8,-1
 158 531 l 1,9,-1
 186 474 l 1,10,11
 189 476 189 476 206 488 c 128,-1,12
 223 500 223 500 239 510 c 128,-1,13
 255 520 255 520 285.5 529.5 c 128,-1,14
 316 539 316 539 351 539 c 0,15,16
 454 539 454 539 489 470 c 1,17,18
 583 539 583 539 680 539 c 0,19,20
 838 539 838 539 838 352 c 2,21,-1
 838 0 l 1,22,-1
 698 0 l 1,23,-1
 698 354 l 2,24,25
 698 408 698 408 664 422 c 0,26,27
 653 426 653 426 639 426 c 0,28,29
 559 426 559 426 509 384 c 1,30,-1
 510 353 l 1,31,-1
 510 0 l 1,32,-1
 370 0 l 1,33,-1
 370 354 l 2,0,1
EndSplineSet
AlternateSubs2: "'salt' Stylistic Alternatives in Latin lookup 16 subtable" m.salt
Substitution2: "'smcp' Lowercase to Small Capitals lookup 1 subtable" m.smcp
EndChar

StartChar: n
Encoding: 110 110 81
Width: 550
GlyphClass: 2
Flags: W
LayerCount: 2
Fore
SplineSet
354 540 m 0,0,1
 513 540 513 540 513 354 c 2,2,-1
 513 0 l 1,3,-1
 373 0 l 1,4,-1
 373 356 l 2,5,6
 373 428 373 428 314 428 c 0,7,8
 274 428 274 428 246 417.5 c 128,-1,9
 218 407 218 407 186 382 c 1,10,-1
 186 0 l 1,11,-1
 46 0 l 1,12,-1
 46 531 l 1,13,-1
 158 531 l 1,14,-1
 186 474 l 1,15,16
 259 527 259 527 302 535 c 0,17,18
 325 540 325 540 354 540 c 0,0,1
EndSplineSet
AlternateSubs2: "'salt' Stylistic Alternatives in Latin lookup 16 subtable" n.salt
Substitution2: "'smcp' Lowercase to Small Capitals lookup 1 subtable" n.smcp
EndChar

StartChar: o
Encoding: 111 111 82
Width: 560
GlyphClass: 2
Flags: W
LayerCount: 2
Fore
SplineSet
38 255 m 0,0,1
 38 324 38 324 46 370.5 c 128,-1,2
 54 417 54 417 71 449.5 c 128,-1,3
 88 482 88 482 118 501 c 0,4,5
 173 536 173 536 280 536 c 0,6,7
 417 536 417 536 469.5 476 c 128,-1,8
 522 416 522 416 522 262.5 c 128,-1,9
 522 109 522 109 470.5 52 c 128,-1,10
 419 -5 419 -5 280 -5 c 0,11,12
 144 -5 144 -5 90 56 c 0,13,14
 38 115 38 115 38 255 c 0,0,1
182 346.5 m 128,-1,16
 178 315 178 315 178 261 c 128,-1,17
 178 207 178 207 183 177 c 128,-1,18
 188 147 188 147 201.5 131.5 c 128,-1,19
 215 116 215 116 232 112 c 128,-1,20
 249 108 249 108 278 108 c 128,-1,21
 307 108 307 108 321.5 110 c 128,-1,22
 336 112 336 112 349.5 120 c 128,-1,23
 363 128 363 128 369 145 c 0,24,25
 382 181 382 181 382 242.5 c 128,-1,26
 382 304 382 304 379.5 332.5 c 128,-1,27
 377 361 377 361 371 380.5 c 128,-1,28
 365 400 365 400 352 408 c 0,29,30
 329 423 329 423 287.5 423.5 c 128,-1,31
 246 424 246 424 228.5 419 c 128,-1,32
 211 414 211 414 198.5 396 c 128,-1,15
 186 378 186 378 182 346.5 c 128,-1,16
EndSplineSet
Substitution2: "'smcp' Lowercase to Small Capitals lookup 1 subtable" o.smcp
EndChar

StartChar: p
Encoding: 112 112 83
Width: 556
GlyphClass: 2
Flags: W
LayerCount: 2
Fore
SplineSet
258.5 519 m 128,-1,1
 303 537 303 537 348.5 537 c 128,-1,2
 394 537 394 537 428 518 c 128,-1,3
 462 499 462 499 482 462 c 0,4,5
 519 392 519 392 519 268 c 0,6,7
 519 106 519 106 471 44 c 1,8,9
 429 -8 429 -8 346 -8 c 0,10,11
 310 -8 310 -8 265 1.5 c 128,-1,12
 220 11 220 11 185 26 c 1,13,-1
 185 -270 l 1,14,-1
 46 -270 l 1,15,-1
 46 531 l 1,16,-1
 161 531 l 1,17,-1
 185 478 l 1,18,0
 214 501 214 501 258.5 519 c 128,-1,1
310 102 m 0,19,20
 334 102 334 102 348 113 c 0,21,22
 379 139 379 139 379 262 c 0,23,24
 379 348 379 348 362 382.5 c 128,-1,25
 345 417 345 417 310 417 c 0,26,27
 236 417 236 417 185 385 c 1,28,-1
 185 122 l 1,29,30
 237 102 237 102 310 102 c 0,19,20
EndSplineSet
AlternateSubs2: "'salt' Stylistic Alternatives in Latin lookup 16 subtable" p.salt
Substitution2: "'smcp' Lowercase to Small Capitals lookup 1 subtable" p.smcp
EndChar

StartChar: q
Encoding: 113 113 84
Width: 555
GlyphClass: 2
Flags: W
LayerCount: 2
Fore
SplineSet
38 268 m 0,0,1
 38 537 38 537 232 537 c 0,2,3
 307 537 307 537 387.5 527.5 c 128,-1,4
 468 518 468 518 510 507 c 1,5,-1
 510 -270 l 1,6,-1
 370 -270 l 1,7,-1
 370 29 l 1,8,9
 312 -10 312 -10 232 -10 c 0,10,11
 123 -10 123 -10 80.5 58.5 c 128,-1,12
 38 127 38 127 38 268 c 0,0,1
178.5 305.5 m 128,-1,14
 178 292 178 292 178 266 c 128,-1,15
 178 240 178 240 178.5 223.5 c 128,-1,16
 179 207 179 207 181 183.5 c 128,-1,17
 183 160 183 160 188.5 148 c 128,-1,18
 194 136 194 136 202 123 c 0,19,20
 218 100 218 100 255 100 c 128,-1,21
 292 100 292 100 314.5 104.5 c 128,-1,22
 337 109 337 109 370 122 c 1,23,-1
 370 430 l 1,24,-1
 260 430 l 2,25,26
 220 430 220 430 203 402 c 0,27,28
 185 373 185 373 182 346 c 128,-1,13
 179 319 179 319 178.5 305.5 c 128,-1,14
EndSplineSet
Substitution2: "'smcp' Lowercase to Small Capitals lookup 1 subtable" q.smcp
EndChar

StartChar: r
Encoding: 114 114 85
Width: 417
GlyphClass: 2
Flags: W
LayerCount: 2
Fore
SplineSet
46 0 m 1,0,-1
 46 531 l 1,1,-1
 164 531 l 1,2,-1
 186 464 l 1,3,4
 261 536 261 536 338 536 c 0,5,6
 381 536 381 536 397 530 c 1,7,-1
 397 395 l 1,8,9
 369 398 369 398 321 398 c 128,-1,10
 273 398 273 398 241.5 385.5 c 128,-1,11
 210 373 210 373 186 339 c 1,12,-1
 186 0 l 1,13,-1
 46 0 l 1,0,-1
EndSplineSet
AlternateSubs2: "'salt' Stylistic Alternatives in Latin lookup 16 subtable" r.salt
Substitution2: "'smcp' Lowercase to Small Capitals lookup 1 subtable" r.smcp
EndChar

StartChar: s
Encoding: 115 115 86
Width: 508
GlyphClass: 2
Flags: W
LayerCount: 2
Fore
SplineSet
168 536 m 0,0,1
 405 536 405 536 452 509 c 1,2,-1
 452 421 l 1,3,-1
 211 421 l 2,4,5
 186 421 186 421 178 413 c 128,-1,6
 170 405 170 405 170 384 c 2,7,-1
 170 360 l 2,8,9
 170 337 170 337 180 331.5 c 128,-1,10
 190 326 190 326 211 326 c 2,11,-1
 337 326 l 2,12,13
 386 326 386 326 418 307 c 0,14,15
 478 273 478 273 478 189 c 2,16,-1
 478 134 l 2,17,18
 478 59 478 59 441 27 c 128,-1,19
 404 -5 404 -5 348 -5 c 0,20,21
 96 -5 96 -5 52 24 c 1,22,-1
 52 111 l 1,23,-1
 303 111 l 2,24,25
 338 111 338 111 338 145 c 2,26,-1
 338 170 l 2,27,28
 338 188 338 188 330.5 196 c 128,-1,29
 323 204 323 204 303 204 c 2,30,-1
 179 204 l 2,31,32
 30 204 30 204 30 347 c 2,33,-1
 30 393 l 2,34,35
 30 536 30 536 168 536 c 0,0,1
EndSplineSet
Substitution2: "'smcp' Lowercase to Small Capitals lookup 1 subtable" s.smcp
EndChar

StartChar: t
Encoding: 116 116 87
Width: 381
GlyphClass: 2
Flags: W
LayerCount: 2
Fore
SplineSet
15 425 m 1,0,-1
 15 503 l 1,1,-1
 101 532 l 1,2,-1
 124 680 l 1,3,-1
 241 680 l 1,4,-1
 241 532 l 1,5,-1
 360 532 l 1,6,-1
 360 425 l 1,7,-1
 241 425 l 1,8,-1
 241 212 l 2,9,10
 241 158 241 158 252 137 c 128,-1,11
 263 116 263 116 286 107 c 0,12,13
 346 86 346 86 353 86 c 1,14,-1
 353 0 l 1,15,-1
 231 0 l 2,16,17
 101 0 101 0 101 190 c 2,18,-1
 101 425 l 1,19,-1
 15 425 l 1,0,-1
EndSplineSet
AlternateSubs2: "'salt' Stylistic Alternatives in Latin lookup 16 subtable" t.salt
Substitution2: "'smcp' Lowercase to Small Capitals lookup 1 subtable" t.smcp
EndChar

StartChar: u
Encoding: 117 117 88
Width: 550
GlyphClass: 2
Flags: W
LayerCount: 2
Fore
SplineSet
178 531 m 1,0,-1
 178 175 l 2,1,2
 178 104 178 104 237 104 c 0,3,4
 289 104 289 104 325 123 c 0,5,6
 343 133 343 133 365 150 c 1,7,-1
 365 531 l 1,8,-1
 505 531 l 1,9,-1
 505 0 l 1,10,-1
 392 0 l 1,11,-1
 365 56 l 1,12,13
 356 51 356 51 340 41 c 128,-1,14
 324 31 324 31 315 25.5 c 128,-1,15
 306 20 306 20 291.5 12.5 c 128,-1,16
 277 5 277 5 264 1 c 0,17,18
 233 -9 233 -9 196 -9 c 0,19,20
 38 -9 38 -9 38 178 c 2,21,-1
 38 531 l 1,22,-1
 178 531 l 1,0,-1
EndSplineSet
AlternateSubs2: "'salt' Stylistic Alternatives in Latin lookup 16 subtable" u.salt
Substitution2: "'smcp' Lowercase to Small Capitals lookup 1 subtable" u.smcp
EndChar

StartChar: v
Encoding: 118 118 89
Width: 564
GlyphClass: 2
Flags: W
LayerCount: 2
Fore
SplineSet
15 531 m 1,0,-1
 165 531 l 1,1,-1
 281 164 l 1,2,-1
 400 531 l 1,3,-1
 550 531 l 1,4,-1
 357 0 l 1,5,-1
 200 0 l 1,6,-1
 15 531 l 1,0,-1
EndSplineSet
Substitution2: "'smcp' Lowercase to Small Capitals lookup 1 subtable" v.smcp
EndChar

StartChar: w
Encoding: 119 119 90
Width: 826
GlyphClass: 2
Flags: W
LayerCount: 2
Fore
SplineSet
15 531 m 1,0,-1
 165 531 l 1,1,-1
 271 164 l 1,2,-1
 366 531 l 1,3,-1
 506 531 l 1,4,-1
 469 388 l 1,5,-1
 557 164 l 1,6,-1
 662 531 l 1,7,-1
 812 531 l 1,8,-1
 640 0 l 1,9,-1
 484 0 l 1,10,-1
 404 192 l 1,11,-1
 344 0 l 1,12,-1
 185 0 l 1,13,-1
 15 531 l 1,0,-1
EndSplineSet
Substitution2: "'smcp' Lowercase to Small Capitals lookup 1 subtable" w.smcp
EndChar

StartChar: x
Encoding: 120 120 91
Width: 572
GlyphClass: 2
Flags: W
LayerCount: 2
Fore
SplineSet
18 0 m 1,0,-1
 202 266 l 1,1,-1
 18 531 l 1,2,-1
 188 531 l 1,3,-1
 285 372 l 1,4,-1
 385 531 l 1,5,-1
 554 531 l 1,6,-1
 368 263 l 1,7,-1
 546 0 l 1,8,-1
 385 0 l 1,9,-1
 286 157 l 1,10,-1
 188 0 l 1,11,-1
 18 0 l 1,0,-1
EndSplineSet
AlternateSubs2: "'salt' Stylistic Alternatives in Latin lookup 16 subtable" x.salt
Substitution2: "'smcp' Lowercase to Small Capitals lookup 1 subtable" x.smcp
EndChar

StartChar: y
Encoding: 121 121 92
Width: 578
GlyphClass: 2
Flags: W
LayerCount: 2
Fore
SplineSet
16 531 m 1,0,-1
 163 531 l 1,1,-1
 255 159 l 2,2,3
 265 121 265 121 304 121 c 1,4,5
 307 120 307 120 308 120 c 2,6,-1
 414 531 l 1,7,-1
 560 531 l 1,8,-1
 376 -168 l 1,9,-1
 303 -270 l 1,10,-1
 203 -270 l 1,11,-1
 278 0 l 1,12,13
 156 0 156 0 120 135 c 2,14,-1
 16 531 l 1,0,-1
EndSplineSet
Substitution2: "'smcp' Lowercase to Small Capitals lookup 1 subtable" y.smcp
EndChar

StartChar: z
Encoding: 122 122 93
Width: 474
GlyphClass: 2
Flags: W
LayerCount: 2
Fore
SplineSet
23 413 m 1,0,-1
 23 531 l 1,1,-1
 452 531 l 1,2,-1
 452 413 l 1,3,-1
 224 119 l 1,4,-1
 452 119 l 1,5,-1
 452 1 l 1,6,-1
 38 1 l 1,7,-1
 38 118 l 1,8,-1
 276 413 l 1,9,-1
 23 413 l 1,0,-1
EndSplineSet
Substitution2: "'smcp' Lowercase to Small Capitals lookup 1 subtable" z.smcp
EndChar

StartChar: braceleft
Encoding: 123 123 94
Width: 321
GlyphClass: 2
Flags: W
LayerCount: 2
Fore
SplineSet
89 439 m 2,0,-1
 89 656 l 2,1,2
 89 742 89 742 143 792 c 128,-1,3
 197 842 197 842 306 842 c 1,4,-1
 306 724 l 1,5,6
 265 724 265 724 247 700.5 c 128,-1,7
 229 677 229 677 229 612 c 2,8,-1
 229 431 l 2,9,10
 229 345 229 345 133 334 c 1,11,12
 176 326 176 326 202 301.5 c 128,-1,13
 228 277 228 277 228 240 c 2,14,-1
 228 0 l 2,15,16
 228 -98 228 -98 302 -98 c 0,17,18
 304 -98 304 -98 306 -98 c 1,19,-1
 306 -210 l 1,20,21
 189 -210 189 -210 138.5 -165.5 c 128,-1,22
 88 -121 88 -121 88 -38 c 2,23,-1
 88 228 l 2,24,25
 88 255 88 255 68.5 268 c 128,-1,26
 49 281 49 281 24 281 c 0,27,28
 20 281 20 281 15 281 c 1,29,-1
 15 386 l 1,30,31
 69 391 69 391 82 413 c 0,32,33
 89 424 89 424 89 439 c 2,0,-1
EndSplineSet
EndChar

StartChar: bar
Encoding: 124 124 95
Width: 247
GlyphClass: 2
Flags: W
LayerCount: 2
Fore
SplineSet
65 -72 m 1,0,-1
 65 770 l 1,1,-1
 183 770 l 1,2,-1
 183 -72 l 1,3,-1
 65 -72 l 1,0,-1
EndSplineSet
EndChar

StartChar: braceright
Encoding: 125 125 96
Width: 321
GlyphClass: 2
Flags: W
LayerCount: 2
Fore
SplineSet
19 -98 m 0,0,1
 57 -98 57 -98 75.5 -74 c 128,-1,2
 94 -50 94 -50 94 0 c 2,3,-1
 94 240 l 2,4,5
 94 277 94 277 119.5 301.5 c 128,-1,6
 145 326 145 326 189 334 c 1,7,8
 93 345 93 345 93 431 c 2,9,-1
 93 612 l 2,10,11
 93 677 93 677 74.5 700.5 c 128,-1,12
 56 724 56 724 15 724 c 1,13,-1
 15 842 l 1,14,15
 124 842 124 842 178.5 792 c 128,-1,16
 233 742 233 742 233 656 c 2,17,-1
 233 439 l 2,18,19
 233 408 233 408 257 397 c 1,20,21
 277 389 277 389 306 386 c 1,22,-1
 306 281 l 1,23,24
 302 281 302 281 287 281 c 128,-1,25
 272 281 272 281 253 268 c 128,-1,26
 234 255 234 255 234 228 c 2,27,-1
 234 -38 l 2,28,29
 234 -121 234 -121 183 -165.5 c 128,-1,30
 132 -210 132 -210 15 -210 c 1,31,-1
 15 -98 l 1,32,33
 17 -98 17 -98 19 -98 c 0,0,1
EndSplineSet
EndChar

StartChar: asciitilde
Encoding: 126 126 97
Width: 419
GlyphClass: 2
Flags: W
LayerCount: 2
Fore
SplineSet
109 645.5 m 128,-1,1
 133 658 133 658 157 658 c 128,-1,2
 181 658 181 658 213 640.5 c 128,-1,3
 245 623 245 623 264 623 c 0,4,5
 265 623 265 623 267 623 c 0,6,7
 309 623 309 623 357 663 c 1,8,-1
 381 603 l 1,9,10
 338 551 338 551 304 538 c 0,11,12
 286 531 286 531 265.5 531 c 128,-1,13
 245 531 245 531 209.5 548.5 c 128,-1,14
 174 566 174 566 160.5 566 c 128,-1,15
 147 566 147 566 140 565.5 c 128,-1,16
 133 565 133 565 125.5 562.5 c 128,-1,17
 118 560 118 560 113 558.5 c 128,-1,18
 108 557 108 557 100 552.5 c 128,-1,19
 92 548 92 548 88.5 546.5 c 128,-1,20
 85 545 85 545 75.5 539 c 128,-1,21
 66 533 66 533 62 531 c 1,22,-1
 38 586 l 1,23,24
 59 609 59 609 72 621 c 128,-1,0
 85 633 85 633 109 645.5 c 128,-1,1
EndSplineSet
EndChar

StartChar: exclamdown
Encoding: 161 161 98
Width: 276
GlyphClass: 2
Flags: W
LayerCount: 2
Fore
SplineSet
70 351 m 2,0,-1
 70 438 l 2,1,2
 70 459 70 459 94 461 c 1,3,-1
 179 461 l 1,4,5
 192 460 192 460 197.5 451 c 128,-1,6
 203 442 203 442 203 435 c 2,7,-1
 203 351 l 1,8,9
 202 324 202 324 180 324 c 2,10,-1
 94 324 l 2,11,12
 70 324 70 324 70 351 c 2,0,-1
65 -270 m 1,13,-1
 79 263 l 1,14,-1
 194 263 l 1,15,-1
 208 -270 l 1,16,-1
 65 -270 l 1,13,-1
EndSplineSet
Substitution2: "'case' Case-Sensitive Forms lookup 18 subtable" exclamdown.alt
Substitution2: "'smcp' Lowercase to Small Capitals lookup 1 subtable" exclamdown.smcp
EndChar

StartChar: cent
Encoding: 162 162 99
Width: 487
GlyphClass: 2
Flags: W
LayerCount: 2
Fore
SplineSet
43 130.5 m 128,-1,1
 30 185 30 185 30 266 c 128,-1,2
 30 347 30 347 43 402 c 0,3,4
 66 500 66 500 138 526 c 0,5,6
 167 537 167 537 188.5 537 c 128,-1,7
 210 537 210 537 213 537 c 1,8,-1
 213 634 l 1,9,-1
 299 634 l 1,10,-1
 299 534 l 1,11,12
 386 525 386 525 450 504 c 1,13,-1
 450 417 l 1,14,15
 354 424 354 424 298 424 c 128,-1,16
 242 424 242 424 230 422.5 c 128,-1,17
 218 421 218 421 204.5 413 c 128,-1,18
 191 405 191 405 184 387 c 0,19,20
 170 347 170 347 170 271 c 128,-1,21
 170 195 170 195 179.5 161.5 c 128,-1,22
 189 128 189 128 207.5 117.5 c 128,-1,23
 226 107 226 107 266 107 c 0,24,25
 347 107 347 107 429 114 c 1,26,-1
 457 116 l 1,27,-1
 457 28 l 1,28,29
 395 -3 395 -3 297 -5 c 1,30,-1
 297 -95 l 1,31,-1
 211 -95 l 1,32,-1
 211 -6 l 1,33,34
 168 -6 168 -6 137.5 6 c 128,-1,35
 107 18 107 18 81.5 47 c 128,-1,0
 56 76 56 76 43 130.5 c 128,-1,1
EndSplineSet
EndChar

StartChar: sterling
Encoding: 163 163 100
Width: 582
GlyphClass: 2
Flags: W
LayerCount: 2
Fore
SplineSet
38 0 m 1,0,-1
 38 108 l 1,1,-1
 104 129 l 1,2,-1
 104 314 l 1,3,-1
 38 314 l 1,4,-1
 38 386 l 1,5,-1
 104 408 l 1,6,-1
 104 483 l 2,7,8
 104 567 104 567 118 603.5 c 128,-1,9
 132 640 132 640 144 659 c 128,-1,10
 156 678 156 678 173.5 690.5 c 128,-1,11
 191 703 191 703 210 711.5 c 128,-1,12
 229 720 229 720 254 724 c 0,13,14
 298 732 298 732 342 732 c 0,15,16
 411 732 411 732 511 720 c 2,17,-1
 545 716 l 1,18,-1
 545 604 l 1,19,-1
 356 604 l 2,20,21
 319 604 319 604 301.5 601.5 c 128,-1,22
 284 599 284 599 268.5 588 c 128,-1,23
 253 577 253 577 248.5 555.5 c 128,-1,24
 244 534 244 534 244 495 c 2,25,-1
 244 408 l 1,26,-1
 466 392 l 1,27,-1
 466 314 l 1,28,-1
 244 314 l 1,29,-1
 244 129 l 1,30,-1
 544 129 l 1,31,-1
 544 0 l 1,32,-1
 38 0 l 1,0,-1
EndSplineSet
Substitution2: "'smcp' Lowercase to Small Capitals lookup 1 subtable" sterling.smcp
EndChar

StartChar: currency
Encoding: 164 164 101
Width: 446
GlyphClass: 2
Flags: W
LayerCount: 2
Fore
SplineSet
133 442 m 1,0,1
 173 470 173 470 222 470 c 128,-1,2
 271 470 271 470 312 442 c 1,3,-1
 358 489 l 1,4,-1
 408 442 l 1,5,-1
 359 392 l 1,6,7
 381 356 381 356 381 307.5 c 128,-1,8
 381 259 381 259 352 218 c 1,9,-1
 400 170 l 1,10,-1
 353 120 l 1,11,-1
 300 171 l 1,12,13
 264 149 264 149 220 149 c 128,-1,14
 176 149 176 149 137 175 c 1,15,-1
 91 127 l 1,16,-1
 42 177 l 1,17,-1
 89 225 l 1,18,19
 64 265 64 265 64 310.5 c 128,-1,20
 64 356 64 356 86 392 c 1,21,-1
 39 438 l 1,22,-1
 87 487 l 1,23,-1
 133 442 l 1,0,1
165.5 368 m 128,-1,25
 142 344 142 344 142 310.5 c 128,-1,26
 142 277 142 277 165.5 252.5 c 128,-1,27
 189 228 189 228 222.5 228 c 128,-1,28
 256 228 256 228 279.5 252.5 c 128,-1,29
 303 277 303 277 303 310.5 c 128,-1,30
 303 344 303 344 279.5 368 c 128,-1,31
 256 392 256 392 222.5 392 c 128,-1,24
 189 392 189 392 165.5 368 c 128,-1,25
EndSplineSet
EndChar

StartChar: yen
Encoding: 165 165 102
Width: 634
GlyphClass: 2
Flags: W
LayerCount: 2
Fore
SplineSet
525 338 m 1,0,-1
 525 256 l 1,1,-1
 378 256 l 1,2,-1
 378 220 l 1,3,-1
 525 220 l 1,4,-1
 525 139 l 1,5,-1
 378 139 l 1,6,-1
 378 0 l 1,7,-1
 238 0 l 1,8,-1
 238 139 l 1,9,-1
 98 139 l 1,10,-1
 98 220 l 1,11,-1
 238 220 l 1,12,-1
 238 256 l 1,13,-1
 98 256 l 1,14,-1
 98 338 l 1,15,-1
 204 338 l 1,16,-1
 15 732 l 1,17,-1
 168 732 l 1,18,-1
 310 402 l 1,19,-1
 465 732 l 1,20,-1
 619 732 l 1,21,-1
 414 338 l 1,22,-1
 525 338 l 1,0,-1
EndSplineSet
Substitution2: "'smcp' Lowercase to Small Capitals lookup 1 subtable" yen.smcp
EndChar

StartChar: brokenbar
Encoding: 166 166 103
Width: 248
GlyphClass: 2
Flags: W
LayerCount: 2
Fore
SplineSet
65 -72 m 1,0,-1
 65 256 l 1,1,-1
 183 256 l 1,2,-1
 183 -72 l 1,3,-1
 65 -72 l 1,0,-1
65 429 m 1,4,-1
 65 770 l 1,5,-1
 183 770 l 1,6,-1
 183 429 l 1,7,-1
 65 429 l 1,4,-1
EndSplineSet
EndChar

StartChar: section
Encoding: 167 167 104
Width: 541
GlyphClass: 2
Flags: W
LayerCount: 2
Fore
SplineSet
42 590 m 2,0,-1
 42 638 l 2,1,2
 42 746 42 746 124 775 c 0,3,4
 150 784 150 784 198 784 c 128,-1,5
 246 784 246 784 335.5 778.5 c 128,-1,6
 425 773 425 773 462 765 c 1,7,-1
 462 666 l 1,8,-1
 221 666 l 2,9,10
 195 666 195 666 186 651 c 0,11,12
 182 643 182 643 182 630 c 2,13,-1
 182 595 l 2,14,15
 182 561 182 561 222 561 c 2,16,-1
 345 561 l 2,17,18
 428 561 428 561 464.5 530 c 128,-1,19
 501 499 501 499 500 435 c 1,20,-1
 500 400 l 2,21,22
 500 308 500 308 442 293 c 1,23,24
 499 283 499 283 499 194 c 2,25,-1
 499 138 l 2,26,27
 499 -8 499 -8 361 -8 c 0,28,29
 292 -8 292 -8 202.5 -2.5 c 128,-1,30
 113 3 113 3 79 11 c 1,31,-1
 79 110 l 1,32,-1
 316 110 l 2,33,34
 345 110 345 110 352.5 119 c 128,-1,35
 360 128 360 128 360 141 c 2,36,-1
 360 181 l 2,37,38
 360 200 360 200 350.5 207 c 128,-1,39
 341 214 341 214 318 214 c 2,40,-1
 194 214 l 2,41,42
 119 214 119 214 81 240.5 c 128,-1,43
 43 267 43 267 43 336 c 2,44,-1
 43 371 l 2,45,46
 43 443 43 443 69 467 c 0,47,48
 82 479 82 479 103 486 c 1,49,50
 42 512 42 512 42 590 c 2,0,-1
182 366 m 2,51,52
 182 340 182 340 191 334 c 0,53,54
 204 326 204 326 227 326 c 2,55,-1
 313 326 l 2,56,57
 345 326 345 326 351 334 c 0,58,59
 360 345 360 345 360 367 c 2,60,-1
 360 405 l 2,61,62
 360 440 360 440 339 445 c 0,63,64
 329 448 329 448 313 448 c 2,65,-1
 227 448 l 2,66,67
 199 448 199 448 190.5 438.5 c 128,-1,68
 182 429 182 429 182 403 c 2,69,-1
 182 366 l 2,51,52
EndSplineSet
EndChar

StartChar: dieresis
Encoding: 168 168 105
Width: 448
GlyphClass: 2
Flags: W
LayerCount: 2
Fore
SplineSet
38 582 m 128,-1,1
 38 606 38 606 55.5 623 c 128,-1,2
 73 640 73 640 97 640 c 128,-1,3
 121 640 121 640 138 623 c 128,-1,4
 155 606 155 606 155 582 c 128,-1,5
 155 558 155 558 138 540.5 c 128,-1,6
 121 523 121 523 97 523 c 128,-1,7
 73 523 73 523 55.5 540.5 c 128,-1,0
 38 558 38 558 38 582 c 128,-1,1
293 582 m 128,-1,9
 293 606 293 606 310.5 623 c 128,-1,10
 328 640 328 640 352 640 c 128,-1,11
 376 640 376 640 393 623 c 128,-1,12
 410 606 410 606 410 582 c 128,-1,13
 410 558 410 558 393 540.5 c 128,-1,14
 376 523 376 523 352 523 c 128,-1,15
 328 523 328 523 310.5 540.5 c 128,-1,8
 293 558 293 558 293 582 c 128,-1,9
EndSplineSet
Substitution2: "'smcp' Lowercase to Small Capitals lookup 1 subtable" dieresis.smcp
EndChar

StartChar: copyright
Encoding: 169 169 106
Width: 800
GlyphClass: 2
Flags: W
LayerCount: 2
Fore
SplineSet
42 377 m 0,0,1
 42 427 42 427 48 475.5 c 128,-1,2
 54 524 54 524 70.5 573.5 c 128,-1,3
 87 623 87 623 114.5 656.5 c 128,-1,4
 142 690 142 690 188.5 711 c 128,-1,5
 235 732 235 732 296 732 c 2,6,-1
 528 732 l 2,7,8
 586 732 586 732 628.5 710 c 128,-1,9
 671 688 671 688 695.5 654.5 c 128,-1,10
 720 621 720 621 735 571 c 0,11,12
 759 489 759 489 759 368 c 0,13,14
 759 194 759 194 699.5 97 c 128,-1,15
 640 0 640 0 528 0 c 2,16,-1
 296 0 l 2,17,18
 183 0 183 0 117 88 c 0,19,20
 42 187 42 187 42 377 c 0,0,1
133 370 m 0,21,22
 133 289 133 289 149.5 227 c 128,-1,23
 166 165 166 165 204 125.5 c 128,-1,24
 242 86 242 86 296 86 c 2,25,-1
 522 86 l 2,26,27
 566 86 566 86 597.5 113.5 c 128,-1,28
 629 141 629 141 648.5 205 c 128,-1,29
 668 269 668 269 668 368 c 0,30,31
 668 499 668 499 647 553 c 0,32,33
 622 616 622 616 584 634 c 0,34,35
 559 646 559 646 528 646 c 2,36,-1
 296 646 l 2,37,38
 225 646 225 646 182 593 c 0,39,40
 133 532 133 532 133 370 c 0,21,22
223 365 m 0,41,42
 223 583 223 583 367 583 c 0,43,44
 404 583 404 583 458 576.5 c 128,-1,45
 512 570 512 570 551 559 c 1,46,-1
 551 485 l 1,47,48
 467 497 467 497 389 497 c 0,49,50
 349 497 349 497 332 466.5 c 128,-1,51
 315 436 315 436 315 366 c 128,-1,52
 315 296 315 296 332.5 264.5 c 128,-1,53
 350 233 350 233 393 233 c 0,54,55
 466 233 466 233 557 249 c 1,56,-1
 557 175 l 1,57,58
 488 147 488 147 372 147 c 0,59,60
 264 147 264 147 235 257 c 0,61,62
 223 301 223 301 223 365 c 0,41,42
EndSplineSet
EndChar

StartChar: ordfeminine
Encoding: 170 170 107
Width: 366
GlyphClass: 3
Flags: W
LayerCount: 2
Fore
SplineSet
23 262 m 1,0,-1
 23 332 l 1,1,-1
 344 332 l 1,2,-1
 344 262 l 1,3,-1
 23 262 l 1,0,-1
35 712 m 1,4,5
 114 738 114 738 202 738 c 0,6,7
 245 738 245 738 275.5 728.5 c 128,-1,8
 306 719 306 719 324.5 693 c 128,-1,9
 343 667 343 667 343 625 c 2,10,-1
 343 378 l 1,11,-1
 261 378 l 1,12,-1
 235 423 l 1,13,14
 230 411 230 411 198 392.5 c 128,-1,15
 166 374 166 374 133 374 c 0,16,17
 81 374 81 374 52 401.5 c 128,-1,18
 23 429 23 429 23 466 c 2,19,-1
 23 501 l 2,20,21
 23 543 23 543 50 569.5 c 128,-1,22
 77 596 77 596 130.5 596 c 128,-1,23
 184 596 184 596 209.5 596 c 128,-1,24
 235 596 235 596 235 596 c 1,25,26
 236 612 236 612 235.5 621 c 128,-1,27
 235 630 235 630 228 639 c 0,28,29
 218 653 218 653 180.5 653 c 128,-1,30
 143 653 143 653 90 649 c 128,-1,31
 37 645 37 645 35 645 c 1,32,-1
 35 712 l 1,4,5
124 485 m 2,33,34
 124 467 124 467 133.5 461 c 128,-1,35
 143 455 143 455 161 455 c 128,-1,36
 179 455 179 455 198 461 c 128,-1,37
 217 467 217 467 226 474 c 2,38,-1
 235 480 l 1,39,-1
 235 539 l 1,40,-1
 155 532 l 2,41,42
 124 530 124 530 124 499 c 2,43,-1
 124 485 l 2,33,34
EndSplineSet
Substitution2: "'smcp' Lowercase to Small Capitals lookup 1 subtable" ordfeminine.smcp
Ligature2: "'ordn' Ordinals lookup 0 subtable" a
EndChar

StartChar: guillemotleft
Encoding: 171 171 108
Width: 580
GlyphClass: 2
Flags: W
LayerCount: 2
Fore
SplineSet
38 354 m 1,0,-1
 244 557 l 1,1,-1
 321 481 l 1,2,-1
 190 354 l 1,3,-1
 323 223 l 1,4,-1
 249 146 l 1,5,-1
 38 354 l 1,0,-1
257 354 m 1,6,-1
 463 557 l 1,7,-1
 540 481 l 1,8,-1
 410 354 l 1,9,-1
 543 223 l 1,10,-1
 468 146 l 1,11,-1
 257 354 l 1,6,-1
EndSplineSet
EndChar

StartChar: logicalnot
Encoding: 172 172 109
Width: 494
GlyphClass: 2
Flags: W
LayerCount: 2
Fore
SplineSet
34 240 m 1,0,-1
 34 352 l 1,1,-1
 460 352 l 1,2,-1
 460 159 l 1,3,-1
 348 159 l 1,4,-1
 348 240 l 1,5,-1
 34 240 l 1,0,-1
EndSplineSet
EndChar

StartChar: uni00AD
Encoding: 173 173 110
Width: 354
GlyphClass: 2
Flags: W
LayerCount: 2
Fore
SplineSet
20 231 m 1,0,-1
 20 349 l 1,1,-1
 334 349 l 1,2,-1
 334 231 l 1,3,-1
 20 231 l 1,0,-1
EndSplineSet
Substitution2: "'case' Case-Sensitive Forms lookup 18 subtable" uni00AD.alt
Substitution2: "'c2sc' Capitals to Small Capitals in Latin lookup 2 subtable" uni00AD.smcp
Substitution2: "'smcp' Lowercase to Small Capitals lookup 1 subtable" uni00AD.smcp
EndChar

StartChar: registered
Encoding: 174 174 111
Width: 800
GlyphClass: 2
Flags: W
LayerCount: 2
Fore
SplineSet
42 377 m 0,0,1
 42 427 42 427 48 475.5 c 128,-1,2
 54 524 54 524 70.5 573.5 c 128,-1,3
 87 623 87 623 114.5 656.5 c 128,-1,4
 142 690 142 690 188.5 711 c 128,-1,5
 235 732 235 732 296 732 c 2,6,-1
 528 732 l 2,7,8
 586 732 586 732 628.5 710 c 128,-1,9
 671 688 671 688 695.5 654.5 c 128,-1,10
 720 621 720 621 735 571 c 0,11,12
 759 489 759 489 759 368 c 0,13,14
 759 194 759 194 699.5 97 c 128,-1,15
 640 0 640 0 528 0 c 2,16,-1
 296 0 l 2,17,18
 183 0 183 0 117 88 c 0,19,20
 42 187 42 187 42 377 c 0,0,1
133 370 m 0,21,22
 133 289 133 289 149.5 227 c 128,-1,23
 166 165 166 165 204 125.5 c 128,-1,24
 242 86 242 86 296 86 c 2,25,-1
 522 86 l 2,26,27
 566 86 566 86 597.5 113.5 c 128,-1,28
 629 141 629 141 648.5 205 c 128,-1,29
 668 269 668 269 668 368 c 0,30,31
 668 499 668 499 647 553 c 0,32,33
 622 616 622 616 584 634 c 0,34,35
 559 646 559 646 528 646 c 2,36,-1
 296 646 l 2,37,38
 225 646 225 646 182 593 c 0,39,40
 133 532 133 532 133 370 c 0,21,22
430 580 m 2,41,42
 564 580 564 580 564 446 c 0,43,44
 564 382 564 382 543 354 c 128,-1,45
 522 326 522 326 486 316 c 1,46,-1
 573 153 l 1,47,-1
 474 153 l 1,48,-1
 391 312 l 1,49,-1
 339 324 l 1,50,-1
 339 153 l 1,51,-1
 248 153 l 1,52,-1
 248 580 l 1,53,-1
 430 580 l 2,41,42
339 390 m 1,54,-1
 414 390 l 2,55,56
 453 390 453 390 463 399.5 c 128,-1,57
 473 409 473 409 473 443 c 128,-1,58
 473 477 473 477 459.5 485.5 c 128,-1,59
 446 494 446 494 414 494 c 2,60,-1
 339 494 l 1,61,-1
 339 390 l 1,54,-1
EndSplineSet
EndChar

StartChar: macron
Encoding: 175 175 112
Width: 367
GlyphClass: 2
Flags: W
LayerCount: 2
Fore
SplineSet
38 531 m 1,0,-1
 38 610 l 1,1,-1
 330 610 l 1,2,-1
 330 531 l 1,3,-1
 38 531 l 1,0,-1
EndSplineSet
Substitution2: "'smcp' Lowercase to Small Capitals lookup 1 subtable" macron.smcp
EndChar

StartChar: degree
Encoding: 176 176 113
Width: 278
GlyphClass: 2
Flags: W
LayerCount: 2
Fore
SplineSet
38 632 m 128,-1,1
 38 660 38 660 51.5 683.5 c 128,-1,2
 65 707 65 707 88.5 721 c 128,-1,3
 112 735 112 735 139.5 735 c 128,-1,4
 167 735 167 735 190.5 721 c 128,-1,5
 214 707 214 707 227.5 683.5 c 128,-1,6
 241 660 241 660 241 632 c 128,-1,7
 241 604 241 604 227.5 580.5 c 128,-1,8
 214 557 214 557 190.5 543.5 c 128,-1,9
 167 530 167 530 139.5 530 c 128,-1,10
 112 530 112 530 88.5 543.5 c 128,-1,11
 65 557 65 557 51.5 580.5 c 128,-1,0
 38 604 38 604 38 632 c 128,-1,1
108.5 663.5 m 128,-1,13
 95 650 95 650 95 635 c 128,-1,14
 95 620 95 620 101 610 c 0,15,16
 114 588 114 588 136 588 c 128,-1,17
 158 588 158 588 170.5 601 c 128,-1,18
 183 614 183 614 183 632 c 128,-1,19
 183 650 183 650 170.5 663.5 c 128,-1,20
 158 677 158 677 140 677 c 128,-1,12
 122 677 122 677 108.5 663.5 c 128,-1,13
EndSplineSet
Substitution2: "'smcp' Lowercase to Small Capitals lookup 1 subtable" degree.smcp
EndChar

StartChar: plusminus
Encoding: 177 177 114
Width: 500
GlyphClass: 2
Flags: W
LayerCount: 2
Fore
SplineSet
43 70 m 1,0,-1
 43 188 l 1,1,-1
 459 188 l 1,2,-1
 459 70 l 1,3,-1
 43 70 l 1,0,-1
43 382 m 1,4,-1
 43 500 l 1,5,-1
 191 500 l 1,6,-1
 191 648 l 1,7,-1
 309 648 l 1,8,-1
 309 500 l 1,9,-1
 459 500 l 1,10,-1
 459 382 l 1,11,-1
 309 382 l 1,12,-1
 309 232 l 1,13,-1
 191 232 l 1,14,-1
 191 382 l 1,15,-1
 43 382 l 1,4,-1
EndSplineSet
EndChar

StartChar: twosuperior
Encoding: 178 178 115
Width: 400
GlyphClass: 2
Flags: W
LayerCount: 2
Fore
SplineSet
24 767 m 2,0,1
 23 767 23 767 23 790.5 c 128,-1,2
 23 814 23 814 23 828 c 2,3,-1
 24 848 l 1,4,5
 131 867 131 867 196 867 c 128,-1,6
 261 867 261 867 289.5 856 c 128,-1,7
 318 845 318 845 335 825 c 0,8,9
 369 786 369 786 369 721 c 0,10,11
 369 616 369 616 196 478 c 1,12,-1
 368 478 l 1,13,-1
 368 378 l 1,14,-1
 27 378 l 1,15,-1
 27 473 l 1,16,17
 144 555 144 555 196 607 c 0,18,19
 220 631 220 631 239.5 660 c 128,-1,20
 259 689 259 689 259 715.5 c 128,-1,21
 259 742 259 742 242 754.5 c 128,-1,22
 225 767 225 767 183 767 c 2,23,-1
 24 767 l 2,0,1
EndSplineSet
EndChar

StartChar: threesuperior
Encoding: 179 179 116
Width: 408
GlyphClass: 2
Flags: W
LayerCount: 2
Fore
SplineSet
193 373 m 2,0,1
 81 373 81 373 27 393 c 1,2,-1
 28 473 l 1,3,-1
 187 473 l 2,4,5
 227 473 227 473 241 481 c 128,-1,6
 255 489 255 489 255 513 c 2,7,-1
 255 525 l 2,8,9
 255 550 255 550 239 559.5 c 128,-1,10
 223 569 223 569 191 570 c 2,11,-1
 68 575 l 1,12,-1
 68 661 l 1,13,-1
 191 668 l 2,14,15
 226 669 226 669 241.5 678.5 c 128,-1,16
 257 688 257 688 257 710 c 2,17,-1
 257 722 l 2,18,19
 257 745 257 745 240.5 753.5 c 128,-1,20
 224 762 224 762 191 762 c 2,21,-1
 23 762 l 1,22,-1
 23 841 l 1,23,24
 79 862 79 862 191 862 c 0,25,26
 213 862 213 862 237 862 c 0,27,28
 296 861 296 861 330 828 c 128,-1,29
 364 795 364 795 364 741 c 2,30,-1
 364 711 l 2,31,32
 364 637 364 637 307 618 c 1,33,34
 364 596 364 596 364 519 c 2,35,-1
 364 496 l 2,36,37
 364 373 364 373 232 373 c 2,38,-1
 193 373 l 2,0,1
EndSplineSet
EndChar

StartChar: acute
Encoding: 180 180 117
Width: 243
GlyphClass: 2
Flags: W
LayerCount: 2
Fore
SplineSet
15 531 m 1,0,-1
 106 670 l 1,1,-1
 228 670 l 1,2,-1
 106 531 l 1,3,-1
 15 531 l 1,0,-1
EndSplineSet
Substitution2: "'smcp' Lowercase to Small Capitals lookup 1 subtable" acute.smcp
EndChar

StartChar: uni00B5
Encoding: 181 181 118
Width: 588
GlyphClass: 2
Flags: W
LayerCount: 2
Fore
SplineSet
209 531 m 1,0,-1
 209 175 l 2,1,2
 209 104 209 104 267 104 c 0,3,4
 319 104 319 104 356 123 c 0,5,6
 374 133 374 133 396 150 c 1,7,-1
 396 531 l 1,8,-1
 536 531 l 1,9,-1
 536 0 l 1,10,-1
 423 0 l 1,11,-1
 396 56 l 1,12,13
 390 53 390 53 375.5 44 c 128,-1,14
 361 35 361 35 354.5 31.5 c 128,-1,15
 348 28 348 28 335.5 21.5 c 128,-1,16
 323 15 323 15 314 11 c 0,17,18
 257 -11 257 -11 209 4 c 1,19,-1
 209 -270 l 1,20,-1
 69 -270 l 1,21,-1
 69 178 l 1,22,-1
 69 531 l 1,23,-1
 209 531 l 1,0,-1
EndSplineSet
EndChar

StartChar: paragraph
Encoding: 182 182 119
Width: 577
GlyphClass: 2
Flags: W
LayerCount: 2
Fore
SplineSet
30 499 m 2,0,-1
 30 592 l 2,1,2
 30 660 30 660 74 696 c 128,-1,3
 118 732 118 732 186 732 c 2,4,-1
 563 732 l 1,5,-1
 563 628 l 1,6,-1
 510 628 l 1,7,-1
 510 0 l 1,8,-1
 408 0 l 1,9,-1
 408 630 l 1,10,-1
 342 630 l 1,11,-1
 342 -270 l 1,12,-1
 240 -270 l 1,13,-1
 240 372 l 1,14,15
 240 372 240 372 232 367 c 0,16,17
 212 355 212 355 186 355 c 0,18,19
 109 355 109 355 69.5 395.5 c 128,-1,20
 30 436 30 436 30 499 c 2,0,-1
132 511 m 2,21,22
 132 476 132 476 151 465 c 1,23,24
 167 457 167 457 192 457 c 2,25,-1
 240 457 l 1,26,-1
 240 631 l 1,27,-1
 192 631 l 2,28,29
 156 631 156 631 144 616.5 c 128,-1,30
 132 602 132 602 132 572 c 2,31,-1
 132 511 l 2,21,22
EndSplineSet
EndChar

StartChar: periodcentered
Encoding: 183 183 120
Width: 263
GlyphClass: 2
Flags: W
LayerCount: 2
Fore
SplineSet
65 340 m 2,0,-1
 65 430 l 2,1,2
 65 455 65 455 89 455 c 2,3,-1
 175 455 l 2,4,5
 200 455 200 455 200 430 c 2,6,-1
 200 340 l 2,7,8
 200 317 200 317 175 317 c 2,9,-1
 89 317 l 2,10,11
 74 317 74 317 69.5 325 c 128,-1,12
 65 333 65 333 65 340 c 2,0,-1
EndSplineSet
Substitution2: "'smcp' Lowercase to Small Capitals lookup 1 subtable" periodcentered.smcp
EndChar

StartChar: cedilla
Encoding: 184 184 121
Width: 244
GlyphClass: 2
Flags: W
LayerCount: 2
Fore
SplineSet
112 -37 m 1,0,-1
 206 -37 l 1,1,2
 206 -90 206 -90 196 -120 c 0,3,4
 177 -178 177 -178 94 -178 c 2,5,-1
 38 -178 l 1,6,-1
 38 -118 l 1,7,-1
 82 -103 l 1,8,9
 102 -95 102 -95 107 -81.5 c 128,-1,10
 112 -68 112 -68 112 -37 c 1,0,-1
EndSplineSet
EndChar

StartChar: onesuperior
Encoding: 185 185 122
Width: 270
GlyphClass: 2
Flags: W
LayerCount: 2
Fore
SplineSet
221 860 m 1,0,-1
 221 378 l 1,1,-1
 113 378 l 1,2,-1
 113 762 l 1,3,-1
 12 739 l 1,4,-1
 12 805 l 1,5,-1
 114 860 l 1,6,-1
 221 860 l 1,0,-1
EndSplineSet
EndChar

StartChar: ordmasculine
Encoding: 186 186 123
Width: 394
GlyphClass: 3
Flags: W
LayerCount: 2
Fore
SplineSet
61.5 414 m 128,-1,1
 23 454 23 454 23 555.5 c 128,-1,2
 23 657 23 657 60.5 696.5 c 128,-1,3
 98 736 98 736 197.5 736 c 128,-1,4
 297 736 297 736 334.5 696 c 128,-1,5
 372 656 372 656 372 554 c 128,-1,6
 372 452 372 452 334.5 413 c 128,-1,7
 297 374 297 374 198.5 374 c 128,-1,0
 100 374 100 374 61.5 414 c 128,-1,1
36 264 m 1,8,-1
 36 333 l 1,9,-1
 358 333 l 1,10,-1
 358 264 l 1,11,-1
 36 264 l 1,8,-1
134 604 m 128,-1,13
 131 585 131 585 131 547.5 c 128,-1,14
 131 510 131 510 139 490.5 c 128,-1,15
 147 471 147 471 159 466 c 128,-1,16
 171 461 171 461 195 461 c 128,-1,17
 219 461 219 461 229 463 c 128,-1,18
 239 465 239 465 248 474 c 0,19,20
 264 488 264 488 264 542.5 c 128,-1,21
 264 597 264 597 257.5 617.5 c 128,-1,22
 251 638 251 638 238.5 643.5 c 128,-1,23
 226 649 226 649 201 649 c 128,-1,24
 176 649 176 649 165 646 c 128,-1,25
 154 643 154 643 145.5 633 c 128,-1,12
 137 623 137 623 134 604 c 128,-1,13
EndSplineSet
Substitution2: "'smcp' Lowercase to Small Capitals lookup 1 subtable" ordmasculine.smcp
Ligature2: "'ordn' Ordinals lookup 0 subtable" o
EndChar

StartChar: guillemotright
Encoding: 187 187 124
Width: 580
GlyphClass: 2
Flags: W
LayerCount: 2
Fore
SplineSet
38 223 m 1,0,-1
 171 354 l 1,1,-1
 41 481 l 1,2,-1
 117 557 l 1,3,-1
 323 354 l 1,4,-1
 112 146 l 1,5,-1
 38 223 l 1,0,-1
257 223 m 1,6,-1
 390 354 l 1,7,-1
 260 481 l 1,8,-1
 337 557 l 1,9,-1
 543 354 l 1,10,-1
 332 146 l 1,11,-1
 257 223 l 1,6,-1
EndSplineSet
EndChar

StartChar: onequarter
Encoding: 188 188 125
Width: 931
GlyphClass: 3
Flags: W
LayerCount: 2
Fore
SplineSet
221 738 m 1,0,-1
 221 255 l 1,1,-1
 113 255 l 1,2,-1
 113 639 l 1,3,-1
 12 616 l 1,4,-1
 12 682 l 1,5,-1
 114 738 l 1,6,-1
 221 738 l 1,0,-1
175 0 m 1,7,-1
 588 753 l 1,8,-1
 690 753 l 1,9,-1
 277 0 l 1,10,-1
 175 0 l 1,7,-1
759 201 m 1,11,-1
 759 303 l 1,12,-1
 783 352 l 1,13,-1
 867 352 l 1,14,-1
 867 201 l 1,15,-1
 916 201 l 1,16,-1
 916 116 l 1,17,-1
 867 98 l 1,18,-1
 867 1 l 1,19,-1
 759 1 l 1,20,-1
 759 98 l 1,21,-1
 527 98 l 1,22,-1
 505 145 l 1,23,-1
 676 481 l 1,24,-1
 790 481 l 1,25,-1
 651 201 l 1,26,-1
 759 201 l 1,11,-1
EndSplineSet
Ligature2: "'frac' Diagonal Fractions lookup 7 subtable" one slash four
Ligature2: "'frac' Diagonal Fractions lookup 7 subtable" one fraction four
EndChar

StartChar: onehalf
Encoding: 189 189 126
Width: 991
GlyphClass: 3
Flags: W
LayerCount: 2
Fore
SplineSet
221 738 m 1,0,-1
 221 255 l 1,1,-1
 113 255 l 1,2,-1
 113 639 l 1,3,-1
 12 616 l 1,4,-1
 12 682 l 1,5,-1
 114 738 l 1,6,-1
 221 738 l 1,0,-1
168 0 m 1,7,-1
 581 753 l 1,8,-1
 682 753 l 1,9,-1
 269 0 l 1,10,-1
 168 0 l 1,7,-1
612 389 m 1,11,12
 612 389 612 389 612 412.5 c 128,-1,13
 612 436 612 436 612 450 c 2,14,-1
 612 470 l 1,15,16
 720 489 720 489 804 489 c 128,-1,17
 888 489 888 489 924.5 449.5 c 128,-1,18
 961 410 961 410 961 343 c 0,19,20
 961 239 961 239 786 100 c 1,21,-1
 960 100 l 1,22,-1
 960 0 l 1,23,-1
 616 0 l 1,24,-1
 616 96 l 1,25,26
 736 181 736 181 787 233 c 0,27,28
 811 257 811 257 831 287 c 128,-1,29
 851 317 851 317 851 342 c 128,-1,30
 851 367 851 367 833.5 378 c 128,-1,31
 816 389 816 389 773 389 c 2,32,-1
 612 389 l 1,11,12
EndSplineSet
Ligature2: "'frac' Diagonal Fractions lookup 7 subtable" one slash two
Ligature2: "'frac' Diagonal Fractions lookup 7 subtable" one fraction two
EndChar

StartChar: threequarters
Encoding: 190 190 127
Width: 1044
GlyphClass: 3
Flags: W
LayerCount: 2
Fore
SplineSet
23 719 m 1,0,1
 78 739 78 739 174 739 c 0,2,3
 204 739 204 739 239 739 c 0,4,5
 299 739 299 739 333 705.5 c 128,-1,6
 367 672 367 672 367 618 c 2,7,-1
 367 588 l 2,8,9
 367 515 367 515 310 495 c 1,10,11
 367 473 367 473 367 396 c 2,12,-1
 367 373 l 2,13,14
 367 251 367 251 234 251 c 0,15,16
 229 251 229 251 211 251 c 128,-1,17
 193 251 193 251 187.5 251 c 128,-1,18
 182 251 182 251 166.5 251 c 128,-1,19
 151 251 151 251 144.5 251.5 c 128,-1,20
 138 252 138 252 124 252.5 c 128,-1,21
 110 253 110 253 103 254 c 128,-1,22
 96 255 96 255 84 256.5 c 128,-1,23
 72 258 72 258 64 260 c 0,24,25
 41 266 41 266 27 271 c 1,26,-1
 28 350 l 1,27,-1
 189 351 l 2,28,29
 230 351 230 351 244.5 359 c 128,-1,30
 259 367 259 367 259 390 c 2,31,-1
 259 403 l 2,32,33
 259 427 259 427 242.5 436.5 c 128,-1,34
 226 446 226 446 193 447 c 2,35,-1
 68 452 l 1,36,-1
 68 538 l 1,37,-1
 193 546 l 1,38,39
 229 547 229 547 244.5 556 c 128,-1,40
 260 565 260 565 260 587 c 2,41,-1
 260 600 l 2,42,43
 260 623 260 623 243 631.5 c 128,-1,44
 226 640 226 640 193 640 c 2,45,-1
 23 640 l 1,46,-1
 23 719 l 1,0,1
278 0 m 1,47,-1
 691 753 l 1,48,-1
 792 753 l 1,49,-1
 379 0 l 1,50,-1
 278 0 l 1,47,-1
851 199 m 1,51,-1
 851 303 l 1,52,-1
 873 353 l 1,53,-1
 958 353 l 1,54,-1
 958 199 l 1,55,-1
 1006 199 l 1,56,-1
 1006 116 l 1,57,-1
 958 98 l 1,58,-1
 958 1 l 1,59,-1
 851 1 l 1,60,-1
 851 98 l 1,61,-1
 618 98 l 1,62,-1
 595 145 l 1,63,-1
 766 481 l 1,64,-1
 879 481 l 1,65,-1
 739 199 l 1,66,-1
 851 199 l 1,51,-1
EndSplineSet
Ligature2: "'frac' Diagonal Fractions lookup 7 subtable" three slash four
Ligature2: "'frac' Diagonal Fractions lookup 7 subtable" three fraction four
EndChar

StartChar: questiondown
Encoding: 191 191 128
Width: 543
GlyphClass: 2
Flags: W
LayerCount: 2
Fore
SplineSet
528 -137 m 1,0,1
 528 -137 528 -137 528 -179 c 128,-1,2
 528 -221 528 -221 528 -231 c 2,3,-1
 528 -242 l 1,4,5
 393 -269 393 -269 299 -269 c 0,6,7
 273 -269 273 -269 259 -268 c 128,-1,8
 245 -267 245 -267 245 -267 c 1,9,10
 188 -267 188 -267 145 -249.5 c 128,-1,11
 102 -232 102 -232 78 -203 c 0,12,13
 30 -145 30 -145 30 -70 c 2,14,-1
 30 4 l 1,15,16
 29 101 29 101 86 148 c 0,17,18
 134 188 134 188 220 188 c 0,19,20
 237 188 237 188 256 187 c 1,21,-1
 256 277 l 1,22,-1
 370 277 l 1,23,-1
 371 82 l 1,24,25
 332 82 332 82 303.5 82 c 128,-1,26
 275 82 275 82 246.5 81 c 128,-1,27
 218 80 218 80 197.5 59 c 128,-1,28
 177 38 177 38 176 -4 c 128,-1,29
 175 -46 175 -46 175 -55 c 0,30,31
 175 -93 175 -93 200.5 -115.5 c 128,-1,32
 226 -138 226 -138 274 -138 c 0,33,34
 277 -138 277 -138 279 -138 c 2,35,-1
 528 -137 l 1,0,1
246 447 m 2,36,37
 246 471 246 471 271 472 c 1,38,-1
 355 472 l 1,39,40
 366 471 366 471 372.5 465 c 128,-1,41
 379 459 379 459 379 449 c 2,42,-1
 379 360 l 1,43,44
 378 336 378 336 356 335 c 1,45,-1
 269 335 l 1,46,47
 247 337 247 337 246 360 c 1,48,-1
 246 447 l 2,36,37
EndSplineSet
Substitution2: "'case' Case-Sensitive Forms lookup 18 subtable" questiondown.alt
Substitution2: "'smcp' Lowercase to Small Capitals lookup 1 subtable" questiondown.smcp
EndChar

StartChar: Agrave
Encoding: 192 192 129
Width: 692
GlyphClass: 2
Flags: W
LayerCount: 2
Fore
SplineSet
193 936 m 1,0,-1
 316 936 l 1,1,-1
 406 797 l 1,2,-1
 315 797 l 1,3,-1
 193 936 l 1,0,-1
34 0 m 1,4,-1
 281 732 l 1,5,-1
 440 732 l 1,6,-1
 678 0 l 1,7,-1
 529 0 l 1,8,-1
 477 162 l 1,9,-1
 237 162 l 1,10,-1
 184 0 l 1,11,-1
 34 0 l 1,4,-1
274 286 m 1,12,-1
 444 286 l 1,13,-1
 362 548 l 1,14,-1
 274 286 l 1,12,-1
EndSplineSet
Substitution2: "'c2sc' Capitals to Small Capitals in Latin lookup 2 subtable" agrave.smcp
EndChar

StartChar: Aacute
Encoding: 193 193 130
Width: 692
GlyphClass: 2
Flags: W
LayerCount: 2
Fore
SplineSet
315 797 m 1,0,-1
 406 936 l 1,1,-1
 528 936 l 1,2,-1
 406 797 l 1,3,-1
 315 797 l 1,0,-1
34 0 m 1,4,-1
 281 732 l 1,5,-1
 440 732 l 1,6,-1
 678 0 l 1,7,-1
 529 0 l 1,8,-1
 477 162 l 1,9,-1
 237 162 l 1,10,-1
 184 0 l 1,11,-1
 34 0 l 1,4,-1
274 286 m 1,12,-1
 444 286 l 1,13,-1
 362 548 l 1,14,-1
 274 286 l 1,12,-1
EndSplineSet
Substitution2: "'c2sc' Capitals to Small Capitals in Latin lookup 2 subtable" aacute.smcp
EndChar

StartChar: Acircumflex
Encoding: 194 194 131
Width: 692
GlyphClass: 2
Flags: W
LayerCount: 2
Fore
SplineSet
206 797 m 1,0,-1
 314 932 l 1,1,-1
 418 932 l 1,2,-1
 515 797 l 1,3,-1
 422 797 l 1,4,-1
 363 857 l 1,5,-1
 300 797 l 1,6,-1
 206 797 l 1,0,-1
34 0 m 1,7,-1
 281 732 l 1,8,-1
 440 732 l 1,9,-1
 678 0 l 1,10,-1
 529 0 l 1,11,-1
 477 162 l 1,12,-1
 237 162 l 1,13,-1
 184 0 l 1,14,-1
 34 0 l 1,7,-1
274 286 m 1,15,-1
 444 286 l 1,16,-1
 362 548 l 1,17,-1
 274 286 l 1,15,-1
EndSplineSet
Substitution2: "'c2sc' Capitals to Small Capitals in Latin lookup 2 subtable" acircumflex.smcp
EndChar

StartChar: Atilde
Encoding: 195 195 132
Width: 692
GlyphClass: 2
Flags: W
LayerCount: 2
Fore
SplineSet
420 887 m 0,0,1
 458 887 458 887 508 925 c 1,2,-1
 532 865 l 1,3,4
 470 797 470 797 420 797 c 0,5,6
 395 797 395 797 360 814.5 c 128,-1,7
 325 832 325 832 311.5 832 c 128,-1,8
 298 832 298 832 288 830.5 c 128,-1,9
 278 829 278 829 272 827.5 c 128,-1,10
 266 826 266 826 256.5 821.5 c 128,-1,11
 247 817 247 817 243.5 815 c 128,-1,12
 240 813 240 813 228.5 806 c 128,-1,13
 217 799 217 799 213 797 c 1,14,-1
 189 852 l 1,15,16
 253 922 253 922 310 922 c 1,17,18
 334 921 334 921 367 904 c 128,-1,19
 400 887 400 887 409 887 c 128,-1,20
 418 887 418 887 420 887 c 0,0,1
34 0 m 1,21,-1
 281 732 l 1,22,-1
 440 732 l 1,23,-1
 678 0 l 1,24,-1
 529 0 l 1,25,-1
 477 162 l 1,26,-1
 237 162 l 1,27,-1
 184 0 l 1,28,-1
 34 0 l 1,21,-1
274 286 m 1,29,-1
 444 286 l 1,30,-1
 362 548 l 1,31,-1
 274 286 l 1,29,-1
EndSplineSet
Substitution2: "'c2sc' Capitals to Small Capitals in Latin lookup 2 subtable" atilde.smcp
EndChar

StartChar: Adieresis
Encoding: 196 196 133
Width: 692
GlyphClass: 2
Flags: W
LayerCount: 2
Fore
SplineSet
191.5 814.5 m 128,-1,1
 174 832 174 832 174 852 c 128,-1,2
 174 872 174 872 182 886 c 0,3,4
 200 915 200 915 229 914.5 c 128,-1,5
 258 914 258 914 275 897.5 c 128,-1,6
 292 881 292 881 292 856.5 c 128,-1,7
 292 832 292 832 275 814.5 c 128,-1,8
 258 797 258 797 233.5 797 c 128,-1,0
 209 797 209 797 191.5 814.5 c 128,-1,1
429 856 m 128,-1,10
 429 880 429 880 446.5 897 c 128,-1,11
 464 914 464 914 488.5 914 c 128,-1,12
 513 914 513 914 530 897.5 c 128,-1,13
 547 881 547 881 547 856.5 c 128,-1,14
 547 832 547 832 530 814.5 c 128,-1,15
 513 797 513 797 488.5 797 c 128,-1,16
 464 797 464 797 446.5 814.5 c 128,-1,9
 429 832 429 832 429 856 c 128,-1,10
34 0 m 1,17,-1
 281 732 l 1,18,-1
 440 732 l 1,19,-1
 678 0 l 1,20,-1
 529 0 l 1,21,-1
 477 162 l 1,22,-1
 237 162 l 1,23,-1
 184 0 l 1,24,-1
 34 0 l 1,17,-1
274 286 m 1,25,-1
 444 286 l 1,26,-1
 362 548 l 1,27,-1
 274 286 l 1,25,-1
EndSplineSet
Substitution2: "'c2sc' Capitals to Small Capitals in Latin lookup 2 subtable" adieresis.smcp
EndChar

StartChar: Aring
Encoding: 197 197 134
Width: 692
GlyphClass: 2
Flags: W
LayerCount: 2
Fore
SplineSet
273 780.5 m 128,-1,1
 287 757 287 757 310.5 743.5 c 128,-1,2
 334 730 334 730 361.5 730 c 128,-1,3
 389 730 389 730 412 743.5 c 128,-1,4
 435 757 435 757 448.5 780.5 c 128,-1,5
 462 804 462 804 462 839.5 c 128,-1,6
 462 875 462 875 432.5 905 c 128,-1,7
 403 935 403 935 361 935 c 128,-1,8
 319 935 319 935 289 905 c 128,-1,9
 259 875 259 875 259 839.5 c 128,-1,0
 259 804 259 804 273 780.5 c 128,-1,1
330.5 863 m 128,-1,11
 343 876 343 876 361 876 c 128,-1,12
 379 876 379 876 391.5 863 c 128,-1,13
 404 850 404 850 404 832 c 128,-1,14
 404 814 404 814 391.5 802 c 128,-1,15
 379 790 379 790 361 790 c 128,-1,16
 343 790 343 790 330 802 c 1,17,18
 325 808 325 808 321.5 815.5 c 128,-1,19
 318 823 318 823 318 836.5 c 128,-1,10
 318 850 318 850 330.5 863 c 128,-1,11
34 0 m 1,20,-1
 281 732 l 1,21,-1
 440 732 l 1,22,-1
 678 0 l 1,23,-1
 529 0 l 1,24,-1
 477 162 l 1,25,-1
 237 162 l 1,26,-1
 184 0 l 1,27,-1
 34 0 l 1,20,-1
274 286 m 1,28,-1
 444 286 l 1,29,-1
 362 548 l 1,30,-1
 274 286 l 1,28,-1
EndSplineSet
Substitution2: "'c2sc' Capitals to Small Capitals in Latin lookup 2 subtable" aring.smcp
EndChar

StartChar: AE
Encoding: 198 198 135
Width: 954
GlyphClass: 2
Flags: W
LayerCount: 2
Fore
SplineSet
496 728 m 0,0,1
 522 731 522 731 542.5 732 c 128,-1,2
 563 733 563 733 577 733 c 128,-1,3
 591 733 591 733 607 732 c 0,4,5
 856 725 856 725 920 716 c 1,6,-1
 920 600 l 1,7,-1
 640 600 l 2,8,9
 604 600 604 600 596 582 c 0,10,11
 590 568 590 568 589 545 c 1,12,-1
 589 428 l 1,13,-1
 874 417 l 1,14,-1
 874 302 l 1,15,-1
 589 293 l 1,16,-1
 589 180 l 2,17,18
 589 144 589 144 608 136 c 0,19,20
 622 130 622 130 635.5 130 c 128,-1,21
 649 130 649 130 651 130 c 2,22,-1
 920 130 l 1,23,-1
 920 13 l 1,24,25
 869 6 869 6 681 -1 c 1,26,-1
 618 -4 l 2,27,28
 609 -4 609 -4 595 -4 c 128,-1,29
 581 -4 581 -4 558.5 -1 c 128,-1,30
 536 2 536 2 508.5 14 c 128,-1,31
 481 26 481 26 465 53.5 c 128,-1,32
 449 81 449 81 449 121 c 2,33,-1
 449 194 l 1,34,-1
 274 194 l 1,35,-1
 178 0 l 1,36,-1
 23 0 l 1,37,-1
 306 575 l 2,38,39
 343 651 343 651 393 686 c 0,40,41
 442 721 442 721 496 728 c 0,0,1
449 317 m 1,42,-1
 449 558 l 1,43,-1
 333 317 l 1,44,-1
 449 317 l 1,42,-1
EndSplineSet
EndChar

StartChar: Ccedilla
Encoding: 199 199 136
Width: 571
GlyphClass: 2
Flags: W
LayerCount: 2
Fore
SplineSet
188 -37 m 1,0,-1
 282 -37 l 1,1,2
 282 -115 282 -115 258 -146.5 c 128,-1,3
 234 -178 234 -178 170 -178 c 2,4,-1
 114 -178 l 1,5,-1
 114 -118 l 1,6,-1
 158 -103 l 1,7,8
 177 -95 177 -95 182.5 -81.5 c 128,-1,9
 188 -68 188 -68 188 -37 c 1,0,-1
92 642 m 0,10,11
 132 708 132 708 203 729 c 0,12,13
 242 740 242 740 291 740 c 0,14,15
 434 740 434 740 546 707 c 1,16,-1
 546 597 l 1,17,18
 546 597 546 597 538.5 598 c 128,-1,19
 531 599 531 599 518.5 600 c 128,-1,20
 506 601 506 601 489 602.5 c 128,-1,21
 472 604 472 604 451.5 605.5 c 128,-1,22
 431 607 431 607 411 608 c 0,23,24
 364 611 364 611 327 611 c 128,-1,25
 290 611 290 611 269.5 606.5 c 128,-1,26
 249 602 249 602 230 588.5 c 128,-1,27
 211 575 211 575 202 548 c 0,28,29
 182 490 182 490 182 366 c 0,30,31
 182 234 182 234 210 183 c 0,32,33
 242 123 242 123 324 123 c 0,34,35
 418 123 418 123 514 129 c 2,36,-1
 546 131 l 1,37,-1
 546 22 l 1,38,39
 456 -6 456 -6 314 -6 c 0,40,41
 303 -6 303 -6 291 -6 c 0,42,43
 157 -5 157 -5 99.5 90 c 128,-1,44
 42 185 42 185 42 372.5 c 128,-1,45
 42 560 42 560 92 642 c 0,10,11
EndSplineSet
Substitution2: "'c2sc' Capitals to Small Capitals in Latin lookup 2 subtable" ccedilla.smcp
EndChar

StartChar: Egrave
Encoding: 200 200 137
Width: 567
GlyphClass: 2
Flags: W
LayerCount: 2
Fore
SplineSet
164 934 m 1,0,-1
 287 934 l 1,1,-1
 377 795 l 1,2,-1
 286 795 l 1,3,-1
 164 934 l 1,0,-1
58 144 m 2,4,-1
 58 580 l 2,5,6
 58 671 58 671 112 704 c 0,7,8
 157 732 157 732 209 732 c 0,9,10
 213 732 213 732 344 728.5 c 128,-1,11
 475 725 475 725 539 716 c 1,12,-1
 539 600 l 1,13,-1
 250 600 l 2,14,15
 213 600 213 600 204 582 c 0,16,17
 198 568 198 568 198 544 c 2,18,-1
 198 430 l 1,19,-1
 494 420 l 1,20,-1
 494 304 l 1,21,-1
 198 295 l 1,22,-1
 198 181 l 2,23,24
 198 143 198 143 219 135 c 0,25,26
 234 129 234 129 260 129 c 2,27,-1
 539 129 l 1,28,-1
 539 14 l 1,29,30
 489 7 489 7 292 0 c 1,31,-1
 227 -3 l 2,32,33
 219 -3 219 -3 208.5 -3 c 128,-1,34
 198 -3 198 -3 181 -1.5 c 128,-1,35
 164 0 164 0 140 9 c 128,-1,36
 116 18 116 18 98 33 c 0,37,38
 58 69 58 69 58 144 c 2,4,-1
EndSplineSet
Substitution2: "'c2sc' Capitals to Small Capitals in Latin lookup 2 subtable" egrave.smcp
EndChar

StartChar: Eacute
Encoding: 201 201 138
Width: 567
GlyphClass: 2
Flags: W
LayerCount: 2
Fore
SplineSet
275 795 m 1,0,-1
 366 933 l 1,1,-1
 488 933 l 1,2,-1
 366 795 l 1,3,-1
 275 795 l 1,0,-1
58 144 m 2,4,-1
 58 580 l 2,5,6
 58 671 58 671 112 704 c 0,7,8
 157 732 157 732 209 732 c 0,9,10
 213 732 213 732 344 728.5 c 128,-1,11
 475 725 475 725 539 716 c 1,12,-1
 539 600 l 1,13,-1
 250 600 l 2,14,15
 213 600 213 600 204 582 c 0,16,17
 198 568 198 568 198 544 c 2,18,-1
 198 430 l 1,19,-1
 494 420 l 1,20,-1
 494 304 l 1,21,-1
 198 295 l 1,22,-1
 198 181 l 2,23,24
 198 143 198 143 219 135 c 0,25,26
 234 129 234 129 260 129 c 2,27,-1
 539 129 l 1,28,-1
 539 14 l 1,29,30
 489 7 489 7 292 0 c 1,31,-1
 227 -3 l 2,32,33
 219 -3 219 -3 208.5 -3 c 128,-1,34
 198 -3 198 -3 181 -1.5 c 128,-1,35
 164 0 164 0 140 9 c 128,-1,36
 116 18 116 18 98 33 c 0,37,38
 58 69 58 69 58 144 c 2,4,-1
EndSplineSet
Substitution2: "'c2sc' Capitals to Small Capitals in Latin lookup 2 subtable" eacute.smcp
EndChar

StartChar: Ecircumflex
Encoding: 202 202 139
Width: 567
GlyphClass: 2
Flags: W
LayerCount: 2
Fore
SplineSet
163 797 m 1,0,-1
 271 932 l 1,1,-1
 375 932 l 1,2,-1
 472 797 l 1,3,-1
 379 797 l 1,4,-1
 320 857 l 1,5,-1
 257 797 l 1,6,-1
 163 797 l 1,0,-1
58 144 m 2,7,-1
 58 580 l 2,8,9
 58 671 58 671 112 704 c 0,10,11
 157 732 157 732 209 732 c 0,12,13
 213 732 213 732 344 728.5 c 128,-1,14
 475 725 475 725 539 716 c 1,15,-1
 539 600 l 1,16,-1
 250 600 l 2,17,18
 213 600 213 600 204 582 c 0,19,20
 198 568 198 568 198 544 c 2,21,-1
 198 430 l 1,22,-1
 494 420 l 1,23,-1
 494 304 l 1,24,-1
 198 295 l 1,25,-1
 198 181 l 2,26,27
 198 143 198 143 219 135 c 0,28,29
 234 129 234 129 260 129 c 2,30,-1
 539 129 l 1,31,-1
 539 14 l 1,32,33
 489 7 489 7 292 0 c 1,34,-1
 227 -3 l 2,35,36
 219 -3 219 -3 208.5 -3 c 128,-1,37
 198 -3 198 -3 181 -1.5 c 128,-1,38
 164 0 164 0 140 9 c 128,-1,39
 116 18 116 18 98 33 c 0,40,41
 58 69 58 69 58 144 c 2,7,-1
EndSplineSet
Substitution2: "'c2sc' Capitals to Small Capitals in Latin lookup 2 subtable" ecircumflex.smcp
EndChar

StartChar: Edieresis
Encoding: 203 203 140
Width: 567
GlyphClass: 2
Flags: W
LayerCount: 2
Fore
SplineSet
126 854 m 128,-1,1
 126 878 126 878 143.5 895 c 128,-1,2
 161 912 161 912 185.5 912 c 128,-1,3
 210 912 210 912 227 895 c 128,-1,4
 244 878 244 878 244 854 c 128,-1,5
 244 830 244 830 227 812.5 c 128,-1,6
 210 795 210 795 185.5 795 c 128,-1,7
 161 795 161 795 143.5 812.5 c 128,-1,0
 126 830 126 830 126 854 c 128,-1,1
381 854 m 128,-1,9
 381 878 381 878 398.5 895 c 128,-1,10
 416 912 416 912 440.5 912 c 128,-1,11
 465 912 465 912 482 895 c 128,-1,12
 499 878 499 878 499 854 c 128,-1,13
 499 830 499 830 482 812.5 c 128,-1,14
 465 795 465 795 440.5 795 c 128,-1,15
 416 795 416 795 398.5 812.5 c 128,-1,8
 381 830 381 830 381 854 c 128,-1,9
58 144 m 2,16,-1
 58 580 l 2,17,18
 58 671 58 671 112 704 c 0,19,20
 157 732 157 732 209 732 c 0,21,22
 213 732 213 732 344 728.5 c 128,-1,23
 475 725 475 725 539 716 c 1,24,-1
 539 600 l 1,25,-1
 250 600 l 2,26,27
 213 600 213 600 204 582 c 0,28,29
 198 568 198 568 198 544 c 2,30,-1
 198 430 l 1,31,-1
 494 420 l 1,32,-1
 494 304 l 1,33,-1
 198 295 l 1,34,-1
 198 181 l 2,35,36
 198 143 198 143 219 135 c 0,37,38
 234 129 234 129 260 129 c 2,39,-1
 539 129 l 1,40,-1
 539 14 l 1,41,42
 489 7 489 7 292 0 c 1,43,-1
 227 -3 l 2,44,45
 219 -3 219 -3 208.5 -3 c 128,-1,46
 198 -3 198 -3 181 -1.5 c 128,-1,47
 164 0 164 0 140 9 c 128,-1,48
 116 18 116 18 98 33 c 0,49,50
 58 69 58 69 58 144 c 2,16,-1
EndSplineSet
Substitution2: "'c2sc' Capitals to Small Capitals in Latin lookup 2 subtable" edieresis.smcp
EndChar

StartChar: Igrave
Encoding: 204 204 141
Width: 245
GlyphClass: 2
Flags: W
LayerCount: 2
Fore
SplineSet
-37 936 m 1,0,-1
 86 936 l 1,1,-1
 176 797 l 1,2,-1
 85 797 l 1,3,-1
 -37 936 l 1,0,-1
61 0 m 1,4,-1
 61 732 l 1,5,-1
 201 732 l 1,6,-1
 201 0 l 1,7,-1
 61 0 l 1,4,-1
EndSplineSet
Substitution2: "'c2sc' Capitals to Small Capitals in Latin lookup 2 subtable" igrave.smcp
EndChar

StartChar: Iacute
Encoding: 205 205 142
Width: 245
GlyphClass: 2
Flags: W
LayerCount: 2
Fore
SplineSet
85 797 m 1,0,-1
 176 936 l 1,1,-1
 298 936 l 1,2,-1
 176 797 l 1,3,-1
 85 797 l 1,0,-1
61 0 m 1,4,-1
 61 732 l 1,5,-1
 201 732 l 1,6,-1
 201 0 l 1,7,-1
 61 0 l 1,4,-1
EndSplineSet
Substitution2: "'c2sc' Capitals to Small Capitals in Latin lookup 2 subtable" iacute.smcp
EndChar

StartChar: Icircumflex
Encoding: 206 206 143
Width: 245
GlyphClass: 2
Flags: W
LayerCount: 2
Fore
SplineSet
-24 797 m 1,0,-1
 84 932 l 1,1,-1
 188 932 l 1,2,-1
 285 797 l 1,3,-1
 192 797 l 1,4,-1
 133 857 l 1,5,-1
 70 797 l 1,6,-1
 -24 797 l 1,0,-1
61 0 m 1,7,-1
 61 732 l 1,8,-1
 201 732 l 1,9,-1
 201 0 l 1,10,-1
 61 0 l 1,7,-1
EndSplineSet
Substitution2: "'c2sc' Capitals to Small Capitals in Latin lookup 2 subtable" icircumflex.smcp
EndChar

StartChar: Idieresis
Encoding: 207 207 144
Width: 245
GlyphClass: 2
Flags: W
LayerCount: 2
Fore
SplineSet
-56 856 m 128,-1,1
 -56 880 -56 880 -38.5 897 c 128,-1,2
 -21 914 -21 914 3.5 914 c 128,-1,3
 28 914 28 914 45 897.5 c 128,-1,4
 62 881 62 881 62 856.5 c 128,-1,5
 62 832 62 832 45 814.5 c 128,-1,6
 28 797 28 797 3.5 797 c 128,-1,7
 -21 797 -21 797 -38.5 814.5 c 128,-1,0
 -56 832 -56 832 -56 856 c 128,-1,1
200 856 m 128,-1,9
 200 880 200 880 217 897 c 128,-1,10
 234 914 234 914 258.5 914 c 128,-1,11
 283 914 283 914 300 897.5 c 128,-1,12
 317 881 317 881 317 856.5 c 128,-1,13
 317 832 317 832 300 814.5 c 128,-1,14
 283 797 283 797 258.5 797 c 128,-1,15
 234 797 234 797 217 814.5 c 128,-1,8
 200 832 200 832 200 856 c 128,-1,9
61 0 m 1,16,-1
 61 732 l 1,17,-1
 201 732 l 1,18,-1
 201 0 l 1,19,-1
 61 0 l 1,16,-1
EndSplineSet
Substitution2: "'c2sc' Capitals to Small Capitals in Latin lookup 2 subtable" idieresis.smcp
EndChar

StartChar: Eth
Encoding: 208 208 145
Width: 662
GlyphClass: 2
Flags: W
LayerCount: 2
Fore
SplineSet
-4 340 m 1,0,-1
 -4 406 l 1,1,-1
 61 406 l 1,2,-1
 61 732 l 1,3,4
 61 732 61 732 372 732 c 0,5,6
 600 732 600 732 623 441 c 0,7,8
 626 404 626 404 626 342.5 c 128,-1,9
 626 281 626 281 611 215.5 c 128,-1,10
 596 150 596 150 566 101 c 0,11,12
 504 0 504 0 372 0 c 2,13,-1
 61 0 l 1,14,-1
 61 340 l 1,15,-1
 -4 340 l 1,0,-1
472.5 236.5 m 128,-1,17
 484 288 484 288 484 361.5 c 128,-1,18
 484 435 484 435 475.5 483.5 c 128,-1,19
 467 532 467 532 450 558 c 0,20,21
 420 606 420 606 361 606 c 2,22,-1
 201 606 l 1,23,-1
 201 406 l 1,24,-1
 312 406 l 1,25,-1
 312 340 l 1,26,-1
 201 340 l 1,27,-1
 201 125 l 1,28,-1
 361 125 l 2,29,30
 405 125 405 125 433 155 c 128,-1,16
 461 185 461 185 472.5 236.5 c 128,-1,17
EndSplineSet
Substitution2: "'c2sc' Capitals to Small Capitals in Latin lookup 2 subtable" eth.smcp
EndChar

StartChar: Ntilde
Encoding: 209 209 146
Width: 678
GlyphClass: 2
Flags: W
LayerCount: 2
Fore
SplineSet
406 887 m 0,0,1
 445 887 445 887 495 925 c 1,2,-1
 519 865 l 1,3,4
 456 797 456 797 407 797 c 0,5,6
 386 797 386 797 365 806.5 c 128,-1,7
 344 816 344 816 326.5 824 c 128,-1,8
 309 832 309 832 301.5 832 c 128,-1,9
 294 832 294 832 288.5 832 c 128,-1,10
 283 832 283 832 274 830.5 c 128,-1,11
 265 829 265 829 259 827.5 c 128,-1,12
 253 826 253 826 243.5 821.5 c 128,-1,13
 234 817 234 817 230 815 c 128,-1,14
 226 813 226 813 214.5 806 c 128,-1,15
 203 799 203 799 200 797 c 1,16,-1
 175 852 l 1,17,18
 239 922 239 922 296 922 c 1,19,20
 321 921 321 921 353.5 904 c 128,-1,21
 386 887 386 887 395 887 c 128,-1,22
 404 887 404 887 406 887 c 0,0,1
61 0 m 1,23,-1
 61 732 l 1,24,-1
 203 732 l 1,25,-1
 493 259 l 1,26,-1
 493 732 l 1,27,-1
 633 732 l 1,28,-1
 633 0 l 1,29,-1
 493 0 l 1,30,-1
 202 468 l 1,31,-1
 202 0 l 1,32,-1
 61 0 l 1,23,-1
EndSplineSet
AlternateSubs2: "'salt' Stylistic Alternatives in Latin lookup 16 subtable" Ntilde.salt
Substitution2: "'c2sc' Capitals to Small Capitals in Latin lookup 2 subtable" ntilde.smcp
EndChar

StartChar: Ograve
Encoding: 210 210 147
Width: 671
GlyphClass: 2
Flags: W
LayerCount: 2
Fore
SplineSet
177 936 m 1,0,-1
 299 936 l 1,1,-1
 390 797 l 1,2,-1
 299 797 l 1,3,-1
 177 936 l 1,0,-1
54 261 m 128,-1,5
 50 306 50 306 50 369.5 c 128,-1,6
 50 433 50 433 57.5 489.5 c 128,-1,7
 65 546 65 546 78 585.5 c 128,-1,8
 91 625 91 625 113 653 c 128,-1,9
 135 681 135 681 157.5 697 c 128,-1,10
 180 713 180 713 213 722 c 0,11,12
 265 737 265 737 322.5 737 c 128,-1,13
 380 737 380 737 406.5 735 c 128,-1,14
 433 733 433 733 462.5 726.5 c 128,-1,15
 492 720 492 720 513 708 c 128,-1,16
 534 696 534 696 555.5 677.5 c 128,-1,17
 577 659 577 659 591 630.5 c 128,-1,18
 605 602 605 602 616 565 c 0,19,20
 638 491 638 491 638 392 c 128,-1,21
 638 293 638 293 630.5 239.5 c 128,-1,22
 623 186 623 186 611 147.5 c 128,-1,23
 599 109 599 109 578.5 81.5 c 128,-1,24
 558 54 558 54 535.5 37.5 c 128,-1,25
 513 21 513 21 481 12 c 0,26,27
 407 -10 407 -10 286 -2 c 1,28,29
 224 1 224 1 196 13 c 128,-1,30
 168 25 168 25 147.5 38.5 c 128,-1,31
 127 52 127 52 113 71.5 c 128,-1,32
 99 91 99 91 86 118.5 c 128,-1,33
 73 146 73 146 65.5 181 c 128,-1,4
 58 216 58 216 54 261 c 128,-1,5
193 448 m 128,-1,35
 190 411 190 411 190 355 c 128,-1,36
 190 299 190 299 194 259.5 c 128,-1,37
 198 220 198 220 207.5 192 c 128,-1,38
 217 164 217 164 236 150 c 0,39,40
 270 125 270 125 344 125 c 0,41,42
 414 125 414 125 449 151 c 0,43,44
 498 188 498 188 498 361 c 0,45,46
 498 478 498 478 485.5 516 c 128,-1,47
 473 554 473 554 462.5 570 c 128,-1,48
 452 586 452 586 433 595 c 0,49,50
 402 608 402 608 360 608 c 128,-1,51
 318 608 318 608 301.5 606.5 c 128,-1,52
 285 605 285 605 266.5 600 c 128,-1,53
 248 595 248 595 237.5 584.5 c 128,-1,54
 227 574 227 574 216.5 556 c 128,-1,55
 206 538 206 538 201 511.5 c 128,-1,34
 196 485 196 485 193 448 c 128,-1,35
EndSplineSet
Substitution2: "'c2sc' Capitals to Small Capitals in Latin lookup 2 subtable" ograve.smcp
EndChar

StartChar: Oacute
Encoding: 211 211 148
Width: 671
GlyphClass: 2
Flags: W
LayerCount: 2
Fore
SplineSet
299 797 m 1,0,-1
 389 936 l 1,1,-1
 512 936 l 1,2,-1
 390 797 l 1,3,-1
 299 797 l 1,0,-1
54 261 m 128,-1,5
 50 306 50 306 50 369.5 c 128,-1,6
 50 433 50 433 57.5 489.5 c 128,-1,7
 65 546 65 546 78 585.5 c 128,-1,8
 91 625 91 625 113 653 c 128,-1,9
 135 681 135 681 157.5 697 c 128,-1,10
 180 713 180 713 213 722 c 0,11,12
 265 737 265 737 322.5 737 c 128,-1,13
 380 737 380 737 406.5 735 c 128,-1,14
 433 733 433 733 462.5 726.5 c 128,-1,15
 492 720 492 720 513 708 c 128,-1,16
 534 696 534 696 555.5 677.5 c 128,-1,17
 577 659 577 659 591 630.5 c 128,-1,18
 605 602 605 602 616 565 c 0,19,20
 638 491 638 491 638 392 c 128,-1,21
 638 293 638 293 630.5 239.5 c 128,-1,22
 623 186 623 186 611 147.5 c 128,-1,23
 599 109 599 109 578.5 81.5 c 128,-1,24
 558 54 558 54 535.5 37.5 c 128,-1,25
 513 21 513 21 481 12 c 0,26,27
 407 -10 407 -10 286 -2 c 1,28,29
 224 1 224 1 196 13 c 128,-1,30
 168 25 168 25 147.5 38.5 c 128,-1,31
 127 52 127 52 113 71.5 c 128,-1,32
 99 91 99 91 86 118.5 c 128,-1,33
 73 146 73 146 65.5 181 c 128,-1,4
 58 216 58 216 54 261 c 128,-1,5
193 448 m 128,-1,35
 190 411 190 411 190 355 c 128,-1,36
 190 299 190 299 194 259.5 c 128,-1,37
 198 220 198 220 207.5 192 c 128,-1,38
 217 164 217 164 236 150 c 0,39,40
 270 125 270 125 344 125 c 0,41,42
 414 125 414 125 449 151 c 0,43,44
 498 188 498 188 498 361 c 0,45,46
 498 478 498 478 485.5 516 c 128,-1,47
 473 554 473 554 462.5 570 c 128,-1,48
 452 586 452 586 433 595 c 0,49,50
 402 608 402 608 360 608 c 128,-1,51
 318 608 318 608 301.5 606.5 c 128,-1,52
 285 605 285 605 266.5 600 c 128,-1,53
 248 595 248 595 237.5 584.5 c 128,-1,54
 227 574 227 574 216.5 556 c 128,-1,55
 206 538 206 538 201 511.5 c 128,-1,34
 196 485 196 485 193 448 c 128,-1,35
EndSplineSet
Substitution2: "'c2sc' Capitals to Small Capitals in Latin lookup 2 subtable" oacute.smcp
EndChar

StartChar: Ocircumflex
Encoding: 212 212 149
Width: 671
GlyphClass: 2
Flags: W
LayerCount: 2
Fore
SplineSet
190 797 m 1,0,-1
 297 932 l 1,1,-1
 401 932 l 1,2,-1
 498 797 l 1,3,-1
 405 797 l 1,4,-1
 346 857 l 1,5,-1
 284 797 l 1,6,-1
 190 797 l 1,0,-1
54 261 m 128,-1,8
 50 306 50 306 50 369.5 c 128,-1,9
 50 433 50 433 57.5 489.5 c 128,-1,10
 65 546 65 546 78 585.5 c 128,-1,11
 91 625 91 625 113 653 c 128,-1,12
 135 681 135 681 157.5 697 c 128,-1,13
 180 713 180 713 213 722 c 0,14,15
 265 737 265 737 322.5 737 c 128,-1,16
 380 737 380 737 406.5 735 c 128,-1,17
 433 733 433 733 462.5 726.5 c 128,-1,18
 492 720 492 720 513 708 c 128,-1,19
 534 696 534 696 555.5 677.5 c 128,-1,20
 577 659 577 659 591 630.5 c 128,-1,21
 605 602 605 602 616 565 c 0,22,23
 638 491 638 491 638 392 c 128,-1,24
 638 293 638 293 630.5 239.5 c 128,-1,25
 623 186 623 186 611 147.5 c 128,-1,26
 599 109 599 109 578.5 81.5 c 128,-1,27
 558 54 558 54 535.5 37.5 c 128,-1,28
 513 21 513 21 481 12 c 0,29,30
 407 -10 407 -10 286 -2 c 1,31,32
 224 1 224 1 196 13 c 128,-1,33
 168 25 168 25 147.5 38.5 c 128,-1,34
 127 52 127 52 113 71.5 c 128,-1,35
 99 91 99 91 86 118.5 c 128,-1,36
 73 146 73 146 65.5 181 c 128,-1,7
 58 216 58 216 54 261 c 128,-1,8
193 448 m 128,-1,38
 190 411 190 411 190 355 c 128,-1,39
 190 299 190 299 194 259.5 c 128,-1,40
 198 220 198 220 207.5 192 c 128,-1,41
 217 164 217 164 236 150 c 0,42,43
 270 125 270 125 344 125 c 0,44,45
 414 125 414 125 449 151 c 0,46,47
 498 188 498 188 498 361 c 0,48,49
 498 478 498 478 485.5 516 c 128,-1,50
 473 554 473 554 462.5 570 c 128,-1,51
 452 586 452 586 433 595 c 0,52,53
 402 608 402 608 360 608 c 128,-1,54
 318 608 318 608 301.5 606.5 c 128,-1,55
 285 605 285 605 266.5 600 c 128,-1,56
 248 595 248 595 237.5 584.5 c 128,-1,57
 227 574 227 574 216.5 556 c 128,-1,58
 206 538 206 538 201 511.5 c 128,-1,37
 196 485 196 485 193 448 c 128,-1,38
EndSplineSet
Substitution2: "'c2sc' Capitals to Small Capitals in Latin lookup 2 subtable" ocircumflex.smcp
EndChar

StartChar: Otilde
Encoding: 213 213 150
Width: 671
GlyphClass: 2
Flags: W
LayerCount: 2
Fore
SplineSet
403 887 m 0,0,1
 442 887 442 887 492 925 c 1,2,-1
 516 865 l 1,3,4
 454 797 454 797 404 797 c 0,5,6
 378 797 378 797 343.5 814.5 c 128,-1,7
 309 832 309 832 295 832 c 128,-1,8
 281 832 281 832 271.5 830.5 c 128,-1,9
 262 829 262 829 256 827.5 c 128,-1,10
 250 826 250 826 240.5 821.5 c 128,-1,11
 231 817 231 817 227 815 c 128,-1,12
 223 813 223 813 211.5 806 c 128,-1,13
 200 799 200 799 197 797 c 1,14,-1
 172 852 l 1,15,16
 236 922 236 922 293 922 c 1,17,18
 318 921 318 921 351 904 c 128,-1,19
 384 887 384 887 392.5 887 c 128,-1,20
 401 887 401 887 403 887 c 0,0,1
54 261 m 128,-1,22
 50 306 50 306 50 369.5 c 128,-1,23
 50 433 50 433 57.5 489.5 c 128,-1,24
 65 546 65 546 78 585.5 c 128,-1,25
 91 625 91 625 113 653 c 128,-1,26
 135 681 135 681 157.5 697 c 128,-1,27
 180 713 180 713 213 722 c 0,28,29
 265 737 265 737 322.5 737 c 128,-1,30
 380 737 380 737 406.5 735 c 128,-1,31
 433 733 433 733 462.5 726.5 c 128,-1,32
 492 720 492 720 513 708 c 128,-1,33
 534 696 534 696 555.5 677.5 c 128,-1,34
 577 659 577 659 591 630.5 c 128,-1,35
 605 602 605 602 616 565 c 0,36,37
 638 491 638 491 638 392 c 128,-1,38
 638 293 638 293 630.5 239.5 c 128,-1,39
 623 186 623 186 611 147.5 c 128,-1,40
 599 109 599 109 578.5 81.5 c 128,-1,41
 558 54 558 54 535.5 37.5 c 128,-1,42
 513 21 513 21 481 12 c 0,43,44
 407 -10 407 -10 286 -2 c 1,45,46
 224 1 224 1 196 13 c 128,-1,47
 168 25 168 25 147.5 38.5 c 128,-1,48
 127 52 127 52 113 71.5 c 128,-1,49
 99 91 99 91 86 118.5 c 128,-1,50
 73 146 73 146 65.5 181 c 128,-1,21
 58 216 58 216 54 261 c 128,-1,22
193 448 m 128,-1,52
 190 411 190 411 190 355 c 128,-1,53
 190 299 190 299 194 259.5 c 128,-1,54
 198 220 198 220 207.5 192 c 128,-1,55
 217 164 217 164 236 150 c 0,56,57
 270 125 270 125 344 125 c 0,58,59
 414 125 414 125 449 151 c 0,60,61
 498 188 498 188 498 361 c 0,62,63
 498 478 498 478 485.5 516 c 128,-1,64
 473 554 473 554 462.5 570 c 128,-1,65
 452 586 452 586 433 595 c 0,66,67
 402 608 402 608 360 608 c 128,-1,68
 318 608 318 608 301.5 606.5 c 128,-1,69
 285 605 285 605 266.5 600 c 128,-1,70
 248 595 248 595 237.5 584.5 c 128,-1,71
 227 574 227 574 216.5 556 c 128,-1,72
 206 538 206 538 201 511.5 c 128,-1,51
 196 485 196 485 193 448 c 128,-1,52
EndSplineSet
Substitution2: "'c2sc' Capitals to Small Capitals in Latin lookup 2 subtable" otilde.smcp
EndChar

StartChar: Odieresis
Encoding: 214 214 151
Width: 671
GlyphClass: 2
Flags: W
LayerCount: 2
Fore
SplineSet
158 856 m 128,-1,1
 158 872 158 872 166 886 c 0,2,3
 183 915 183 915 212 914.5 c 128,-1,4
 241 914 241 914 258 897.5 c 128,-1,5
 275 881 275 881 275 856.5 c 128,-1,6
 275 832 275 832 258 814.5 c 128,-1,7
 241 797 241 797 221 797 c 128,-1,8
 201 797 201 797 187.5 805 c 128,-1,9
 174 813 174 813 166 826.5 c 128,-1,0
 158 840 158 840 158 856 c 128,-1,1
430.5 814.5 m 128,-1,11
 413 832 413 832 413 852 c 128,-1,12
 413 872 413 872 421 886 c 0,13,14
 438 914 438 914 467 914 c 128,-1,15
 496 914 496 914 513 897.5 c 128,-1,16
 530 881 530 881 530 856.5 c 128,-1,17
 530 832 530 832 513 814.5 c 128,-1,18
 496 797 496 797 472 797 c 128,-1,10
 448 797 448 797 430.5 814.5 c 128,-1,11
54 261 m 128,-1,20
 50 306 50 306 50 369.5 c 128,-1,21
 50 433 50 433 57.5 489.5 c 128,-1,22
 65 546 65 546 78 585.5 c 128,-1,23
 91 625 91 625 113 653 c 128,-1,24
 135 681 135 681 157.5 697 c 128,-1,25
 180 713 180 713 213 722 c 0,26,27
 265 737 265 737 322.5 737 c 128,-1,28
 380 737 380 737 406.5 735 c 128,-1,29
 433 733 433 733 462.5 726.5 c 128,-1,30
 492 720 492 720 513 708 c 128,-1,31
 534 696 534 696 555.5 677.5 c 128,-1,32
 577 659 577 659 591 630.5 c 128,-1,33
 605 602 605 602 616 565 c 0,34,35
 638 491 638 491 638 392 c 128,-1,36
 638 293 638 293 630.5 239.5 c 128,-1,37
 623 186 623 186 611 147.5 c 128,-1,38
 599 109 599 109 578.5 81.5 c 128,-1,39
 558 54 558 54 535.5 37.5 c 128,-1,40
 513 21 513 21 481 12 c 0,41,42
 407 -10 407 -10 286 -2 c 1,43,44
 224 1 224 1 196 13 c 128,-1,45
 168 25 168 25 147.5 38.5 c 128,-1,46
 127 52 127 52 113 71.5 c 128,-1,47
 99 91 99 91 86 118.5 c 128,-1,48
 73 146 73 146 65.5 181 c 128,-1,19
 58 216 58 216 54 261 c 128,-1,20
193 448 m 128,-1,50
 190 411 190 411 190 355 c 128,-1,51
 190 299 190 299 194 259.5 c 128,-1,52
 198 220 198 220 207.5 192 c 128,-1,53
 217 164 217 164 236 150 c 0,54,55
 270 125 270 125 344 125 c 0,56,57
 414 125 414 125 449 151 c 0,58,59
 498 188 498 188 498 361 c 0,60,61
 498 478 498 478 485.5 516 c 128,-1,62
 473 554 473 554 462.5 570 c 128,-1,63
 452 586 452 586 433 595 c 0,64,65
 402 608 402 608 360 608 c 128,-1,66
 318 608 318 608 301.5 606.5 c 128,-1,67
 285 605 285 605 266.5 600 c 128,-1,68
 248 595 248 595 237.5 584.5 c 128,-1,69
 227 574 227 574 216.5 556 c 128,-1,70
 206 538 206 538 201 511.5 c 128,-1,49
 196 485 196 485 193 448 c 128,-1,50
EndSplineSet
Substitution2: "'c2sc' Capitals to Small Capitals in Latin lookup 2 subtable" odieresis.smcp
EndChar

StartChar: multiply
Encoding: 215 215 152
Width: 461
GlyphClass: 2
Flags: W
LayerCount: 2
Fore
SplineSet
43 250 m 1,0,-1
 148 355 l 1,1,-1
 43 461 l 1,2,-1
 126 544 l 1,3,-1
 231 439 l 1,4,-1
 337 545 l 1,5,-1
 421 462 l 1,6,-1
 315 355 l 1,7,-1
 420 250 l 1,8,-1
 337 167 l 1,9,-1
 231 272 l 1,10,-1
 127 167 l 1,11,-1
 43 250 l 1,0,-1
EndSplineSet
EndChar

StartChar: Oslash
Encoding: 216 216 153
Width: 679
GlyphClass: 2
Flags: W
LayerCount: 2
Fore
SplineSet
117 653 m 0,0,1
 139 681 139 681 161.5 697 c 128,-1,2
 184 713 184 713 216 722 c 0,3,4
 269 737 269 737 349 737 c 0,5,6
 474 737 474 737 531 701 c 1,7,-1
 553 732 l 1,8,-1
 628 732 l 1,9,-1
 577 659 l 1,10,11
 643 572 643 572 643 361 c 0,12,13
 643 161 643 161 583 82 c 0,14,15
 544 29 544 29 485 12 c 0,16,17
 431 -4 431 -4 356 -4 c 128,-1,18
 281 -4 281 -4 234.5 4.5 c 128,-1,19
 188 13 188 13 153 37 c 1,20,-1
 127 0 l 1,21,-1
 53 0 l 1,22,-1
 110 83 l 1,23,24
 55 166 55 166 55 369 c 128,-1,25
 55 572 55 572 117 653 c 0,0,1
198 448 m 128,-1,27
 195 411 195 411 195 339 c 128,-1,28
 195 267 195 267 209 225 c 1,29,-1
 452 587 l 1,30,31
 425 608 425 608 349 608 c 0,32,33
 266 608 266 608 242 584 c 0,34,35
 214 556 214 556 207.5 520.5 c 128,-1,26
 201 485 201 485 198 448 c 128,-1,27
349 125 m 0,36,37
 395 125 395 125 422.5 134 c 128,-1,38
 450 143 450 143 469 169.5 c 128,-1,39
 488 196 488 196 495.5 241 c 128,-1,40
 503 286 503 286 503 381 c 128,-1,41
 503 476 503 476 484 526 c 1,42,-1
 236 156 l 1,43,44
 267 125 267 125 349 125 c 0,36,37
EndSplineSet
Substitution2: "'c2sc' Capitals to Small Capitals in Latin lookup 2 subtable" oslash.smcp
EndChar

StartChar: Ugrave
Encoding: 217 217 154
Width: 664
GlyphClass: 2
Flags: W
LayerCount: 2
Fore
SplineSet
173 936 m 1,0,-1
 295 936 l 1,1,-1
 386 797 l 1,2,-1
 295 797 l 1,3,-1
 173 936 l 1,0,-1
343 -5 m 2,4,-1
 329 -5 l 2,5,6
 209 -5 209 -5 169 20 c 0,7,8
 151 32 151 32 127 55.5 c 128,-1,9
 103 79 103 79 91 113 c 0,10,11
 61 197 61 197 61 320 c 2,12,-1
 61 732 l 1,13,-1
 201 732 l 1,14,-1
 201 320 l 2,15,16
 201 224 201 224 220 179 c 0,17,18
 237 139 237 139 287 128 c 0,19,20
 309 124 309 124 350.5 124 c 128,-1,21
 392 124 392 124 420 139 c 0,22,23
 479 171 479 171 479 320 c 2,24,-1
 479 732 l 1,25,-1
 620 732 l 1,26,-1
 620 320 l 2,27,28
 620 163 620 163 574 92 c 1,29,30
 559 67 559 67 544.5 51.5 c 128,-1,31
 530 36 530 36 507.5 24.5 c 128,-1,32
 485 13 485 13 469 7.5 c 128,-1,33
 453 2 453 2 426 -1 c 0,34,35
 392 -5 392 -5 343 -5 c 2,4,-1
EndSplineSet
Substitution2: "'c2sc' Capitals to Small Capitals in Latin lookup 2 subtable" ugrave.smcp
EndChar

StartChar: Uacute
Encoding: 218 218 155
Width: 664
GlyphClass: 2
Flags: W
LayerCount: 2
Fore
SplineSet
295 797 m 1,0,-1
 385 936 l 1,1,-1
 508 936 l 1,2,-1
 386 797 l 1,3,-1
 295 797 l 1,0,-1
343 -5 m 2,4,-1
 329 -5 l 2,5,6
 209 -5 209 -5 169 20 c 0,7,8
 151 32 151 32 127 55.5 c 128,-1,9
 103 79 103 79 91 113 c 0,10,11
 61 197 61 197 61 320 c 2,12,-1
 61 732 l 1,13,-1
 201 732 l 1,14,-1
 201 320 l 2,15,16
 201 224 201 224 220 179 c 0,17,18
 237 139 237 139 287 128 c 0,19,20
 309 124 309 124 350.5 124 c 128,-1,21
 392 124 392 124 420 139 c 0,22,23
 479 171 479 171 479 320 c 2,24,-1
 479 732 l 1,25,-1
 620 732 l 1,26,-1
 620 320 l 2,27,28
 620 163 620 163 574 92 c 1,29,30
 559 67 559 67 544.5 51.5 c 128,-1,31
 530 36 530 36 507.5 24.5 c 128,-1,32
 485 13 485 13 469 7.5 c 128,-1,33
 453 2 453 2 426 -1 c 0,34,35
 392 -5 392 -5 343 -5 c 2,4,-1
EndSplineSet
Substitution2: "'c2sc' Capitals to Small Capitals in Latin lookup 2 subtable" uacute.smcp
EndChar

StartChar: Ucircumflex
Encoding: 219 219 156
Width: 664
GlyphClass: 2
Flags: W
LayerCount: 2
Fore
SplineSet
186 797 m 1,0,-1
 294 932 l 1,1,-1
 398 932 l 1,2,-1
 494 797 l 1,3,-1
 402 797 l 1,4,-1
 343 857 l 1,5,-1
 280 797 l 1,6,-1
 186 797 l 1,0,-1
343 -5 m 2,7,-1
 329 -5 l 2,8,9
 209 -5 209 -5 169 20 c 0,10,11
 151 32 151 32 127 55.5 c 128,-1,12
 103 79 103 79 91 113 c 0,13,14
 61 197 61 197 61 320 c 2,15,-1
 61 732 l 1,16,-1
 201 732 l 1,17,-1
 201 320 l 2,18,19
 201 224 201 224 220 179 c 0,20,21
 237 139 237 139 287 128 c 0,22,23
 309 124 309 124 350.5 124 c 128,-1,24
 392 124 392 124 420 139 c 0,25,26
 479 171 479 171 479 320 c 2,27,-1
 479 732 l 1,28,-1
 620 732 l 1,29,-1
 620 320 l 2,30,31
 620 163 620 163 574 92 c 1,32,33
 559 67 559 67 544.5 51.5 c 128,-1,34
 530 36 530 36 507.5 24.5 c 128,-1,35
 485 13 485 13 469 7.5 c 128,-1,36
 453 2 453 2 426 -1 c 0,37,38
 392 -5 392 -5 343 -5 c 2,7,-1
EndSplineSet
Substitution2: "'c2sc' Capitals to Small Capitals in Latin lookup 2 subtable" ucircumflex.smcp
EndChar

StartChar: Udieresis
Encoding: 220 220 157
Width: 664
GlyphClass: 2
Flags: W
LayerCount: 2
Fore
SplineSet
171.5 814.5 m 128,-1,1
 154 832 154 832 154 852 c 128,-1,2
 154 872 154 872 162 886 c 0,3,4
 179 914 179 914 208.5 914 c 128,-1,5
 238 914 238 914 255 897.5 c 128,-1,6
 272 881 272 881 272 856.5 c 128,-1,7
 272 832 272 832 254.5 814.5 c 128,-1,8
 237 797 237 797 213 797 c 128,-1,0
 189 797 189 797 171.5 814.5 c 128,-1,1
409 856 m 128,-1,10
 409 880 409 880 426.5 897 c 128,-1,11
 444 914 444 914 468.5 914 c 128,-1,12
 493 914 493 914 509.5 897.5 c 128,-1,13
 526 881 526 881 526 856.5 c 128,-1,14
 526 832 526 832 509 814.5 c 128,-1,15
 492 797 492 797 468 797 c 128,-1,16
 444 797 444 797 426.5 814.5 c 128,-1,9
 409 832 409 832 409 856 c 128,-1,10
343 -5 m 2,17,-1
 329 -5 l 2,18,19
 209 -5 209 -5 169 20 c 0,20,21
 151 32 151 32 127 55.5 c 128,-1,22
 103 79 103 79 91 113 c 0,23,24
 61 197 61 197 61 320 c 2,25,-1
 61 732 l 1,26,-1
 201 732 l 1,27,-1
 201 320 l 2,28,29
 201 224 201 224 220 179 c 0,30,31
 237 139 237 139 287 128 c 0,32,33
 309 124 309 124 350.5 124 c 128,-1,34
 392 124 392 124 420 139 c 0,35,36
 479 171 479 171 479 320 c 2,37,-1
 479 732 l 1,38,-1
 620 732 l 1,39,-1
 620 320 l 2,40,41
 620 163 620 163 574 92 c 1,42,43
 559 67 559 67 544.5 51.5 c 128,-1,44
 530 36 530 36 507.5 24.5 c 128,-1,45
 485 13 485 13 469 7.5 c 128,-1,46
 453 2 453 2 426 -1 c 0,47,48
 392 -5 392 -5 343 -5 c 2,17,-1
EndSplineSet
Substitution2: "'c2sc' Capitals to Small Capitals in Latin lookup 2 subtable" udieresis.smcp
EndChar

StartChar: Yacute
Encoding: 221 221 158
Width: 656
GlyphClass: 2
Flags: W
LayerCount: 2
Fore
SplineSet
290 797 m 1,0,-1
 381 936 l 1,1,-1
 504 936 l 1,2,-1
 382 797 l 1,3,-1
 290 797 l 1,0,-1
397 0 m 1,4,-1
 257 0 l 1,5,-1
 257 227 l 1,6,-1
 34 732 l 1,7,-1
 186 732 l 1,8,-1
 329 381 l 1,9,-1
 486 732 l 1,10,-1
 638 732 l 1,11,-1
 397 227 l 1,12,-1
 397 0 l 1,4,-1
EndSplineSet
Substitution2: "'c2sc' Capitals to Small Capitals in Latin lookup 2 subtable" yacute.smcp
EndChar

StartChar: Thorn
Encoding: 222 222 159
Width: 546
GlyphClass: 2
Flags: W
LayerCount: 2
Fore
SplineSet
284 148 m 128,-1,1
 257 148 257 148 186 168 c 1,2,-1
 186 0 l 1,3,-1
 46 0 l 1,4,-1
 46 729 l 1,5,-1
 186 729 l 1,6,-1
 186 588 l 1,7,-1
 333 588 l 1,8,9
 509 587 509 587 509 375 c 0,10,11
 509 215 509 215 427 171 c 0,12,13
 388 150 388 150 349.5 149 c 128,-1,0
 311 148 311 148 284 148 c 128,-1,1
289 273 m 1,14,15
 290 272 290 272 300.5 272 c 128,-1,16
 311 272 311 272 324 275.5 c 128,-1,17
 337 279 337 279 348 289 c 0,18,19
 368 309 368 309 368 374 c 0,20,21
 367 443 367 443 333 457 c 0,22,23
 316 464 316 464 289 464 c 2,24,-1
 186 464 l 1,25,-1
 186 272 l 1,26,-1
 289 273 l 1,14,15
EndSplineSet
Substitution2: "'c2sc' Capitals to Small Capitals in Latin lookup 2 subtable" thorn.smcp
EndChar

StartChar: germandbls
Encoding: 223 223 160
Width: 572
GlyphClass: 2
Flags: W
LayerCount: 2
Fore
SplineSet
285 781 m 0,0,1
 452 781 452 781 511 683 c 0,2,3
 528 654 528 654 530 632.5 c 128,-1,4
 532 611 532 611 532 595 c 128,-1,5
 532 579 532 579 527 553 c 0,6,7
 517 493 517 493 470 442 c 0,8,9
 460 431 460 431 443 415.5 c 128,-1,10
 426 400 426 400 419 392 c 0,11,12
 398 371 398 371 398 352.5 c 128,-1,13
 398 334 398 334 414.5 322 c 128,-1,14
 431 310 431 310 454.5 299.5 c 128,-1,15
 478 289 478 289 501.5 275 c 128,-1,16
 525 261 525 261 541.5 235 c 128,-1,17
 558 209 558 209 558 174 c 2,18,-1
 558 143 l 2,19,20
 558 56 558 56 503 22 c 0,21,22
 455 -8 455 -8 390.5 -8 c 128,-1,23
 326 -8 326 -8 240 11 c 1,24,-1
 240 110 l 1,25,26
 330 105 330 105 355 105 c 128,-1,27
 380 105 380 105 398.5 119 c 128,-1,28
 417 133 417 133 418 161 c 1,29,-1
 418 185 l 2,30,31
 418 216 418 216 363 238 c 0,32,33
 341 247 341 247 318 258.5 c 128,-1,34
 295 270 295 270 279.5 293 c 128,-1,35
 264 316 264 316 264 355.5 c 128,-1,36
 264 395 264 395 282.5 422.5 c 128,-1,37
 301 450 301 450 352 492 c 1,38,39
 393 528 393 528 393 576 c 0,40,41
 393 654 393 654 291 654 c 0,42,43
 255 654 255 654 232 640 c 0,44,45
 186 614 186 614 186 516 c 2,46,-1
 186 0 l 1,47,-1
 46 0 l 1,48,-1
 46 566 l 2,49,50
 46 658 46 658 108.5 719.5 c 128,-1,51
 171 781 171 781 285 781 c 0,0,1
EndSplineSet
Substitution2: "'smcp' Lowercase to Small Capitals lookup 1 subtable" germandbls.smcp
EndChar

StartChar: agrave
Encoding: 224 224 161
Width: 519
GlyphClass: 2
Flags: W
LayerCount: 2
Fore
SplineSet
100 740 m 1,0,-1
 222 740 l 1,1,-1
 313 601 l 1,2,-1
 222 601 l 1,3,-1
 100 740 l 1,0,-1
48 506 m 1,4,5
 139 541 139 541 291 541 c 0,6,7
 383 541 383 541 432.5 502.5 c 128,-1,8
 482 464 482 464 482 370 c 2,9,-1
 482 0 l 1,10,-1
 371 0 l 1,11,-1
 342 58 l 1,12,13
 338 51 338 51 316.5 36.5 c 128,-1,14
 295 22 295 22 257 8 c 128,-1,15
 219 -6 219 -6 184 -6 c 0,16,17
 110 -6 110 -6 70 36.5 c 128,-1,18
 30 79 30 79 30 135 c 2,19,-1
 30 185 l 2,20,21
 30 249 30 249 68 290 c 128,-1,22
 106 331 106 331 185 331 c 128,-1,23
 264 331 264 331 303 331 c 128,-1,24
 342 331 342 331 342 331 c 1,25,26
 342 348 342 348 342 356.5 c 128,-1,27
 342 365 342 365 342 365 c 2,28,29
 342 405 342 405 325 417.5 c 128,-1,30
 308 430 308 430 257 430 c 128,-1,31
 206 430 206 430 48 419 c 1,32,-1
 48 506 l 1,4,5
170 155 m 2,33,34
 170 125 170 125 183 115.5 c 128,-1,35
 196 106 196 106 221 106 c 128,-1,36
 246 106 246 106 276.5 116.5 c 128,-1,37
 307 127 307 127 324 137 c 2,38,-1
 342 148 l 1,39,-1
 342 245 l 1,40,-1
 213 235 l 2,41,42
 170 231 170 231 170 181 c 2,43,-1
 170 155 l 2,33,34
EndSplineSet
AlternateSubs2: "'salt' Stylistic Alternatives in Latin lookup 16 subtable" agrave.salt
Substitution2: "'smcp' Lowercase to Small Capitals lookup 1 subtable" agrave.smcp
EndChar

StartChar: aacute
Encoding: 225 225 162
Width: 519
GlyphClass: 2
Flags: W
LayerCount: 2
Fore
SplineSet
220 601 m 1,0,-1
 310 740 l 1,1,-1
 433 740 l 1,2,-1
 311 601 l 1,3,-1
 220 601 l 1,0,-1
48 506 m 1,4,5
 139 541 139 541 291 541 c 0,6,7
 383 541 383 541 432.5 502.5 c 128,-1,8
 482 464 482 464 482 370 c 2,9,-1
 482 0 l 1,10,-1
 371 0 l 1,11,-1
 342 58 l 1,12,13
 338 51 338 51 316.5 36.5 c 128,-1,14
 295 22 295 22 257 8 c 128,-1,15
 219 -6 219 -6 184 -6 c 0,16,17
 110 -6 110 -6 70 36.5 c 128,-1,18
 30 79 30 79 30 135 c 2,19,-1
 30 185 l 2,20,21
 30 249 30 249 68 290 c 128,-1,22
 106 331 106 331 185 331 c 128,-1,23
 264 331 264 331 303 331 c 128,-1,24
 342 331 342 331 342 331 c 1,25,26
 342 348 342 348 342 356.5 c 128,-1,27
 342 365 342 365 342 365 c 2,28,29
 342 405 342 405 325 417.5 c 128,-1,30
 308 430 308 430 257 430 c 128,-1,31
 206 430 206 430 48 419 c 1,32,-1
 48 506 l 1,4,5
170 155 m 2,33,34
 170 125 170 125 183 115.5 c 128,-1,35
 196 106 196 106 221 106 c 128,-1,36
 246 106 246 106 276.5 116.5 c 128,-1,37
 307 127 307 127 324 137 c 2,38,-1
 342 148 l 1,39,-1
 342 245 l 1,40,-1
 213 235 l 2,41,42
 170 231 170 231 170 181 c 2,43,-1
 170 155 l 2,33,34
EndSplineSet
AlternateSubs2: "'salt' Stylistic Alternatives in Latin lookup 16 subtable" aacute.salt
Substitution2: "'smcp' Lowercase to Small Capitals lookup 1 subtable" aacute.smcp
EndChar

StartChar: acircumflex
Encoding: 226 226 163
Width: 519
GlyphClass: 2
Flags: W
LayerCount: 2
Fore
SplineSet
112 601 m 1,0,-1
 219 736 l 1,1,-1
 323 736 l 1,2,-1
 420 601 l 1,3,-1
 327 601 l 1,4,-1
 268 661 l 1,5,-1
 206 601 l 1,6,-1
 112 601 l 1,0,-1
48 506 m 1,7,8
 139 541 139 541 291 541 c 0,9,10
 383 541 383 541 432.5 502.5 c 128,-1,11
 482 464 482 464 482 370 c 2,12,-1
 482 0 l 1,13,-1
 371 0 l 1,14,-1
 342 58 l 1,15,16
 338 51 338 51 316.5 36.5 c 128,-1,17
 295 22 295 22 257 8 c 128,-1,18
 219 -6 219 -6 184 -6 c 0,19,20
 110 -6 110 -6 70 36.5 c 128,-1,21
 30 79 30 79 30 135 c 2,22,-1
 30 185 l 2,23,24
 30 249 30 249 68 290 c 128,-1,25
 106 331 106 331 185 331 c 128,-1,26
 264 331 264 331 303 331 c 128,-1,27
 342 331 342 331 342 331 c 1,28,29
 342 348 342 348 342 356.5 c 128,-1,30
 342 365 342 365 342 365 c 2,31,32
 342 405 342 405 325 417.5 c 128,-1,33
 308 430 308 430 257 430 c 128,-1,34
 206 430 206 430 48 419 c 1,35,-1
 48 506 l 1,7,8
170 155 m 2,36,37
 170 125 170 125 183 115.5 c 128,-1,38
 196 106 196 106 221 106 c 128,-1,39
 246 106 246 106 276.5 116.5 c 128,-1,40
 307 127 307 127 324 137 c 2,41,-1
 342 148 l 1,42,-1
 342 245 l 1,43,-1
 213 235 l 2,44,45
 170 231 170 231 170 181 c 2,46,-1
 170 155 l 2,36,37
EndSplineSet
AlternateSubs2: "'salt' Stylistic Alternatives in Latin lookup 16 subtable" acircumflex.salt
Substitution2: "'smcp' Lowercase to Small Capitals lookup 1 subtable" acircumflex.smcp
EndChar

StartChar: atilde
Encoding: 227 227 164
Width: 519
GlyphClass: 2
Flags: W
LayerCount: 2
Fore
SplineSet
323 691 m 0,0,1
 361 691 361 691 411 729 c 1,2,-1
 435 669 l 1,3,4
 373 601 373 601 323 601 c 0,5,6
 298 601 298 601 263 618.5 c 128,-1,7
 228 636 228 636 214.5 636 c 128,-1,8
 201 636 201 636 191 634.5 c 128,-1,9
 181 633 181 633 175 631.5 c 128,-1,10
 169 630 169 630 159.5 625.5 c 128,-1,11
 150 621 150 621 146.5 619 c 128,-1,12
 143 617 143 617 131.5 610 c 128,-1,13
 120 603 120 603 116 601 c 1,14,-1
 92 656 l 1,15,16
 155 726 155 726 212 726 c 1,17,18
 237 725 237 725 270 708 c 128,-1,19
 303 691 303 691 312 691 c 128,-1,20
 321 691 321 691 323 691 c 0,0,1
48 506 m 1,21,22
 139 541 139 541 291 541 c 0,23,24
 383 541 383 541 432.5 502.5 c 128,-1,25
 482 464 482 464 482 370 c 2,26,-1
 482 0 l 1,27,-1
 371 0 l 1,28,-1
 342 58 l 1,29,30
 338 51 338 51 316.5 36.5 c 128,-1,31
 295 22 295 22 257 8 c 128,-1,32
 219 -6 219 -6 184 -6 c 0,33,34
 110 -6 110 -6 70 36.5 c 128,-1,35
 30 79 30 79 30 135 c 2,36,-1
 30 185 l 2,37,38
 30 249 30 249 68 290 c 128,-1,39
 106 331 106 331 185 331 c 128,-1,40
 264 331 264 331 303 331 c 128,-1,41
 342 331 342 331 342 331 c 1,42,43
 342 348 342 348 342 356.5 c 128,-1,44
 342 365 342 365 342 365 c 2,45,46
 342 405 342 405 325 417.5 c 128,-1,47
 308 430 308 430 257 430 c 128,-1,48
 206 430 206 430 48 419 c 1,49,-1
 48 506 l 1,21,22
170 155 m 2,50,51
 170 125 170 125 183 115.5 c 128,-1,52
 196 106 196 106 221 106 c 128,-1,53
 246 106 246 106 276.5 116.5 c 128,-1,54
 307 127 307 127 324 137 c 2,55,-1
 342 148 l 1,56,-1
 342 245 l 1,57,-1
 213 235 l 2,58,59
 170 231 170 231 170 181 c 2,60,-1
 170 155 l 2,50,51
EndSplineSet
AlternateSubs2: "'salt' Stylistic Alternatives in Latin lookup 16 subtable" atilde.salt
Substitution2: "'smcp' Lowercase to Small Capitals lookup 1 subtable" atilde.smcp
EndChar

StartChar: adieresis
Encoding: 228 228 165
Width: 519
GlyphClass: 2
Flags: W
LayerCount: 2
Fore
SplineSet
79 660 m 128,-1,1
 79 684 79 684 96.5 701.5 c 128,-1,2
 114 719 114 719 138 719 c 128,-1,3
 162 719 162 719 179 702 c 128,-1,4
 196 685 196 685 196 660.5 c 128,-1,5
 196 636 196 636 179 618.5 c 128,-1,6
 162 601 162 601 138 601 c 128,-1,7
 114 601 114 601 96.5 618.5 c 128,-1,0
 79 636 79 636 79 660 c 128,-1,1
334 660 m 128,-1,9
 334 684 334 684 351.5 701.5 c 128,-1,10
 369 719 369 719 387 719 c 128,-1,11
 405 719 405 719 416 714 c 128,-1,12
 427 709 427 709 434 702 c 0,13,14
 451 685 451 685 451 660.5 c 128,-1,15
 451 636 451 636 434 618.5 c 128,-1,16
 417 601 417 601 393 601 c 128,-1,17
 369 601 369 601 351.5 618.5 c 128,-1,8
 334 636 334 636 334 660 c 128,-1,9
48 506 m 1,18,19
 139 541 139 541 291 541 c 0,20,21
 383 541 383 541 432.5 502.5 c 128,-1,22
 482 464 482 464 482 370 c 2,23,-1
 482 0 l 1,24,-1
 371 0 l 1,25,-1
 342 58 l 1,26,27
 338 51 338 51 316.5 36.5 c 128,-1,28
 295 22 295 22 257 8 c 128,-1,29
 219 -6 219 -6 184 -6 c 0,30,31
 110 -6 110 -6 70 36.5 c 128,-1,32
 30 79 30 79 30 135 c 2,33,-1
 30 185 l 2,34,35
 30 249 30 249 68 290 c 128,-1,36
 106 331 106 331 185 331 c 128,-1,37
 264 331 264 331 303 331 c 128,-1,38
 342 331 342 331 342 331 c 1,39,40
 342 348 342 348 342 356.5 c 128,-1,41
 342 365 342 365 342 365 c 2,42,43
 342 405 342 405 325 417.5 c 128,-1,44
 308 430 308 430 257 430 c 128,-1,45
 206 430 206 430 48 419 c 1,46,-1
 48 506 l 1,18,19
170 155 m 2,47,48
 170 125 170 125 183 115.5 c 128,-1,49
 196 106 196 106 221 106 c 128,-1,50
 246 106 246 106 276.5 116.5 c 128,-1,51
 307 127 307 127 324 137 c 2,52,-1
 342 148 l 1,53,-1
 342 245 l 1,54,-1
 213 235 l 2,55,56
 170 231 170 231 170 181 c 2,57,-1
 170 155 l 2,47,48
EndSplineSet
AlternateSubs2: "'salt' Stylistic Alternatives in Latin lookup 16 subtable" adieresis.salt
Substitution2: "'smcp' Lowercase to Small Capitals lookup 1 subtable" adieresis.smcp
EndChar

StartChar: aring
Encoding: 229 229 166
Width: 519
GlyphClass: 2
Flags: W
LayerCount: 2
Fore
SplineSet
173 650 m 128,-1,1
 165 669 165 669 165 693.5 c 128,-1,2
 165 718 165 718 179 741.5 c 128,-1,3
 193 765 193 765 216.5 778.5 c 128,-1,4
 240 792 240 792 267.5 792 c 128,-1,5
 295 792 295 792 318 778.5 c 128,-1,6
 341 765 341 765 354.5 741.5 c 128,-1,7
 368 718 368 718 368 689.5 c 128,-1,8
 368 661 368 661 354.5 638 c 128,-1,9
 341 615 341 615 318 601.5 c 128,-1,10
 295 588 295 588 270.5 588 c 128,-1,11
 246 588 246 588 227.5 595.5 c 128,-1,12
 209 603 209 603 195 617 c 128,-1,0
 181 631 181 631 173 650 c 128,-1,1
236.5 720 m 128,-1,14
 224 707 224 707 224 694.5 c 128,-1,15
 224 682 224 682 226 675.5 c 128,-1,16
 228 669 228 669 232 664 c 128,-1,17
 236 659 236 659 241 655 c 0,18,19
 253 647 253 647 269 647 c 128,-1,20
 285 647 285 647 297.5 659.5 c 128,-1,21
 310 672 310 672 310 690 c 128,-1,22
 310 708 310 708 297.5 720.5 c 128,-1,23
 285 733 285 733 267 733 c 128,-1,13
 249 733 249 733 236.5 720 c 128,-1,14
48 506 m 1,24,25
 139 541 139 541 291 541 c 0,26,27
 383 541 383 541 432.5 502.5 c 128,-1,28
 482 464 482 464 482 370 c 2,29,-1
 482 0 l 1,30,-1
 371 0 l 1,31,-1
 342 58 l 1,32,33
 338 51 338 51 316.5 36.5 c 128,-1,34
 295 22 295 22 257 8 c 128,-1,35
 219 -6 219 -6 184 -6 c 0,36,37
 110 -6 110 -6 70 36.5 c 128,-1,38
 30 79 30 79 30 135 c 2,39,-1
 30 185 l 2,40,41
 30 249 30 249 68 290 c 128,-1,42
 106 331 106 331 185 331 c 128,-1,43
 264 331 264 331 303 331 c 128,-1,44
 342 331 342 331 342 331 c 1,45,46
 342 348 342 348 342 356.5 c 128,-1,47
 342 365 342 365 342 365 c 2,48,49
 342 405 342 405 325 417.5 c 128,-1,50
 308 430 308 430 257 430 c 128,-1,51
 206 430 206 430 48 419 c 1,52,-1
 48 506 l 1,24,25
170 155 m 2,53,54
 170 125 170 125 183 115.5 c 128,-1,55
 196 106 196 106 221 106 c 128,-1,56
 246 106 246 106 276.5 116.5 c 128,-1,57
 307 127 307 127 324 137 c 2,58,-1
 342 148 l 1,59,-1
 342 245 l 1,60,-1
 213 235 l 2,61,62
 170 231 170 231 170 181 c 2,63,-1
 170 155 l 2,53,54
EndSplineSet
AlternateSubs2: "'salt' Stylistic Alternatives in Latin lookup 16 subtable" aring.salt
Substitution2: "'smcp' Lowercase to Small Capitals lookup 1 subtable" aring.smcp
EndChar

StartChar: ae
Encoding: 230 230 167
Width: 842
GlyphClass: 2
Flags: W
LayerCount: 2
Fore
SplineSet
30 138 m 2,0,-1
 30 173 l 2,1,2
 30 234 30 234 65 275 c 0,3,4
 103 319 103 319 183.5 318.5 c 128,-1,5
 264 318 264 318 303 318 c 128,-1,6
 342 318 342 318 342 319 c 0,7,8
 342 343 342 343 342 355 c 128,-1,9
 342 367 342 367 342 368 c 0,10,11
 342 407 342 407 325 420 c 128,-1,12
 308 433 308 433 263.5 433 c 128,-1,13
 219 433 219 433 48 421 c 1,14,-1
 48 508 l 1,15,16
 132 543 132 543 290 544 c 1,17,18
 388 543 388 543 429 501 c 1,19,20
 458 523 458 523 494.5 530.5 c 128,-1,21
 531 538 531 538 584.5 538 c 128,-1,22
 638 538 638 538 670.5 534.5 c 128,-1,23
 703 531 703 531 732.5 520 c 128,-1,24
 762 509 762 509 778 488 c 0,25,26
 813 444 813 444 813 351 c 0,27,28
 813 282 813 282 776 252.5 c 128,-1,29
 739 223 739 223 664 223 c 2,30,-1
 496 223 l 1,31,32
 496 155 496 155 521.5 132.5 c 128,-1,33
 547 110 547 110 608 110 c 0,34,35
 731 110 731 110 803 120 c 1,36,-1
 803 26 l 1,37,38
 768 13 768 13 714 6 c 0,39,40
 645 -2 645 -2 531 -2 c 0,41,42
 476 -2 476 -2 443.5 15 c 128,-1,43
 411 32 411 32 386 67 c 1,44,45
 377 48 377 48 306.5 22.5 c 128,-1,46
 236 -3 236 -3 183 -3 c 0,47,48
 110 -3 110 -3 70 39.5 c 128,-1,49
 30 82 30 82 30 138 c 2,0,-1
170 155 m 2,50,51
 170 123 170 123 186 115 c 0,52,53
 198 109 198 109 222 109 c 128,-1,54
 246 109 246 109 276.5 119.5 c 128,-1,55
 307 130 307 130 324 140 c 2,56,-1
 342 150 l 1,57,-1
 342 235 l 1,58,-1
 213 225 l 2,59,60
 170 221 170 221 170 171 c 2,61,-1
 170 155 l 2,50,51
595 431 m 2,62,-1
 590 431 l 2,63,64
 544 431 544 431 537 427.5 c 128,-1,65
 530 424 530 424 522.5 420.5 c 128,-1,66
 515 417 515 417 512 411.5 c 128,-1,67
 509 406 509 406 505 397 c 0,68,69
 496 380 496 380 496 324 c 0,70,71
 496 321 496 321 496 318 c 1,72,-1
 628 318 l 2,73,74
 673 318 673 318 673 358 c 0,75,76
 673 407 673 407 660 419 c 128,-1,77
 647 431 647 431 595 431 c 2,62,-1
EndSplineSet
Substitution2: "'smcp' Lowercase to Small Capitals lookup 1 subtable" ae.smcp
EndChar

StartChar: ccedilla
Encoding: 231 231 168
Width: 494
GlyphClass: 2
Flags: W
LayerCount: 2
Fore
SplineSet
38 266 m 0,0,1
 38 346 38 346 50.5 400.5 c 128,-1,2
 63 455 63 455 87.5 484 c 128,-1,3
 112 513 112 513 142 525 c 128,-1,4
 172 537 172 537 213 537 c 0,5,6
 357 537 357 537 457 504 c 1,7,-1
 457 418 l 1,8,9
 362 424 362 424 306 424 c 128,-1,10
 250 424 250 424 238 422.5 c 128,-1,11
 226 421 226 421 212 413 c 128,-1,12
 198 405 198 405 192 387 c 0,13,14
 178 347 178 347 178 271 c 128,-1,15
 178 195 178 195 187.5 161.5 c 128,-1,16
 197 128 197 128 215.5 117.5 c 128,-1,17
 234 107 234 107 274 107 c 0,18,19
 355 107 355 107 437 114 c 2,20,-1
 464 116 l 1,21,-1
 464 28 l 1,22,23
 418 4 418 4 374 0 c 0,24,25
 309 -6 309 -6 261 -6 c 2,26,-1
 255 -6 l 2,27,28
 217 -6 217 -6 213 -6 c 0,29,30
 134 -6 134 -6 89 47 c 0,31,32
 38 107 38 107 38 266 c 0,0,1
232 -38 m 1,33,-1
 326 -38 l 1,34,35
 326 -116 326 -116 302 -147.5 c 128,-1,36
 278 -179 278 -179 214 -179 c 2,37,-1
 158 -179 l 1,38,-1
 158 -119 l 1,39,-1
 202 -104 l 1,40,41
 222 -96 222 -96 227 -82.5 c 128,-1,42
 232 -69 232 -69 232 -38 c 1,33,-1
EndSplineSet
Substitution2: "'smcp' Lowercase to Small Capitals lookup 1 subtable" ccedilla.smcp
EndChar

StartChar: egrave
Encoding: 232 232 169
Width: 525
GlyphClass: 2
Flags: W
LayerCount: 2
Fore
SplineSet
106 734 m 1,0,-1
 229 734 l 1,1,-1
 319 596 l 1,2,-1
 228 596 l 1,3,-1
 106 734 l 1,0,-1
181 529 m 0,4,5
 216 535 216 535 261 535 c 128,-1,6
 306 535 306 535 331 533.5 c 128,-1,7
 356 532 356 532 381.5 527.5 c 128,-1,8
 407 523 407 523 423 514.5 c 128,-1,9
 439 506 439 506 454 491.5 c 128,-1,10
 469 477 469 477 477 457 c 0,11,12
 495 412 495 412 495 353.5 c 128,-1,13
 495 295 495 295 478 265 c 0,14,15
 445 208 445 208 347 208 c 2,16,-1
 178 208 l 1,17,18
 178 173 178 173 184 152 c 128,-1,19
 190 131 190 131 206 121.5 c 128,-1,20
 222 112 222 112 239.5 109.5 c 128,-1,21
 257 107 257 107 335 107 c 128,-1,22
 413 107 413 107 485 118 c 1,23,-1
 485 23 l 1,24,25
 440 6 440 6 394.5 2 c 128,-1,26
 349 -2 349 -2 332 -3 c 128,-1,27
 315 -4 315 -4 290 -4 c 0,28,29
 257 -5 257 -5 213 -5 c 0,30,31
 114 -5 114 -5 76 57 c 128,-1,32
 38 119 38 119 38 258.5 c 128,-1,33
 38 398 38 398 68.5 456.5 c 128,-1,34
 99 515 99 515 181 529 c 0,4,5
311 309 m 2,35,36
 355 309 355 309 355 349 c 0,37,38
 355 399 355 399 341.5 413.5 c 128,-1,39
 328 428 328 428 287 428 c 128,-1,40
 246 428 246 428 230.5 425.5 c 128,-1,41
 215 423 215 423 200.5 411.5 c 128,-1,42
 186 400 186 400 182 377 c 128,-1,43
 178 354 178 354 178 333.5 c 128,-1,44
 178 313 178 313 178 309 c 1,45,-1
 311 309 l 2,35,36
EndSplineSet
Substitution2: "'smcp' Lowercase to Small Capitals lookup 1 subtable" egrave.smcp
EndChar

StartChar: eacute
Encoding: 233 233 170
Width: 525
GlyphClass: 2
Flags: W
LayerCount: 2
Fore
SplineSet
224 596 m 1,0,-1
 314 734 l 1,1,-1
 437 734 l 1,2,-1
 315 596 l 1,3,-1
 224 596 l 1,0,-1
181 529 m 0,4,5
 216 535 216 535 261 535 c 128,-1,6
 306 535 306 535 331 533.5 c 128,-1,7
 356 532 356 532 381.5 527.5 c 128,-1,8
 407 523 407 523 423 514.5 c 128,-1,9
 439 506 439 506 454 491.5 c 128,-1,10
 469 477 469 477 477 457 c 0,11,12
 495 412 495 412 495 353.5 c 128,-1,13
 495 295 495 295 478 265 c 0,14,15
 445 208 445 208 347 208 c 2,16,-1
 178 208 l 1,17,18
 178 173 178 173 184 152 c 128,-1,19
 190 131 190 131 206 121.5 c 128,-1,20
 222 112 222 112 239.5 109.5 c 128,-1,21
 257 107 257 107 335 107 c 128,-1,22
 413 107 413 107 485 118 c 1,23,-1
 485 23 l 1,24,25
 440 6 440 6 394.5 2 c 128,-1,26
 349 -2 349 -2 332 -3 c 128,-1,27
 315 -4 315 -4 290 -4 c 0,28,29
 257 -5 257 -5 213 -5 c 0,30,31
 114 -5 114 -5 76 57 c 128,-1,32
 38 119 38 119 38 258.5 c 128,-1,33
 38 398 38 398 68.5 456.5 c 128,-1,34
 99 515 99 515 181 529 c 0,4,5
311 309 m 2,35,36
 355 309 355 309 355 349 c 0,37,38
 355 399 355 399 341.5 413.5 c 128,-1,39
 328 428 328 428 287 428 c 128,-1,40
 246 428 246 428 230.5 425.5 c 128,-1,41
 215 423 215 423 200.5 411.5 c 128,-1,42
 186 400 186 400 182 377 c 128,-1,43
 178 354 178 354 178 333.5 c 128,-1,44
 178 313 178 313 178 309 c 1,45,-1
 311 309 l 2,35,36
EndSplineSet
Substitution2: "'smcp' Lowercase to Small Capitals lookup 1 subtable" eacute.smcp
EndChar

StartChar: ecircumflex
Encoding: 234 234 171
Width: 525
GlyphClass: 2
Flags: W
LayerCount: 2
Fore
SplineSet
112 596 m 1,0,-1
 220 732 l 1,1,-1
 324 732 l 1,2,-1
 421 596 l 1,3,-1
 328 596 l 1,4,-1
 269 656 l 1,5,-1
 206 596 l 1,6,-1
 112 596 l 1,0,-1
181 529 m 0,7,8
 216 535 216 535 261 535 c 128,-1,9
 306 535 306 535 331 533.5 c 128,-1,10
 356 532 356 532 381.5 527.5 c 128,-1,11
 407 523 407 523 423 514.5 c 128,-1,12
 439 506 439 506 454 491.5 c 128,-1,13
 469 477 469 477 477 457 c 0,14,15
 495 412 495 412 495 353.5 c 128,-1,16
 495 295 495 295 478 265 c 0,17,18
 445 208 445 208 347 208 c 2,19,-1
 178 208 l 1,20,21
 178 173 178 173 184 152 c 128,-1,22
 190 131 190 131 206 121.5 c 128,-1,23
 222 112 222 112 239.5 109.5 c 128,-1,24
 257 107 257 107 335 107 c 128,-1,25
 413 107 413 107 485 118 c 1,26,-1
 485 23 l 1,27,28
 440 6 440 6 394.5 2 c 128,-1,29
 349 -2 349 -2 332 -3 c 128,-1,30
 315 -4 315 -4 290 -4 c 0,31,32
 257 -5 257 -5 213 -5 c 0,33,34
 114 -5 114 -5 76 57 c 128,-1,35
 38 119 38 119 38 258.5 c 128,-1,36
 38 398 38 398 68.5 456.5 c 128,-1,37
 99 515 99 515 181 529 c 0,7,8
311 309 m 2,38,39
 355 309 355 309 355 349 c 0,40,41
 355 399 355 399 341.5 413.5 c 128,-1,42
 328 428 328 428 287 428 c 128,-1,43
 246 428 246 428 230.5 425.5 c 128,-1,44
 215 423 215 423 200.5 411.5 c 128,-1,45
 186 400 186 400 182 377 c 128,-1,46
 178 354 178 354 178 333.5 c 128,-1,47
 178 313 178 313 178 309 c 1,48,-1
 311 309 l 2,38,39
EndSplineSet
Substitution2: "'smcp' Lowercase to Small Capitals lookup 1 subtable" ecircumflex.smcp
EndChar

StartChar: edieresis
Encoding: 235 235 172
Width: 525
GlyphClass: 2
Flags: W
LayerCount: 2
Fore
SplineSet
79 655 m 128,-1,1
 79 679 79 679 96.5 696.5 c 128,-1,2
 114 714 114 714 138 714 c 128,-1,3
 162 714 162 714 179 697 c 128,-1,4
 196 680 196 680 196 655.5 c 128,-1,5
 196 631 196 631 179 613.5 c 128,-1,6
 162 596 162 596 138 596 c 128,-1,7
 114 596 114 596 96.5 613.5 c 128,-1,0
 79 631 79 631 79 655 c 128,-1,1
334 655 m 128,-1,9
 334 679 334 679 351.5 696.5 c 128,-1,10
 369 714 369 714 387 714 c 128,-1,11
 405 714 405 714 415.5 709 c 128,-1,12
 426 704 426 704 434 697 c 0,13,14
 451 680 451 680 451 655.5 c 128,-1,15
 451 631 451 631 434 613.5 c 128,-1,16
 417 596 417 596 393 596 c 128,-1,17
 369 596 369 596 351.5 613.5 c 128,-1,8
 334 631 334 631 334 655 c 128,-1,9
181 529 m 0,18,19
 216 535 216 535 261 535 c 128,-1,20
 306 535 306 535 331 533.5 c 128,-1,21
 356 532 356 532 381.5 527.5 c 128,-1,22
 407 523 407 523 423 514.5 c 128,-1,23
 439 506 439 506 454 491.5 c 128,-1,24
 469 477 469 477 477 457 c 0,25,26
 495 412 495 412 495 353.5 c 128,-1,27
 495 295 495 295 478 265 c 0,28,29
 445 208 445 208 347 208 c 2,30,-1
 178 208 l 1,31,32
 178 173 178 173 184 152 c 128,-1,33
 190 131 190 131 206 121.5 c 128,-1,34
 222 112 222 112 239.5 109.5 c 128,-1,35
 257 107 257 107 335 107 c 128,-1,36
 413 107 413 107 485 118 c 1,37,-1
 485 23 l 1,38,39
 440 6 440 6 394.5 2 c 128,-1,40
 349 -2 349 -2 332 -3 c 128,-1,41
 315 -4 315 -4 290 -4 c 0,42,43
 257 -5 257 -5 213 -5 c 0,44,45
 114 -5 114 -5 76 57 c 128,-1,46
 38 119 38 119 38 258.5 c 128,-1,47
 38 398 38 398 68.5 456.5 c 128,-1,48
 99 515 99 515 181 529 c 0,18,19
311 309 m 2,49,50
 355 309 355 309 355 349 c 0,51,52
 355 399 355 399 341.5 413.5 c 128,-1,53
 328 428 328 428 287 428 c 128,-1,54
 246 428 246 428 230.5 425.5 c 128,-1,55
 215 423 215 423 200.5 411.5 c 128,-1,56
 186 400 186 400 182 377 c 128,-1,57
 178 354 178 354 178 333.5 c 128,-1,58
 178 313 178 313 178 309 c 1,59,-1
 311 309 l 2,49,50
EndSplineSet
Substitution2: "'smcp' Lowercase to Small Capitals lookup 1 subtable" edieresis.smcp
EndChar

StartChar: igrave
Encoding: 236 236 173
Width: 230
GlyphClass: 2
Flags: W
LayerCount: 2
Fore
SplineSet
-52 734 m 1,0,-1
 71 734 l 1,1,-1
 161 596 l 1,2,-1
 70 596 l 1,3,-1
 -52 734 l 1,0,-1
46 0 m 1,4,-1
 46 531 l 1,5,-1
 186 531 l 1,6,-1
 186 0 l 1,7,-1
 46 0 l 1,4,-1
EndSplineSet
Substitution2: "'smcp' Lowercase to Small Capitals lookup 1 subtable" igrave.smcp
EndChar

StartChar: iacute
Encoding: 237 237 174
Width: 230
GlyphClass: 2
Flags: W
LayerCount: 2
Fore
SplineSet
70 596 m 1,0,-1
 161 734 l 1,1,-1
 283 734 l 1,2,-1
 161 596 l 1,3,-1
 70 596 l 1,0,-1
46 0 m 1,4,-1
 46 531 l 1,5,-1
 186 531 l 1,6,-1
 186 0 l 1,7,-1
 46 0 l 1,4,-1
EndSplineSet
Substitution2: "'smcp' Lowercase to Small Capitals lookup 1 subtable" iacute.smcp
EndChar

StartChar: icircumflex
Encoding: 238 238 175
Width: 230
GlyphClass: 2
Flags: W
LayerCount: 2
Fore
SplineSet
-39 596 m 1,0,-1
 69 732 l 1,1,-1
 173 732 l 1,2,-1
 270 596 l 1,3,-1
 177 596 l 1,4,-1
 118 656 l 1,5,-1
 55 596 l 1,6,-1
 -39 596 l 1,0,-1
46 0 m 1,7,-1
 46 531 l 1,8,-1
 186 531 l 1,9,-1
 186 0 l 1,10,-1
 46 0 l 1,7,-1
EndSplineSet
Substitution2: "'smcp' Lowercase to Small Capitals lookup 1 subtable" icircumflex.smcp
EndChar

StartChar: idieresis
Encoding: 239 239 176
Width: 230
GlyphClass: 2
Flags: W
LayerCount: 2
Fore
SplineSet
-71 655 m 128,-1,1
 -71 679 -71 679 -53.5 696.5 c 128,-1,2
 -36 714 -36 714 -11.5 714 c 128,-1,3
 13 714 13 714 30 697 c 128,-1,4
 47 680 47 680 47 655.5 c 128,-1,5
 47 631 47 631 30 613.5 c 128,-1,6
 13 596 13 596 -11.5 596 c 128,-1,7
 -36 596 -36 596 -53.5 613.5 c 128,-1,0
 -71 631 -71 631 -71 655 c 128,-1,1
184 655 m 128,-1,9
 184 679 184 679 201.5 696.5 c 128,-1,10
 219 714 219 714 243.5 714 c 128,-1,11
 268 714 268 714 285 697 c 128,-1,12
 302 680 302 680 302 655.5 c 128,-1,13
 302 631 302 631 285 613.5 c 128,-1,14
 268 596 268 596 243.5 596 c 128,-1,15
 219 596 219 596 201.5 613.5 c 128,-1,8
 184 631 184 631 184 655 c 128,-1,9
46 0 m 1,16,-1
 46 531 l 1,17,-1
 186 531 l 1,18,-1
 186 0 l 1,19,-1
 46 0 l 1,16,-1
EndSplineSet
Substitution2: "'smcp' Lowercase to Small Capitals lookup 1 subtable" idieresis.smcp
EndChar

StartChar: eth
Encoding: 240 240 177
Width: 540
GlyphClass: 2
Flags: W
LayerCount: 2
Fore
SplineSet
73 63.5 m 128,-1,1
 30 127 30 127 30 261.5 c 128,-1,2
 30 396 30 396 74.5 463.5 c 128,-1,3
 119 531 119 531 217 531 c 2,4,-1
 273 531 l 2,5,6
 331 531 331 531 348 521 c 1,7,8
 330 582 330 582 291 618 c 1,9,-1
 177 565 l 1,10,-1
 149 622 l 1,11,-1
 221 655 l 1,12,13
 183 669 183 669 118 669 c 0,14,15
 107 669 107 669 95 668 c 1,16,-1
 95 783 l 1,17,18
 261 783 261 783 351 723 c 1,19,-1
 444 766 l 1,20,-1
 473 708 l 1,21,-1
 405 677 l 1,22,23
 470 604 470 604 492 486 c 0,24,25
 510 387 510 387 510 264 c 0,26,27
 510 0 510 0 322 0 c 2,28,-1
 217 0 l 2,29,0
 116 0 116 0 73 63.5 c 128,-1,1
178 351.5 m 128,-1,31
 170 321 170 321 170 263 c 128,-1,32
 170 205 170 205 178 176 c 128,-1,33
 186 147 186 147 199.5 139 c 128,-1,34
 213 131 213 131 240 131 c 2,35,-1
 300 131 l 2,36,37
 344 131 344 131 357 159 c 128,-1,38
 370 187 370 187 370 269 c 128,-1,39
 370 351 370 351 357.5 376.5 c 128,-1,40
 345 402 345 402 300 402 c 2,41,-1
 240 402 l 2,42,43
 214 402 214 402 200 392 c 128,-1,30
 186 382 186 382 178 351.5 c 128,-1,31
EndSplineSet
Substitution2: "'smcp' Lowercase to Small Capitals lookup 1 subtable" eth.smcp
EndChar

StartChar: ntilde
Encoding: 241 241 178
Width: 550
GlyphClass: 2
Flags: W
LayerCount: 2
Fore
SplineSet
338 690 m 0,0,1
 377 690 377 690 427 728 c 1,2,-1
 451 668 l 1,3,4
 389 600 389 600 339 600 c 0,5,6
 314 600 314 600 279 617.5 c 128,-1,7
 244 635 244 635 230 635 c 128,-1,8
 216 635 216 635 206.5 633.5 c 128,-1,9
 197 632 197 632 191 630.5 c 128,-1,10
 185 629 185 629 175.5 624.5 c 128,-1,11
 166 620 166 620 162.5 618 c 128,-1,12
 159 616 159 616 147.5 609 c 128,-1,13
 136 602 136 602 132 600 c 1,14,-1
 107 655 l 1,15,16
 171 725 171 725 228 725 c 1,17,18
 253 724 253 724 286 707 c 128,-1,19
 319 690 319 690 327.5 690 c 128,-1,20
 336 690 336 690 338 690 c 0,0,1
46 0 m 1,21,-1
 46 531 l 1,22,-1
 158 531 l 1,23,-1
 186 474 l 1,24,25
 259 527 259 527 302 535 c 0,26,27
 325 540 325 540 354 540 c 0,28,29
 513 540 513 540 513 354 c 2,30,-1
 513 0 l 1,31,-1
 373 0 l 1,32,-1
 373 356 l 2,33,34
 373 428 373 428 314 428 c 0,35,36
 274 428 274 428 246 417.5 c 128,-1,37
 218 407 218 407 186 382 c 1,38,-1
 186 0 l 1,39,-1
 46 0 l 1,21,-1
EndSplineSet
AlternateSubs2: "'salt' Stylistic Alternatives in Latin lookup 16 subtable" ntilde.salt
Substitution2: "'smcp' Lowercase to Small Capitals lookup 1 subtable" ntilde.smcp
EndChar

StartChar: ograve
Encoding: 242 242 179
Width: 560
GlyphClass: 2
Flags: W
LayerCount: 2
Fore
SplineSet
117 734 m 1,0,-1
 240 734 l 1,1,-1
 330 596 l 1,2,-1
 239 596 l 1,3,-1
 117 734 l 1,0,-1
38 255 m 0,4,5
 38 324 38 324 46 370.5 c 128,-1,6
 54 417 54 417 71 449.5 c 128,-1,7
 88 482 88 482 118 501 c 0,8,9
 173 536 173 536 280 536 c 0,10,11
 417 536 417 536 469.5 476 c 128,-1,12
 522 416 522 416 522 262.5 c 128,-1,13
 522 109 522 109 470.5 52 c 128,-1,14
 419 -5 419 -5 280 -5 c 0,15,16
 144 -5 144 -5 90 56 c 0,17,18
 38 115 38 115 38 255 c 0,4,5
182 346.5 m 128,-1,20
 178 315 178 315 178 261 c 128,-1,21
 178 207 178 207 183 177 c 128,-1,22
 188 147 188 147 201.5 131.5 c 128,-1,23
 215 116 215 116 232 112 c 128,-1,24
 249 108 249 108 278 108 c 128,-1,25
 307 108 307 108 321.5 110 c 128,-1,26
 336 112 336 112 349.5 120 c 128,-1,27
 363 128 363 128 369 145 c 0,28,29
 382 181 382 181 382 238.5 c 128,-1,30
 382 296 382 296 380.5 322 c 128,-1,31
 379 348 379 348 374 367 c 128,-1,32
 369 386 369 386 362.5 396.5 c 128,-1,33
 356 407 356 407 344 414 c 0,34,35
 324 424 324 424 285 424 c 128,-1,36
 246 424 246 424 228.5 419 c 128,-1,37
 211 414 211 414 198.5 396 c 128,-1,19
 186 378 186 378 182 346.5 c 128,-1,20
EndSplineSet
Substitution2: "'smcp' Lowercase to Small Capitals lookup 1 subtable" ograve.smcp
EndChar

StartChar: oacute
Encoding: 243 243 180
Width: 560
GlyphClass: 2
Flags: W
LayerCount: 2
Fore
SplineSet
235 596 m 1,0,-1
 325 734 l 1,1,-1
 448 734 l 1,2,-1
 326 596 l 1,3,-1
 235 596 l 1,0,-1
38 255 m 0,4,5
 38 324 38 324 46 370.5 c 128,-1,6
 54 417 54 417 71 449.5 c 128,-1,7
 88 482 88 482 118 501 c 0,8,9
 173 536 173 536 280 536 c 0,10,11
 417 536 417 536 469.5 476 c 128,-1,12
 522 416 522 416 522 262.5 c 128,-1,13
 522 109 522 109 470.5 52 c 128,-1,14
 419 -5 419 -5 280 -5 c 0,15,16
 144 -5 144 -5 90 56 c 0,17,18
 38 115 38 115 38 255 c 0,4,5
182 346.5 m 128,-1,20
 178 315 178 315 178 261 c 128,-1,21
 178 207 178 207 183 177 c 128,-1,22
 188 147 188 147 201.5 131.5 c 128,-1,23
 215 116 215 116 232 112 c 128,-1,24
 249 108 249 108 278 108 c 128,-1,25
 307 108 307 108 321.5 110 c 128,-1,26
 336 112 336 112 349.5 120 c 128,-1,27
 363 128 363 128 369 145 c 0,28,29
 382 181 382 181 382 238.5 c 128,-1,30
 382 296 382 296 380.5 322 c 128,-1,31
 379 348 379 348 374 367 c 128,-1,32
 369 386 369 386 362.5 396.5 c 128,-1,33
 356 407 356 407 344 414 c 0,34,35
 324 424 324 424 285 424 c 128,-1,36
 246 424 246 424 228.5 419 c 128,-1,37
 211 414 211 414 198.5 396 c 128,-1,19
 186 378 186 378 182 346.5 c 128,-1,20
EndSplineSet
Substitution2: "'smcp' Lowercase to Small Capitals lookup 1 subtable" oacute.smcp
EndChar

StartChar: ocircumflex
Encoding: 244 244 181
Width: 560
GlyphClass: 2
Flags: W
LayerCount: 2
Fore
SplineSet
128 596 m 1,0,-1
 236 732 l 1,1,-1
 340 732 l 1,2,-1
 437 596 l 1,3,-1
 344 596 l 1,4,-1
 285 656 l 1,5,-1
 222 596 l 1,6,-1
 128 596 l 1,0,-1
38 255 m 0,7,8
 38 324 38 324 46 370.5 c 128,-1,9
 54 417 54 417 71 449.5 c 128,-1,10
 88 482 88 482 118 501 c 0,11,12
 173 536 173 536 280 536 c 0,13,14
 417 536 417 536 469.5 476 c 128,-1,15
 522 416 522 416 522 262.5 c 128,-1,16
 522 109 522 109 470.5 52 c 128,-1,17
 419 -5 419 -5 280 -5 c 0,18,19
 144 -5 144 -5 90 56 c 0,20,21
 38 115 38 115 38 255 c 0,7,8
182 346.5 m 128,-1,23
 178 315 178 315 178 261 c 128,-1,24
 178 207 178 207 183 177 c 128,-1,25
 188 147 188 147 201.5 131.5 c 128,-1,26
 215 116 215 116 232 112 c 128,-1,27
 249 108 249 108 278 108 c 128,-1,28
 307 108 307 108 321.5 110 c 128,-1,29
 336 112 336 112 349.5 120 c 128,-1,30
 363 128 363 128 369 145 c 0,31,32
 382 181 382 181 382 238.5 c 128,-1,33
 382 296 382 296 380.5 322 c 128,-1,34
 379 348 379 348 374 367 c 128,-1,35
 369 386 369 386 362.5 396.5 c 128,-1,36
 356 407 356 407 344 414 c 0,37,38
 324 424 324 424 285 424 c 128,-1,39
 246 424 246 424 228.5 419 c 128,-1,40
 211 414 211 414 198.5 396 c 128,-1,22
 186 378 186 378 182 346.5 c 128,-1,23
EndSplineSet
Substitution2: "'smcp' Lowercase to Small Capitals lookup 1 subtable" ocircumflex.smcp
EndChar

StartChar: otilde
Encoding: 245 245 182
Width: 560
GlyphClass: 2
Flags: W
LayerCount: 2
Fore
SplineSet
343 686 m 0,0,1
 382 686 382 686 432 724 c 1,2,-1
 456 664 l 1,3,4
 394 596 394 596 344 596 c 0,5,6
 319 596 319 596 284 613.5 c 128,-1,7
 249 631 249 631 235 631 c 128,-1,8
 221 631 221 631 211.5 629.5 c 128,-1,9
 202 628 202 628 196 626.5 c 128,-1,10
 190 625 190 625 180.5 620.5 c 128,-1,11
 171 616 171 616 167.5 614 c 128,-1,12
 164 612 164 612 152.5 605 c 128,-1,13
 141 598 141 598 137 596 c 1,14,-1
 112 651 l 1,15,16
 176 721 176 721 233 721 c 1,17,18
 258 720 258 720 291 703 c 128,-1,19
 324 686 324 686 332.5 686 c 128,-1,20
 341 686 341 686 343 686 c 0,0,1
38 255 m 0,21,22
 38 324 38 324 46 370.5 c 128,-1,23
 54 417 54 417 71 449.5 c 128,-1,24
 88 482 88 482 118 501 c 0,25,26
 173 536 173 536 280 536 c 0,27,28
 417 536 417 536 469.5 476 c 128,-1,29
 522 416 522 416 522 262.5 c 128,-1,30
 522 109 522 109 470.5 52 c 128,-1,31
 419 -5 419 -5 280 -5 c 0,32,33
 144 -5 144 -5 90 56 c 0,34,35
 38 115 38 115 38 255 c 0,21,22
182 346.5 m 128,-1,37
 178 315 178 315 178 261 c 128,-1,38
 178 207 178 207 183 177 c 128,-1,39
 188 147 188 147 201.5 131.5 c 128,-1,40
 215 116 215 116 232 112 c 128,-1,41
 249 108 249 108 278 108 c 128,-1,42
 307 108 307 108 321.5 110 c 128,-1,43
 336 112 336 112 349.5 120 c 128,-1,44
 363 128 363 128 369 145 c 0,45,46
 382 181 382 181 382 238.5 c 128,-1,47
 382 296 382 296 380.5 322 c 128,-1,48
 379 348 379 348 374 367 c 128,-1,49
 369 386 369 386 362.5 396.5 c 128,-1,50
 356 407 356 407 344 414 c 0,51,52
 324 424 324 424 285 424 c 128,-1,53
 246 424 246 424 228.5 419 c 128,-1,54
 211 414 211 414 198.5 396 c 128,-1,36
 186 378 186 378 182 346.5 c 128,-1,37
EndSplineSet
Substitution2: "'smcp' Lowercase to Small Capitals lookup 1 subtable" otilde.smcp
EndChar

StartChar: odieresis
Encoding: 246 246 183
Width: 560
GlyphClass: 2
Flags: W
LayerCount: 2
Fore
SplineSet
94 655 m 128,-1,1
 94 679 94 679 111.5 696.5 c 128,-1,2
 129 714 129 714 153.5 714 c 128,-1,3
 178 714 178 714 195 697 c 128,-1,4
 212 680 212 680 212 655.5 c 128,-1,5
 212 631 212 631 195 613.5 c 128,-1,6
 178 596 178 596 153.5 596 c 128,-1,7
 129 596 129 596 111.5 613.5 c 128,-1,0
 94 631 94 631 94 655 c 128,-1,1
349 655 m 128,-1,9
 349 679 349 679 366.5 696.5 c 128,-1,10
 384 714 384 714 408.5 714 c 128,-1,11
 433 714 433 714 450 697 c 128,-1,12
 467 680 467 680 467 655.5 c 128,-1,13
 467 631 467 631 450 613.5 c 128,-1,14
 433 596 433 596 408.5 596 c 128,-1,15
 384 596 384 596 366.5 613.5 c 128,-1,8
 349 631 349 631 349 655 c 128,-1,9
38 255 m 0,16,17
 38 324 38 324 46 370.5 c 128,-1,18
 54 417 54 417 71 449.5 c 128,-1,19
 88 482 88 482 118 501 c 0,20,21
 173 536 173 536 280 536 c 0,22,23
 417 536 417 536 469.5 476 c 128,-1,24
 522 416 522 416 522 262.5 c 128,-1,25
 522 109 522 109 470.5 52 c 128,-1,26
 419 -5 419 -5 280 -5 c 0,27,28
 144 -5 144 -5 90 56 c 0,29,30
 38 115 38 115 38 255 c 0,16,17
182 346.5 m 128,-1,32
 178 315 178 315 178 261 c 128,-1,33
 178 207 178 207 183 177 c 128,-1,34
 188 147 188 147 201.5 131.5 c 128,-1,35
 215 116 215 116 232 112 c 128,-1,36
 249 108 249 108 278 108 c 128,-1,37
 307 108 307 108 321.5 110 c 128,-1,38
 336 112 336 112 349.5 120 c 128,-1,39
 363 128 363 128 369 145 c 0,40,41
 382 181 382 181 382 238.5 c 128,-1,42
 382 296 382 296 380.5 322 c 128,-1,43
 379 348 379 348 374 367 c 128,-1,44
 369 386 369 386 362.5 396.5 c 128,-1,45
 356 407 356 407 344 414 c 0,46,47
 324 424 324 424 285 424 c 128,-1,48
 246 424 246 424 228.5 419 c 128,-1,49
 211 414 211 414 198.5 396 c 128,-1,31
 186 378 186 378 182 346.5 c 128,-1,32
EndSplineSet
Substitution2: "'smcp' Lowercase to Small Capitals lookup 1 subtable" odieresis.smcp
EndChar

StartChar: divide
Encoding: 247 247 184
Width: 497
GlyphClass: 2
Flags: W
LayerCount: 2
Fore
SplineSet
38 294 m 1,0,-1
 38 412 l 1,1,-1
 460 412 l 1,2,-1
 460 294 l 1,3,-1
 38 294 l 1,0,-1
210 246 m 2,4,-1
 284 246 l 2,5,6
 308 246 308 246 308 222 c 2,7,-1
 308 155 l 2,8,9
 308 132 308 132 284 132 c 2,10,-1
 210 132 l 2,11,12
 200 132 200 132 193 138 c 128,-1,13
 186 144 186 144 186 155 c 2,14,-1
 186 222 l 2,15,16
 186 246 186 246 210 246 c 2,4,-1
210 570 m 2,17,-1
 284 570 l 2,18,19
 308 570 308 570 308 545 c 2,20,-1
 308 478 l 2,21,22
 308 455 308 455 284 455 c 2,23,-1
 210 455 l 2,24,25
 194 455 194 455 188 469 c 0,26,27
 186 473 186 473 186 478 c 2,28,-1
 186 545 l 2,29,30
 186 570 186 570 210 570 c 2,17,-1
EndSplineSet
EndChar

StartChar: oslash
Encoding: 248 248 185
Width: 581
GlyphClass: 2
Flags: W
LayerCount: 2
Fore
SplineSet
92 67 m 1,0,1
 49 125 49 125 49 246 c 128,-1,2
 49 367 49 367 73 427 c 128,-1,3
 97 487 97 487 148 511.5 c 128,-1,4
 199 536 199 536 295 536 c 128,-1,5
 391 536 391 536 442 508 c 1,6,-1
 461 531 l 1,7,-1
 538 531 l 1,8,-1
 487 468 l 1,9,10
 533 408 533 408 533 258.5 c 128,-1,11
 533 109 533 109 481.5 52 c 128,-1,12
 430 -5 430 -5 291 -5 c 0,13,14
 189 -5 189 -5 135 27 c 1,15,-1
 113 0 l 1,16,-1
 38 0 l 1,17,-1
 92 67 l 1,0,1
193 346.5 m 128,-1,19
 189 315 189 315 189 266 c 128,-1,20
 189 217 189 217 198 196 c 1,21,-1
 361 407 l 1,22,23
 343 424 343 424 300 424 c 128,-1,24
 257 424 257 424 239.5 419 c 128,-1,25
 222 414 222 414 209.5 396 c 128,-1,18
 197 378 197 378 193 346.5 c 128,-1,19
356.5 118 m 128,-1,27
 374 128 374 128 380 145 c 0,28,29
 393 181 393 181 393 249 c 128,-1,30
 393 317 393 317 383 341 c 1,31,-1
 217 128 l 1,32,33
 235 108 235 108 287 108 c 128,-1,26
 339 108 339 108 356.5 118 c 128,-1,27
EndSplineSet
Substitution2: "'smcp' Lowercase to Small Capitals lookup 1 subtable" oslash.smcp
EndChar

StartChar: ugrave
Encoding: 249 249 186
Width: 550
GlyphClass: 2
Flags: W
LayerCount: 2
Fore
SplineSet
108 734 m 1,0,-1
 231 734 l 1,1,-1
 321 596 l 1,2,-1
 230 596 l 1,3,-1
 108 734 l 1,0,-1
38 178 m 2,4,-1
 38 531 l 1,5,-1
 178 531 l 1,6,-1
 178 175 l 2,7,8
 178 104 178 104 237 104 c 0,9,10
 277 104 277 104 304.5 114 c 128,-1,11
 332 124 332 124 365 150 c 1,12,-1
 365 531 l 1,13,-1
 505 531 l 1,14,-1
 505 0 l 1,15,-1
 392 0 l 1,16,-1
 365 56 l 1,17,18
 356 51 356 51 340 41 c 128,-1,19
 324 31 324 31 315 25.5 c 128,-1,20
 306 20 306 20 291.5 12.5 c 128,-1,21
 277 5 277 5 264 1 c 0,22,23
 233 -9 233 -9 196 -9 c 0,24,25
 38 -9 38 -9 38 178 c 2,4,-1
EndSplineSet
AlternateSubs2: "'salt' Stylistic Alternatives in Latin lookup 16 subtable" ugrave.salt
Substitution2: "'smcp' Lowercase to Small Capitals lookup 1 subtable" ugrave.smcp
EndChar

StartChar: uacute
Encoding: 250 250 187
Width: 550
GlyphClass: 2
Flags: W
LayerCount: 2
Fore
SplineSet
226 596 m 1,0,-1
 316 734 l 1,1,-1
 439 734 l 1,2,-1
 317 596 l 1,3,-1
 226 596 l 1,0,-1
38 178 m 2,4,-1
 38 531 l 1,5,-1
 178 531 l 1,6,-1
 178 175 l 2,7,8
 178 104 178 104 237 104 c 0,9,10
 277 104 277 104 304.5 114 c 128,-1,11
 332 124 332 124 365 150 c 1,12,-1
 365 531 l 1,13,-1
 505 531 l 1,14,-1
 505 0 l 1,15,-1
 392 0 l 1,16,-1
 365 56 l 1,17,18
 356 51 356 51 340 41 c 128,-1,19
 324 31 324 31 315 25.5 c 128,-1,20
 306 20 306 20 291.5 12.5 c 128,-1,21
 277 5 277 5 264 1 c 0,22,23
 233 -9 233 -9 196 -9 c 0,24,25
 38 -9 38 -9 38 178 c 2,4,-1
EndSplineSet
AlternateSubs2: "'salt' Stylistic Alternatives in Latin lookup 16 subtable" uacute.salt
Substitution2: "'smcp' Lowercase to Small Capitals lookup 1 subtable" uacute.smcp
EndChar

StartChar: ucircumflex
Encoding: 251 251 188
Width: 550
GlyphClass: 2
Flags: W
LayerCount: 2
Fore
SplineSet
117 596 m 1,0,-1
 225 732 l 1,1,-1
 329 732 l 1,2,-1
 426 596 l 1,3,-1
 333 596 l 1,4,-1
 274 656 l 1,5,-1
 211 596 l 1,6,-1
 117 596 l 1,0,-1
38 178 m 2,7,-1
 38 531 l 1,8,-1
 178 531 l 1,9,-1
 178 175 l 2,10,11
 178 104 178 104 237 104 c 0,12,13
 277 104 277 104 304.5 114 c 128,-1,14
 332 124 332 124 365 150 c 1,15,-1
 365 531 l 1,16,-1
 505 531 l 1,17,-1
 505 0 l 1,18,-1
 392 0 l 1,19,-1
 365 56 l 1,20,21
 356 51 356 51 340 41 c 128,-1,22
 324 31 324 31 315 25.5 c 128,-1,23
 306 20 306 20 291.5 12.5 c 128,-1,24
 277 5 277 5 264 1 c 0,25,26
 233 -9 233 -9 196 -9 c 0,27,28
 38 -9 38 -9 38 178 c 2,7,-1
EndSplineSet
AlternateSubs2: "'salt' Stylistic Alternatives in Latin lookup 16 subtable" ucircumflex.salt
Substitution2: "'smcp' Lowercase to Small Capitals lookup 1 subtable" ucircumflex.smcp
EndChar

StartChar: udieresis
Encoding: 252 252 189
Width: 550
GlyphClass: 2
Flags: W
LayerCount: 2
Fore
SplineSet
85 655 m 128,-1,1
 85 679 85 679 102.5 696.5 c 128,-1,2
 120 714 120 714 144.5 714 c 128,-1,3
 169 714 169 714 186 697 c 128,-1,4
 203 680 203 680 203 655.5 c 128,-1,5
 203 631 203 631 186 613.5 c 128,-1,6
 169 596 169 596 144.5 596 c 128,-1,7
 120 596 120 596 102.5 613.5 c 128,-1,0
 85 631 85 631 85 655 c 128,-1,1
340 655 m 128,-1,9
 340 679 340 679 357.5 696.5 c 128,-1,10
 375 714 375 714 399.5 714 c 128,-1,11
 424 714 424 714 441 697 c 128,-1,12
 458 680 458 680 458 655.5 c 128,-1,13
 458 631 458 631 441 613.5 c 128,-1,14
 424 596 424 596 399.5 596 c 128,-1,15
 375 596 375 596 357.5 613.5 c 128,-1,8
 340 631 340 631 340 655 c 128,-1,9
38 178 m 2,16,-1
 38 531 l 1,17,-1
 178 531 l 1,18,-1
 178 175 l 2,19,20
 178 104 178 104 237 104 c 0,21,22
 277 104 277 104 304.5 114 c 128,-1,23
 332 124 332 124 365 150 c 1,24,-1
 365 531 l 1,25,-1
 505 531 l 1,26,-1
 505 0 l 1,27,-1
 392 0 l 1,28,-1
 365 56 l 1,29,30
 356 51 356 51 340 41 c 128,-1,31
 324 31 324 31 315 25.5 c 128,-1,32
 306 20 306 20 291.5 12.5 c 128,-1,33
 277 5 277 5 264 1 c 0,34,35
 233 -9 233 -9 196 -9 c 0,36,37
 38 -9 38 -9 38 178 c 2,16,-1
EndSplineSet
AlternateSubs2: "'salt' Stylistic Alternatives in Latin lookup 16 subtable" udieresis.salt
Substitution2: "'smcp' Lowercase to Small Capitals lookup 1 subtable" udieresis.smcp
EndChar

StartChar: yacute
Encoding: 253 253 190
Width: 578
GlyphClass: 2
Flags: W
LayerCount: 2
Fore
SplineSet
243 596 m 1,0,-1
 333 734 l 1,1,-1
 456 734 l 1,2,-1
 334 596 l 1,3,-1
 243 596 l 1,0,-1
16 531 m 1,4,-1
 163 531 l 1,5,-1
 255 159 l 2,6,7
 260 141 260 141 267 135 c 128,-1,8
 274 129 274 129 278 126.5 c 128,-1,9
 282 124 282 124 287.5 122.5 c 128,-1,10
 293 121 293 121 296 121 c 128,-1,11
 299 121 299 121 303.5 120.5 c 128,-1,12
 308 120 308 120 308 120 c 1,13,-1
 414 531 l 1,14,-1
 560 531 l 1,15,-1
 376 -168 l 1,16,-1
 303 -270 l 1,17,-1
 203 -270 l 1,18,-1
 278 0 l 1,19,20
 156 0 156 0 120 135 c 2,21,-1
 16 531 l 1,4,-1
EndSplineSet
Substitution2: "'smcp' Lowercase to Small Capitals lookup 1 subtable" yacute.smcp
EndChar

StartChar: thorn
Encoding: 254 254 191
Width: 556
GlyphClass: 2
Flags: W
LayerCount: 2
Fore
SplineSet
193 782 m 1,0,-1
 193 473 l 1,1,2
 223 497 223 497 266.5 515.5 c 128,-1,3
 310 534 310 534 353 534 c 0,4,5
 526 534 526 534 526 264 c 0,6,7
 526 101 526 101 478 40 c 0,8,9
 436 -13 436 -13 353 -13 c 0,10,11
 316 -13 316 -13 271.5 -3.5 c 128,-1,12
 227 6 227 6 193 24 c 1,13,-1
 193 -270 l 1,14,-1
 53 -270 l 1,15,-1
 53 782 l 1,16,-1
 193 782 l 1,0,-1
316 415 m 1,17,18
 246 412 246 412 193 380 c 1,19,-1
 193 116 l 1,20,21
 236 100 236 100 316 97 c 0,22,23
 340 97 340 97 354 108 c 0,24,25
 386 135 386 135 386 275 c 128,-1,26
 386 415 386 415 316 415 c 1,17,18
EndSplineSet
Substitution2: "'smcp' Lowercase to Small Capitals lookup 1 subtable" thorn.smcp
EndChar

StartChar: ydieresis
Encoding: 255 255 192
Width: 578
GlyphClass: 2
Flags: W
LayerCount: 2
Fore
SplineSet
102 655 m 128,-1,1
 102 679 102 679 119.5 696.5 c 128,-1,2
 137 714 137 714 161 714 c 128,-1,3
 185 714 185 714 202 697 c 128,-1,4
 219 680 219 680 219 655.5 c 128,-1,5
 219 631 219 631 202 613.5 c 128,-1,6
 185 596 185 596 161 596 c 128,-1,7
 137 596 137 596 119.5 613.5 c 128,-1,0
 102 631 102 631 102 655 c 128,-1,1
357 655 m 128,-1,9
 357 679 357 679 374.5 696.5 c 128,-1,10
 392 714 392 714 416 714 c 128,-1,11
 440 714 440 714 457 697 c 128,-1,12
 474 680 474 680 474 655.5 c 128,-1,13
 474 631 474 631 457 613.5 c 128,-1,14
 440 596 440 596 416 596 c 128,-1,15
 392 596 392 596 374.5 613.5 c 128,-1,8
 357 631 357 631 357 655 c 128,-1,9
16 531 m 1,16,-1
 163 531 l 1,17,-1
 255 159 l 2,18,19
 260 141 260 141 267 135 c 128,-1,20
 274 129 274 129 278 126.5 c 128,-1,21
 282 124 282 124 287.5 122.5 c 128,-1,22
 293 121 293 121 296 121 c 128,-1,23
 299 121 299 121 303.5 120.5 c 128,-1,24
 308 120 308 120 308 120 c 1,25,-1
 414 531 l 1,26,-1
 560 531 l 1,27,-1
 376 -168 l 1,28,-1
 303 -270 l 1,29,-1
 203 -270 l 1,30,-1
 278 0 l 1,31,32
 156 0 156 0 120 135 c 2,33,-1
 16 531 l 1,16,-1
EndSplineSet
Substitution2: "'smcp' Lowercase to Small Capitals lookup 1 subtable" ydieresis.smcp
EndChar

StartChar: Amacron
Encoding: 256 256 193
Width: 692
GlyphClass: 2
Flags: W
LayerCount: 2
Fore
SplineSet
215 797 m 1,0,-1
 215 876 l 1,1,-1
 507 876 l 1,2,-1
 507 797 l 1,3,-1
 215 797 l 1,0,-1
34 0 m 1,4,-1
 281 732 l 1,5,-1
 440 732 l 1,6,-1
 678 0 l 1,7,-1
 529 0 l 1,8,-1
 477 162 l 1,9,-1
 237 162 l 1,10,-1
 184 0 l 1,11,-1
 34 0 l 1,4,-1
274 286 m 1,12,-1
 444 286 l 1,13,-1
 362 548 l 1,14,-1
 274 286 l 1,12,-1
EndSplineSet
Substitution2: "'c2sc' Capitals to Small Capitals in Latin lookup 2 subtable" amacron.smcp
EndChar

StartChar: amacron
Encoding: 257 257 194
Width: 519
GlyphClass: 2
Flags: W
LayerCount: 2
Fore
SplineSet
124 601 m 1,0,-1
 124 680 l 1,1,-1
 416 680 l 1,2,-1
 416 601 l 1,3,-1
 124 601 l 1,0,-1
48 506 m 1,4,5
 139 541 139 541 291 541 c 0,6,7
 383 541 383 541 432.5 502.5 c 128,-1,8
 482 464 482 464 482 370 c 2,9,-1
 482 0 l 1,10,-1
 371 0 l 1,11,-1
 342 58 l 1,12,13
 338 51 338 51 316.5 36.5 c 128,-1,14
 295 22 295 22 257 8 c 128,-1,15
 219 -6 219 -6 184 -6 c 0,16,17
 110 -6 110 -6 70 36.5 c 128,-1,18
 30 79 30 79 30 135 c 2,19,-1
 30 185 l 2,20,21
 30 249 30 249 68 290 c 128,-1,22
 106 331 106 331 185 331 c 128,-1,23
 264 331 264 331 303 331 c 128,-1,24
 342 331 342 331 342 331 c 1,25,26
 342 348 342 348 342 356.5 c 128,-1,27
 342 365 342 365 342 365 c 2,28,29
 342 405 342 405 325 417.5 c 128,-1,30
 308 430 308 430 257 430 c 128,-1,31
 206 430 206 430 48 419 c 1,32,-1
 48 506 l 1,4,5
170 155 m 2,33,34
 170 125 170 125 183 115.5 c 128,-1,35
 196 106 196 106 221 106 c 128,-1,36
 246 106 246 106 276.5 116.5 c 128,-1,37
 307 127 307 127 324 137 c 2,38,-1
 342 148 l 1,39,-1
 342 245 l 1,40,-1
 213 235 l 2,41,42
 170 231 170 231 170 181 c 2,43,-1
 170 155 l 2,33,34
EndSplineSet
AlternateSubs2: "'salt' Stylistic Alternatives in Latin lookup 16 subtable" amacron.salt
Substitution2: "'smcp' Lowercase to Small Capitals lookup 1 subtable" amacron.smcp
EndChar

StartChar: Abreve
Encoding: 258 258 195
Width: 692
GlyphClass: 2
Flags: W
LayerCount: 2
Fore
SplineSet
246 911 m 1,0,-1
 304 911 l 1,1,2
 304 886 304 886 319.5 870.5 c 128,-1,3
 335 855 335 855 361.5 855 c 128,-1,4
 388 855 388 855 403 870 c 128,-1,5
 418 885 418 885 418 911 c 1,6,-1
 476 911 l 1,7,8
 476 859 476 859 442.5 828 c 128,-1,9
 409 797 409 797 360 797 c 128,-1,10
 311 797 311 797 278.5 828.5 c 128,-1,11
 246 860 246 860 246 911 c 1,0,-1
34 0 m 1,12,-1
 281 732 l 1,13,-1
 440 732 l 1,14,-1
 678 0 l 1,15,-1
 529 0 l 1,16,-1
 477 162 l 1,17,-1
 237 162 l 1,18,-1
 184 0 l 1,19,-1
 34 0 l 1,12,-1
274 286 m 1,20,-1
 444 286 l 1,21,-1
 362 548 l 1,22,-1
 274 286 l 1,20,-1
EndSplineSet
Substitution2: "'c2sc' Capitals to Small Capitals in Latin lookup 2 subtable" abreve.smcp
EndChar

StartChar: abreve
Encoding: 259 259 196
Width: 519
GlyphClass: 2
Flags: W
LayerCount: 2
Fore
SplineSet
155 715 m 1,0,-1
 213 715 l 1,1,2
 213 690 213 690 229 674.5 c 128,-1,3
 245 659 245 659 271 659 c 128,-1,4
 297 659 297 659 312 674 c 128,-1,5
 327 689 327 689 327 715 c 1,6,-1
 385 715 l 1,7,8
 385 663 385 663 352 632 c 128,-1,9
 319 601 319 601 270 601 c 128,-1,10
 221 601 221 601 188 632.5 c 128,-1,11
 155 664 155 664 155 715 c 1,0,-1
48 506 m 1,12,13
 139 541 139 541 291 541 c 0,14,15
 383 541 383 541 432.5 502.5 c 128,-1,16
 482 464 482 464 482 370 c 2,17,-1
 482 0 l 1,18,-1
 371 0 l 1,19,-1
 342 58 l 1,20,21
 338 51 338 51 316.5 36.5 c 128,-1,22
 295 22 295 22 257 8 c 128,-1,23
 219 -6 219 -6 184 -6 c 0,24,25
 110 -6 110 -6 70 36.5 c 128,-1,26
 30 79 30 79 30 135 c 2,27,-1
 30 185 l 2,28,29
 30 249 30 249 68 290 c 128,-1,30
 106 331 106 331 185 331 c 128,-1,31
 264 331 264 331 303 331 c 128,-1,32
 342 331 342 331 342 331 c 1,33,34
 342 348 342 348 342 356.5 c 128,-1,35
 342 365 342 365 342 365 c 2,36,37
 342 405 342 405 325 417.5 c 128,-1,38
 308 430 308 430 257 430 c 128,-1,39
 206 430 206 430 48 419 c 1,40,-1
 48 506 l 1,12,13
170 155 m 2,41,42
 170 125 170 125 183 115.5 c 128,-1,43
 196 106 196 106 221 106 c 128,-1,44
 246 106 246 106 276.5 116.5 c 128,-1,45
 307 127 307 127 324 137 c 2,46,-1
 342 148 l 1,47,-1
 342 245 l 1,48,-1
 213 235 l 2,49,50
 170 231 170 231 170 181 c 2,51,-1
 170 155 l 2,41,42
EndSplineSet
Substitution2: "'smcp' Lowercase to Small Capitals lookup 1 subtable" abreve.smcp
EndChar

StartChar: Aogonek
Encoding: 260 260 197
Width: 692
GlyphClass: 2
Flags: W
LayerCount: 2
Fore
SplineSet
643 -186 m 1,0,1
 630 -189 630 -189 614.5 -189 c 128,-1,2
 599 -189 599 -189 575.5 -181 c 128,-1,3
 552 -173 552 -173 534 -152 c 0,4,5
 508 -120 508 -120 508 -95 c 0,6,7
 508 -35 508 -35 579 1 c 1,8,-1
 635 1 l 1,9,10
 569 -49 569 -49 593 -89 c 0,11,12
 607 -111 607 -111 643 -109 c 1,13,-1
 643 -186 l 1,0,1
34 0 m 1,14,-1
 281 732 l 1,15,-1
 440 732 l 1,16,-1
 678 0 l 1,17,-1
 529 0 l 1,18,-1
 477 162 l 1,19,-1
 237 162 l 1,20,-1
 184 0 l 1,21,-1
 34 0 l 1,14,-1
274 286 m 1,22,-1
 444 286 l 1,23,-1
 362 548 l 1,24,-1
 274 286 l 1,22,-1
EndSplineSet
Substitution2: "'c2sc' Capitals to Small Capitals in Latin lookup 2 subtable" aogonek.smcp
EndChar

StartChar: aogonek
Encoding: 261 261 198
Width: 519
GlyphClass: 2
Flags: W
LayerCount: 2
Fore
SplineSet
465 -186 m 1,0,1
 452 -190 452 -190 437 -190 c 128,-1,2
 422 -190 422 -190 398 -182 c 128,-1,3
 374 -174 374 -174 356 -152 c 0,4,5
 330 -121 330 -121 330 -95 c 0,6,7
 330 -36 330 -36 401 0 c 1,8,-1
 457 0 l 1,9,10
 424 -25 424 -25 417 -42 c 128,-1,11
 410 -59 410 -59 409.5 -69 c 128,-1,12
 409 -79 409 -79 413.5 -86.5 c 128,-1,13
 418 -94 418 -94 426 -99 c 1,14,15
 441 -111 441 -111 465 -110 c 1,16,-1
 465 -186 l 1,0,1
48 506 m 1,17,18
 139 541 139 541 291 541 c 0,19,20
 383 541 383 541 432.5 502.5 c 128,-1,21
 482 464 482 464 482 370 c 2,22,-1
 482 0 l 1,23,-1
 371 0 l 1,24,-1
 342 58 l 1,25,26
 338 51 338 51 316.5 36.5 c 128,-1,27
 295 22 295 22 257 8 c 128,-1,28
 219 -6 219 -6 184 -6 c 0,29,30
 110 -6 110 -6 70 36.5 c 128,-1,31
 30 79 30 79 30 135 c 2,32,-1
 30 185 l 2,33,34
 30 249 30 249 68 290 c 128,-1,35
 106 331 106 331 185 331 c 128,-1,36
 264 331 264 331 303 331 c 128,-1,37
 342 331 342 331 342 331 c 1,38,39
 342 348 342 348 342 356.5 c 128,-1,40
 342 365 342 365 342 365 c 2,41,42
 342 405 342 405 325 417.5 c 128,-1,43
 308 430 308 430 257 430 c 128,-1,44
 206 430 206 430 48 419 c 1,45,-1
 48 506 l 1,17,18
170 155 m 2,46,47
 170 125 170 125 183 115.5 c 128,-1,48
 196 106 196 106 221 106 c 128,-1,49
 246 106 246 106 276.5 116.5 c 128,-1,50
 307 127 307 127 324 137 c 2,51,-1
 342 148 l 1,52,-1
 342 245 l 1,53,-1
 213 235 l 2,54,55
 170 231 170 231 170 181 c 2,56,-1
 170 155 l 2,46,47
EndSplineSet
AlternateSubs2: "'salt' Stylistic Alternatives in Latin lookup 16 subtable" aogonek.salt
Substitution2: "'smcp' Lowercase to Small Capitals lookup 1 subtable" aogonek.smcp
EndChar

StartChar: Cacute
Encoding: 262 262 199
Width: 571
GlyphClass: 2
Flags: W
LayerCount: 2
Fore
SplineSet
286 800 m 1,0,-1
 377 938 l 1,1,-1
 499 938 l 1,2,-1
 377 800 l 1,3,-1
 286 800 l 1,0,-1
92 642 m 0,4,5
 132 708 132 708 203 729 c 0,6,7
 242 740 242 740 291 740 c 0,8,9
 434 740 434 740 546 707 c 1,10,-1
 546 597 l 1,11,12
 546 597 546 597 538.5 598 c 128,-1,13
 531 599 531 599 518.5 600 c 128,-1,14
 506 601 506 601 489 602.5 c 128,-1,15
 472 604 472 604 451.5 605.5 c 128,-1,16
 431 607 431 607 411 608 c 0,17,18
 364 611 364 611 327 611 c 128,-1,19
 290 611 290 611 269.5 606.5 c 128,-1,20
 249 602 249 602 230 588.5 c 128,-1,21
 211 575 211 575 202 548 c 0,22,23
 182 490 182 490 182 366 c 0,24,25
 182 234 182 234 210 183 c 0,26,27
 242 123 242 123 324 123 c 0,28,29
 418 123 418 123 514 129 c 2,30,-1
 546 131 l 1,31,-1
 546 22 l 1,32,33
 456 -6 456 -6 314 -6 c 0,34,35
 303 -6 303 -6 291 -6 c 0,36,37
 157 -5 157 -5 99.5 90 c 128,-1,38
 42 185 42 185 42 372.5 c 128,-1,39
 42 560 42 560 92 642 c 0,4,5
EndSplineSet
Substitution2: "'c2sc' Capitals to Small Capitals in Latin lookup 2 subtable" cacute.smcp
EndChar

StartChar: cacute
Encoding: 263 263 200
Width: 494
GlyphClass: 2
Flags: W
LayerCount: 2
Fore
SplineSet
229 597 m 1,0,-1
 319 736 l 1,1,-1
 442 736 l 1,2,-1
 320 597 l 1,3,-1
 229 597 l 1,0,-1
38 266 m 0,4,5
 38 346 38 346 50.5 400.5 c 128,-1,6
 63 455 63 455 87.5 483.5 c 128,-1,7
 112 512 112 512 142 524 c 128,-1,8
 172 536 172 536 213 536 c 0,9,10
 360 536 360 536 457 504 c 1,11,-1
 457 418 l 1,12,13
 362 424 362 424 307.5 424 c 128,-1,14
 253 424 253 424 243 422.5 c 128,-1,15
 233 421 233 421 220 416.5 c 128,-1,16
 207 412 207 412 201 402 c 128,-1,17
 195 392 195 392 189 374 c 0,18,19
 178 344 178 344 178 269.5 c 128,-1,20
 178 195 178 195 187.5 162 c 128,-1,21
 197 129 197 129 215.5 118.5 c 128,-1,22
 234 108 234 108 274 108 c 0,23,24
 355 108 355 108 437 115 c 2,25,-1
 464 117 l 1,26,-1
 464 29 l 1,27,28
 418 5 418 5 374 1 c 0,29,30
 309 -5 309 -5 261 -5 c 2,31,-1
 255 -5 l 2,32,33
 217 -5 217 -5 213 -5 c 0,34,35
 134 -5 134 -5 89 48 c 0,36,37
 38 107 38 107 38 266 c 0,4,5
EndSplineSet
Substitution2: "'smcp' Lowercase to Small Capitals lookup 1 subtable" cacute.smcp
EndChar

StartChar: Ccircumflex
Encoding: 264 264 201
Width: 571
GlyphClass: 2
Flags: W
LayerCount: 2
Fore
SplineSet
176 800 m 1,0,-1
 284 936 l 1,1,-1
 388 936 l 1,2,-1
 485 800 l 1,3,-1
 392 800 l 1,4,-1
 333 860 l 1,5,-1
 270 800 l 1,6,-1
 176 800 l 1,0,-1
92 642 m 0,7,8
 132 708 132 708 203 729 c 0,9,10
 242 740 242 740 291 740 c 0,11,12
 434 740 434 740 546 707 c 1,13,-1
 546 597 l 1,14,15
 546 597 546 597 538.5 598 c 128,-1,16
 531 599 531 599 518.5 600 c 128,-1,17
 506 601 506 601 489 602.5 c 128,-1,18
 472 604 472 604 451.5 605.5 c 128,-1,19
 431 607 431 607 411 608 c 0,20,21
 364 611 364 611 327 611 c 128,-1,22
 290 611 290 611 269.5 606.5 c 128,-1,23
 249 602 249 602 230 588.5 c 128,-1,24
 211 575 211 575 202 548 c 0,25,26
 182 490 182 490 182 366 c 0,27,28
 182 234 182 234 210 183 c 0,29,30
 242 123 242 123 324 123 c 0,31,32
 418 123 418 123 514 129 c 2,33,-1
 546 131 l 1,34,-1
 546 22 l 1,35,36
 456 -6 456 -6 314 -6 c 0,37,38
 303 -6 303 -6 291 -6 c 0,39,40
 157 -5 157 -5 99.5 90 c 128,-1,41
 42 185 42 185 42 372.5 c 128,-1,42
 42 560 42 560 92 642 c 0,7,8
EndSplineSet
Substitution2: "'c2sc' Capitals to Small Capitals in Latin lookup 2 subtable" ccircumflex.smcp
EndChar

StartChar: ccircumflex
Encoding: 265 265 202
Width: 494
GlyphClass: 2
Flags: W
LayerCount: 2
Fore
SplineSet
116 597 m 1,0,-1
 223 732 l 1,1,-1
 327 732 l 1,2,-1
 424 597 l 1,3,-1
 331 597 l 1,4,-1
 272 657 l 1,5,-1
 210 597 l 1,6,-1
 116 597 l 1,0,-1
38 266 m 0,7,8
 38 346 38 346 50.5 400.5 c 128,-1,9
 63 455 63 455 87.5 483.5 c 128,-1,10
 112 512 112 512 142 524 c 128,-1,11
 172 536 172 536 213 536 c 0,12,13
 360 536 360 536 457 504 c 1,14,-1
 457 418 l 1,15,16
 362 424 362 424 307.5 424 c 128,-1,17
 253 424 253 424 243 422.5 c 128,-1,18
 233 421 233 421 220 416.5 c 128,-1,19
 207 412 207 412 201 402 c 128,-1,20
 195 392 195 392 189 374 c 0,21,22
 178 344 178 344 178 269.5 c 128,-1,23
 178 195 178 195 187.5 162 c 128,-1,24
 197 129 197 129 215.5 118.5 c 128,-1,25
 234 108 234 108 274 108 c 0,26,27
 355 108 355 108 437 115 c 2,28,-1
 464 117 l 1,29,-1
 464 29 l 1,30,31
 418 5 418 5 374 1 c 0,32,33
 309 -5 309 -5 261 -5 c 2,34,-1
 255 -5 l 2,35,36
 217 -5 217 -5 213 -5 c 0,37,38
 134 -5 134 -5 89 48 c 0,39,40
 38 107 38 107 38 266 c 0,7,8
EndSplineSet
Substitution2: "'smcp' Lowercase to Small Capitals lookup 1 subtable" ccircumflex.smcp
EndChar

StartChar: Cdotaccent
Encoding: 266 266 203
Width: 571
GlyphClass: 2
Flags: W
LayerCount: 2
Fore
SplineSet
271 824 m 2,0,-1
 271 900 l 2,1,2
 271 925 271 925 295 925 c 2,3,-1
 367 925 l 2,4,5
 378 925 378 925 384 918 c 128,-1,6
 390 911 390 911 390 900 c 2,7,-1
 390 824 l 2,8,9
 390 801 390 801 367 801 c 2,10,-1
 295 801 l 2,11,12
 285 801 285 801 278 807.5 c 128,-1,13
 271 814 271 814 271 824 c 2,0,-1
92 642 m 0,14,15
 132 708 132 708 203 729 c 0,16,17
 242 740 242 740 291 740 c 0,18,19
 434 740 434 740 546 707 c 1,20,-1
 546 597 l 1,21,22
 546 597 546 597 538.5 598 c 128,-1,23
 531 599 531 599 518.5 600 c 128,-1,24
 506 601 506 601 489 602.5 c 128,-1,25
 472 604 472 604 451.5 605.5 c 128,-1,26
 431 607 431 607 411 608 c 0,27,28
 364 611 364 611 327 611 c 128,-1,29
 290 611 290 611 269.5 606.5 c 128,-1,30
 249 602 249 602 230 588.5 c 128,-1,31
 211 575 211 575 202 548 c 0,32,33
 182 490 182 490 182 366 c 0,34,35
 182 234 182 234 210 183 c 0,36,37
 242 123 242 123 324 123 c 0,38,39
 418 123 418 123 514 129 c 2,40,-1
 546 131 l 1,41,-1
 546 22 l 1,42,43
 456 -6 456 -6 314 -6 c 0,44,45
 303 -6 303 -6 291 -6 c 0,46,47
 157 -5 157 -5 99.5 90 c 128,-1,48
 42 185 42 185 42 372.5 c 128,-1,49
 42 560 42 560 92 642 c 0,14,15
EndSplineSet
Substitution2: "'c2sc' Capitals to Small Capitals in Latin lookup 2 subtable" cdotaccent.smcp
EndChar

StartChar: cdotaccent
Encoding: 267 267 204
Width: 494
GlyphClass: 2
Flags: W
LayerCount: 2
Fore
SplineSet
225 621 m 2,0,-1
 225 697 l 2,1,2
 225 722 225 722 249 722 c 2,3,-1
 321 722 l 2,4,5
 332 722 332 722 338 715 c 128,-1,6
 344 708 344 708 344 697 c 2,7,-1
 344 621 l 2,8,9
 344 598 344 598 321 598 c 2,10,-1
 249 598 l 2,11,12
 238 598 238 598 231.5 604 c 128,-1,13
 225 610 225 610 225 621 c 2,0,-1
38 266 m 0,14,15
 38 346 38 346 50.5 400.5 c 128,-1,16
 63 455 63 455 87.5 483.5 c 128,-1,17
 112 512 112 512 142 524 c 128,-1,18
 172 536 172 536 213 536 c 0,19,20
 360 536 360 536 457 504 c 1,21,-1
 457 418 l 1,22,23
 362 424 362 424 307.5 424 c 128,-1,24
 253 424 253 424 243 422.5 c 128,-1,25
 233 421 233 421 220 416.5 c 128,-1,26
 207 412 207 412 201 402 c 128,-1,27
 195 392 195 392 189 374 c 0,28,29
 178 344 178 344 178 269.5 c 128,-1,30
 178 195 178 195 187.5 162 c 128,-1,31
 197 129 197 129 215.5 118.5 c 128,-1,32
 234 108 234 108 274 108 c 0,33,34
 355 108 355 108 437 115 c 2,35,-1
 464 117 l 1,36,-1
 464 29 l 1,37,38
 418 5 418 5 374 1 c 0,39,40
 309 -5 309 -5 261 -5 c 2,41,-1
 255 -5 l 2,42,43
 217 -5 217 -5 213 -5 c 0,44,45
 134 -5 134 -5 89 48 c 0,46,47
 38 107 38 107 38 266 c 0,14,15
EndSplineSet
Substitution2: "'smcp' Lowercase to Small Capitals lookup 1 subtable" cdotaccent.smcp
EndChar

StartChar: Ccaron
Encoding: 268 268 205
Width: 571
GlyphClass: 2
Flags: W
LayerCount: 2
Fore
SplineSet
184 936 m 1,0,-1
 278 936 l 1,1,-1
 341 876 l 1,2,-1
 399 936 l 1,3,-1
 493 936 l 1,4,-1
 391 800 l 1,5,-1
 287 800 l 1,6,-1
 184 936 l 1,0,-1
92 642 m 0,7,8
 132 708 132 708 203 729 c 0,9,10
 242 740 242 740 291 740 c 0,11,12
 434 740 434 740 546 707 c 1,13,-1
 546 597 l 1,14,15
 546 597 546 597 538.5 598 c 128,-1,16
 531 599 531 599 518.5 600 c 128,-1,17
 506 601 506 601 489 602.5 c 128,-1,18
 472 604 472 604 451.5 605.5 c 128,-1,19
 431 607 431 607 411 608 c 0,20,21
 364 611 364 611 327 611 c 128,-1,22
 290 611 290 611 269.5 606.5 c 128,-1,23
 249 602 249 602 230 588.5 c 128,-1,24
 211 575 211 575 202 548 c 0,25,26
 182 490 182 490 182 366 c 0,27,28
 182 234 182 234 210 183 c 0,29,30
 242 123 242 123 324 123 c 0,31,32
 418 123 418 123 514 129 c 2,33,-1
 546 131 l 1,34,-1
 546 22 l 1,35,36
 456 -6 456 -6 314 -6 c 0,37,38
 303 -6 303 -6 291 -6 c 0,39,40
 157 -5 157 -5 99.5 90 c 128,-1,41
 42 185 42 185 42 372.5 c 128,-1,42
 42 560 42 560 92 642 c 0,7,8
EndSplineSet
Substitution2: "'c2sc' Capitals to Small Capitals in Latin lookup 2 subtable" ccaron.smcp
EndChar

StartChar: ccaron
Encoding: 269 269 206
Width: 494
GlyphClass: 2
Flags: W
LayerCount: 2
Fore
SplineSet
117 733 m 1,0,-1
 210 733 l 1,1,-1
 273 673 l 1,2,-1
 332 733 l 1,3,-1
 425 733 l 1,4,-1
 323 597 l 1,5,-1
 219 597 l 1,6,-1
 117 733 l 1,0,-1
38 266 m 0,7,8
 38 346 38 346 50.5 400.5 c 128,-1,9
 63 455 63 455 87.5 483.5 c 128,-1,10
 112 512 112 512 142 524 c 128,-1,11
 172 536 172 536 213 536 c 0,12,13
 360 536 360 536 457 504 c 1,14,-1
 457 418 l 1,15,16
 362 424 362 424 307.5 424 c 128,-1,17
 253 424 253 424 243 422.5 c 128,-1,18
 233 421 233 421 220 416.5 c 128,-1,19
 207 412 207 412 201 402 c 128,-1,20
 195 392 195 392 189 374 c 0,21,22
 178 344 178 344 178 269.5 c 128,-1,23
 178 195 178 195 187.5 162 c 128,-1,24
 197 129 197 129 215.5 118.5 c 128,-1,25
 234 108 234 108 274 108 c 0,26,27
 355 108 355 108 437 115 c 2,28,-1
 464 117 l 1,29,-1
 464 29 l 1,30,31
 418 5 418 5 374 1 c 0,32,33
 309 -5 309 -5 261 -5 c 2,34,-1
 255 -5 l 2,35,36
 217 -5 217 -5 213 -5 c 0,37,38
 134 -5 134 -5 89 48 c 0,39,40
 38 107 38 107 38 266 c 0,7,8
EndSplineSet
Substitution2: "'smcp' Lowercase to Small Capitals lookup 1 subtable" ccaron.smcp
EndChar

StartChar: Dcaron
Encoding: 270 270 207
Width: 662
GlyphClass: 2
Flags: W
LayerCount: 2
Fore
SplineSet
164 930 m 1,0,-1
 257 930 l 1,1,-1
 320 870 l 1,2,-1
 379 930 l 1,3,-1
 472 930 l 1,4,-1
 370 795 l 1,5,-1
 266 795 l 1,6,-1
 164 930 l 1,0,-1
61 0 m 1,7,-1
 61 732 l 1,8,-1
 372 732 l 2,9,10
 626 732 626 732 626 363 c 0,11,12
 626 135 626 135 517 47 c 0,13,14
 459 0 459 0 372 0 c 2,15,-1
 61 0 l 1,7,-1
201 125 m 1,16,-1
 361 125 l 2,17,18
 486 125 486 125 486 364 c 0,19,20
 486 546 486 546 428 589 c 0,21,22
 402 608 402 608 361 608 c 2,23,-1
 201 608 l 1,24,-1
 201 125 l 1,16,-1
EndSplineSet
Substitution2: "'c2sc' Capitals to Small Capitals in Latin lookup 2 subtable" dcaron.smcp
EndChar

StartChar: dcaron
Encoding: 271 271 208
Width: 607
GlyphClass: 2
Flags: W
LayerCount: 2
Fore
SplineSet
53 420 m 128,-1,1
 68 469 68 469 87 491 c 0,2,3
 128 539 128 539 211 539 c 0,4,5
 247 539 247 539 292 529.5 c 128,-1,6
 337 520 337 520 372 504 c 1,7,-1
 372 785 l 1,8,-1
 512 785 l 1,9,-1
 512 0 l 1,10,-1
 396 0 l 1,11,-1
 372 54 l 1,12,13
 331 21 331 21 286 7.5 c 128,-1,14
 241 -6 241 -6 211 -6 c 0,15,16
 118 -6 118 -6 78 62.5 c 128,-1,17
 38 131 38 131 38 251 c 128,-1,0
 38 371 38 371 53 420 c 128,-1,1
186.5 370 m 128,-1,19
 178 334 178 334 178 258.5 c 128,-1,20
 178 183 178 183 195 148.5 c 128,-1,21
 212 114 212 114 248 114 c 0,22,23
 321 114 321 114 372 146 c 1,24,-1
 372 409 l 1,25,26
 321 429 321 429 248 429 c 0,27,28
 223 429 223 429 209 417.5 c 128,-1,18
 195 406 195 406 186.5 370 c 128,-1,19
659 781 m 1,29,-1
 659 714 l 1,30,-1
 648 580 l 1,31,-1
 573 580 l 1,32,-1
 563 714 l 1,33,-1
 562 781 l 1,34,-1
 659 781 l 1,29,-1
EndSplineSet
AlternateSubs2: "'salt' Stylistic Alternatives in Latin lookup 16 subtable" dcaron.salt
Substitution2: "'smcp' Lowercase to Small Capitals lookup 1 subtable" dcaron.smcp
EndChar

StartChar: Dcroat
Encoding: 272 272 209
Width: 662
GlyphClass: 2
Flags: W
LayerCount: 2
Fore
SplineSet
-4 340 m 1,0,-1
 -4 406 l 1,1,-1
 61 406 l 1,2,-1
 61 732 l 1,3,4
 61 732 61 732 372 732 c 0,5,6
 600 732 600 732 623 441 c 0,7,8
 626 404 626 404 626 342.5 c 128,-1,9
 626 281 626 281 611 215.5 c 128,-1,10
 596 150 596 150 566 101 c 0,11,12
 504 0 504 0 372 0 c 2,13,-1
 61 0 l 1,14,-1
 61 340 l 1,15,-1
 -4 340 l 1,0,-1
201 125 m 1,16,-1
 361 125 l 2,17,18
 427 125 427 125 455.5 186.5 c 128,-1,19
 484 248 484 248 484 364 c 0,20,21
 484 505 484 505 450 558 c 0,22,23
 420 606 420 606 361 606 c 2,24,-1
 201 606 l 1,25,-1
 201 406 l 1,26,-1
 312 406 l 1,27,-1
 312 340 l 1,28,-1
 201 340 l 1,29,-1
 201 125 l 1,16,-1
EndSplineSet
Substitution2: "'c2sc' Capitals to Small Capitals in Latin lookup 2 subtable" dcroat.smcp
EndChar

